<svg width="806" height="76" viewBox="0 0 806 76" fill="none" xmlns="http://www.w3.org/2000/svg">
<path d="M12.8959 56.8938C10.8988 56.8938 9.08154 56.4181 7.44396 55.4668C5.84633 54.5154 4.46838 53.2074 3.31009 51.5425C2.19175 49.8777 1.33302 47.9354 0.733912 45.7156C0.174741 43.4562 -0.0649038 41.058 0.0149778 38.5211C0.0948594 36.1428 0.394415 33.5662 0.913645 30.7915C1.47282 28.0168 2.25166 25.242 3.25018 22.4673C4.2487 19.6529 5.44692 16.9575 6.84485 14.381C8.28272 11.7648 9.92029 9.46572 11.7576 7.48377C13.5948 5.50182 15.6318 3.91626 17.8685 2.72709C20.1052 1.49829 22.5616 0.883881 25.2376 0.883881C26.8752 0.883881 28.2531 1.22081 29.3715 1.89468C30.5297 2.5289 31.4484 3.38114 32.1274 4.45139C32.8463 5.52164 33.3456 6.73063 33.6251 8.07836C33.9047 9.42608 34.0246 10.7936 33.9846 12.181C33.9047 13.4891 33.705 14.7575 33.3855 15.9863C33.1059 17.2151 32.6865 18.325 32.1274 19.316C31.6081 20.2674 30.9491 21.0403 30.1503 21.6349C29.3914 22.1898 28.5127 22.4673 27.5142 22.4673C27.0349 22.4277 26.5756 22.2691 26.1362 21.9916C25.7368 21.7538 25.3175 21.3971 24.8781 20.9214C24.4787 20.4457 24.0993 19.752 23.7398 18.8403C24.8182 18.4043 25.657 17.6512 26.2561 16.5809C26.8951 15.471 27.3744 14.3215 27.6939 13.1323C28.0534 11.7846 28.2931 10.2783 28.4129 8.61349C28.4928 6.98829 28.1533 5.79912 27.3944 5.04598C26.6355 4.29283 25.7768 3.91626 24.8182 3.91626C22.941 3.91626 20.9639 4.88742 18.887 6.82973C16.8101 8.77204 14.8729 11.408 13.0756 14.7377C11.3182 18.0277 9.82044 21.8727 8.58228 26.2727C7.38405 30.6726 6.68509 35.3302 6.48538 40.2454C6.4055 42.4652 6.5453 44.348 6.90476 45.894C7.30417 47.4399 7.84337 48.7083 8.52236 49.6993C9.2413 50.6903 10.0401 51.4038 10.9188 51.8398C11.7975 52.2758 12.6762 52.4939 13.5549 52.4939C14.9528 52.4939 16.2709 52.1966 17.509 51.602C18.7472 51.0074 19.8655 50.2741 20.8641 49.402C21.9025 48.53 22.7812 47.6183 23.5002 46.6669C24.259 45.7552 24.8382 44.9426 25.2376 44.2291C25.5172 43.7138 25.8167 43.3967 26.1362 43.2778C26.4558 43.1589 26.7354 43.1985 26.975 43.3967C27.2147 43.5553 27.3744 43.8327 27.4543 44.2291C27.5342 44.5859 27.4543 45.0219 27.2147 45.5372C26.5357 46.8849 25.6969 48.2327 24.6984 49.5804C23.7398 50.9281 22.6414 52.1371 21.4033 53.2074C20.205 54.3173 18.887 55.2091 17.4491 55.883C16.0113 56.5569 14.4935 56.8938 12.8959 56.8938Z" fill="white"/>
<path d="M51.4188 36.3806C51.0194 37.8869 50.4802 39.2941 49.8012 40.6022C49.1222 41.9102 48.3034 43.04 47.3448 43.9913C46.4262 44.9426 45.3677 45.676 44.1695 46.1913C43.0112 46.7462 41.7331 47.0237 40.3352 47.0237C38.6976 47.0237 37.3996 46.6669 36.441 45.9534C35.5223 45.2796 34.8234 44.4273 34.3441 43.3967C33.9047 42.3661 33.6451 41.2364 33.5652 40.0076C33.4454 38.7788 33.3855 37.6292 33.3855 36.559C33.3855 35.8058 33.4854 34.9734 33.6851 34.0617C33.8448 33.15 34.0845 32.2185 34.404 31.2672C34.7235 30.3158 35.1229 29.3645 35.6022 28.4132C36.1214 27.4618 36.7206 26.5898 37.3996 25.797C37.6392 25.1231 37.9987 24.5285 38.478 24.0132C38.9972 23.4979 39.5763 23.0817 40.2154 22.7646C40.8944 22.4079 41.6133 22.1502 42.3722 21.9916C43.1311 21.7935 43.87 21.6944 44.5889 21.6944C44.7087 21.6944 44.8086 21.7142 44.8884 21.7538C45.0083 21.7935 45.1281 21.8331 45.2479 21.8727C45.7671 21.9124 46.4062 22.1106 47.1651 22.4673C47.9639 22.8241 48.7228 23.3592 49.4417 24.0727C50.2006 24.7862 50.8396 25.6979 51.3589 26.8078C51.8781 27.878 52.1377 29.1861 52.1377 30.732C52.1377 31.0492 52.1177 31.4455 52.0778 31.9212C52.0378 32.3572 51.9979 32.7338 51.958 33.0509C52.8766 32.6942 53.8352 32.2581 54.8337 31.7428C55.8322 31.2275 56.7908 30.6924 57.7094 30.1375C58.668 29.5429 59.5467 28.9483 60.3455 28.3537C61.1443 27.7591 61.7834 27.224 62.2627 26.7483C62.6621 26.3916 63.0016 26.1934 63.2812 26.1537C63.5608 26.1141 63.7605 26.1934 63.8803 26.3916C64.0001 26.5898 64.0201 26.8672 63.9402 27.224C63.8603 27.5807 63.6406 27.9771 63.2812 28.4132C63.0815 28.651 62.5622 29.1267 61.7235 29.8402C60.9247 30.5537 59.9661 31.3266 58.8478 32.1591C57.7294 32.9915 56.5112 33.8041 55.1932 34.5969C53.8751 35.3896 52.617 35.9842 51.4188 36.3806ZM41.2938 27.3429C41.174 27.6997 41.114 28.0762 41.114 28.4726C41.114 29.1068 41.154 29.7807 41.2339 30.4942C41.3137 31.1681 41.5135 31.7825 41.833 32.3374C42.1525 32.8924 42.6518 33.368 43.3308 33.7644C44.0497 34.1212 45.0282 34.2996 46.2664 34.2996C46.4661 34.2996 46.6658 34.2996 46.8655 34.2996C47.0652 34.2599 47.2649 34.2203 47.4646 34.1806C47.5844 33.6653 47.6843 33.2095 47.7642 32.8131C47.884 32.3771 47.9439 32.0005 47.9439 31.6834C48.0238 30.9302 48.0238 30.1573 47.9439 29.3645C47.864 28.5717 47.7043 27.8582 47.4646 27.224C47.2649 26.5501 46.9853 26.015 46.6259 25.6186C46.3063 25.1826 45.9069 24.9646 45.4276 24.9646C44.6688 24.9646 43.9299 25.1826 43.2109 25.6186C42.5319 26.015 41.8929 26.5898 41.2938 27.3429ZM37.4595 37.8076C37.4595 38.5211 37.4994 39.2346 37.5793 39.9481C37.6592 40.622 37.8189 41.2364 38.0586 41.7913C38.2982 42.3066 38.6177 42.7427 39.0172 43.0994C39.4166 43.4165 39.9358 43.5751 40.5748 43.5751C41.2938 43.5751 41.9528 43.4165 42.5519 43.0994C43.151 42.7427 43.6902 42.3066 44.1695 41.7913C44.6488 41.2364 45.0682 40.622 45.4276 39.9481C45.8271 39.2346 46.1665 38.5013 46.4461 37.7481C46.1665 37.7878 45.887 37.8274 45.6074 37.8671C45.3677 37.8671 45.0882 37.8671 44.7686 37.8671C43.2509 37.8671 41.9328 37.431 40.8145 36.559C39.7361 35.6473 38.8973 34.4978 38.2982 33.1104C38.0586 33.9428 37.8589 34.7554 37.6991 35.5482C37.5393 36.341 37.4595 37.0941 37.4595 37.8076Z" fill="white"/>
<path d="M75.6229 47.321C74.7042 47.321 73.9054 47.1426 73.2264 46.7858C72.5874 46.4687 72.0682 46.0327 71.6687 45.4778C71.2693 44.9228 71.0097 44.2886 70.8899 43.5751C70.7701 42.8219 70.81 42.0292 71.0097 41.1967C71.1295 40.6418 71.3292 39.9085 71.6088 38.9968C71.8884 38.0454 72.168 37.0346 72.4476 35.9644C72.7671 34.8545 73.0467 33.7644 73.2863 32.6942C73.5659 31.5843 73.7457 30.5933 73.8255 29.7213C73.9054 28.8096 73.8655 28.0762 73.7057 27.5213C73.546 26.9267 73.2065 26.6294 72.6872 26.6294C72.0482 26.6294 71.3892 26.8474 70.7102 27.2835C70.0312 27.6798 69.3322 28.2348 68.6133 28.9483C67.9343 29.6618 67.2353 30.4942 66.5164 31.4456C65.8374 32.3572 65.1584 33.3086 64.4794 34.2996C64.1199 35.6473 63.8204 36.8365 63.5807 37.8671C63.3411 38.858 63.1214 39.7697 62.9217 40.6022C62.762 41.3949 62.6022 42.1084 62.4424 42.7427C62.2827 43.3372 62.1429 43.912 62.023 44.467C61.9032 44.8633 61.5438 45.2597 60.9446 45.6561C60.3455 46.0129 59.7065 46.3102 59.0275 46.548C58.3485 46.7858 57.7694 46.9048 57.2901 46.9048C56.7708 46.9048 56.5512 46.7264 56.631 46.3696C56.671 46.1318 56.8108 45.5967 57.0504 44.7643C57.2501 43.9318 57.5097 42.9607 57.8293 41.8508C58.1088 40.7013 58.4084 39.4923 58.7279 38.2238C59.0475 36.9554 59.347 35.7464 59.6266 34.5969C59.8263 33.6852 60.046 32.6744 60.2856 31.5645C60.4853 30.6131 60.725 29.5032 61.0046 28.2348C61.3241 26.9663 61.6835 25.579 62.083 24.0727C62.3625 23.8349 62.6421 23.6565 62.9217 23.5376C63.2412 23.379 63.5608 23.2601 63.8803 23.1808C64.1998 23.0619 64.5393 22.9826 64.8988 22.943C65.2183 22.943 65.5378 22.9628 65.8574 23.0024C66.1369 23.0421 66.4165 23.1214 66.6961 23.2403C67.0156 23.3196 67.2952 23.4583 67.5349 23.6565C67.415 23.934 67.2753 24.3303 67.1155 24.8457C66.9557 25.3213 66.796 25.8366 66.6362 26.3916C66.4764 27.0258 66.2767 27.6798 66.0371 28.3537C66.5563 27.6402 67.1355 26.9267 67.7745 26.2132C68.4535 25.4601 69.1724 24.7862 69.9313 24.1916C70.7301 23.597 71.5689 23.1214 72.4476 22.7646C73.3263 22.3682 74.225 22.17 75.1436 22.17C75.9025 22.17 76.5815 22.388 77.1806 22.8241C77.7797 23.2601 78.239 23.8745 78.5585 24.6673C78.918 25.4204 79.1177 26.3321 79.1576 27.4024C79.2375 28.4726 79.0977 29.642 78.7383 30.9104L78.0792 33.5266C77.8795 34.359 77.6199 35.35 77.3004 36.4995C77.0208 37.6094 76.6613 38.8382 76.222 40.186C75.9823 41.058 75.8825 41.8111 75.9224 42.4454C76.0023 43.0796 76.4017 43.3967 77.1207 43.3967C77.8396 43.3967 78.7383 42.9607 79.8167 42.0886C80.935 41.2166 82.0533 40.1661 83.1717 38.9373C84.29 37.7085 85.3485 36.4599 86.347 35.1914C87.3455 33.8833 88.1044 32.8329 88.6236 32.0401C88.9831 31.5248 89.3226 31.1879 89.6421 31.0293C89.9616 30.8708 90.2013 30.851 90.361 30.9699C90.5607 31.0888 90.6606 31.3663 90.6606 31.8023C90.6606 32.1987 90.5008 32.714 90.1813 33.3482C89.9017 33.9032 89.4624 34.6365 88.8633 35.5482C88.3041 36.4599 87.6251 37.431 86.8263 38.4617C86.0275 39.4923 85.1687 40.5427 84.2501 41.6129C83.3315 42.6436 82.3729 43.5949 81.3744 44.467C80.3758 45.2994 79.3773 45.9732 78.3788 46.4885C77.4202 47.0435 76.5016 47.321 75.6229 47.321Z" fill="white"/>
<path d="M100.786 42.6832C100.346 43.2778 99.8669 43.8724 99.3477 44.467C98.8285 45.0615 98.2693 45.5967 97.6702 46.0723C97.0711 46.548 96.432 46.9246 95.753 47.2021C95.074 47.5192 94.3551 47.6777 93.5962 47.6777C91.719 47.6777 90.2612 47.3011 89.2227 46.548C88.1843 45.7949 87.4054 44.903 86.8862 43.8724C86.4069 42.8418 86.1273 41.7913 86.0474 40.7211C85.9276 39.6112 85.8677 38.7193 85.8677 38.0454C85.8677 36.222 86.2272 34.3788 86.9461 32.5158C87.665 30.6131 88.6236 28.8888 89.8218 27.3429C91.0201 25.797 92.378 24.5484 93.8958 23.597C95.4535 22.6061 97.0311 22.1106 98.6288 22.1106C99.6273 22.1106 100.466 22.3286 101.145 22.7646C101.824 23.161 102.383 23.6565 102.823 24.2511C103.262 24.8457 103.581 25.4799 103.781 26.1537C104.021 26.8276 104.181 27.4222 104.26 27.9375C104.34 27.4618 104.42 26.9663 104.5 26.451C104.58 26.015 104.66 25.5393 104.74 25.024C104.82 24.5087 104.899 24.0132 104.979 23.5376C105.219 23.3394 105.479 23.1808 105.758 23.0619C106.078 22.943 106.397 22.8439 106.717 22.7646C107.076 22.6853 107.436 22.6259 107.795 22.5862C108.155 22.5862 108.494 22.6061 108.814 22.6457C109.453 22.725 109.892 22.943 110.132 23.2997C109.013 26.9465 108.215 29.6816 107.735 31.505C107.456 32.5356 107.236 33.4275 107.076 34.1806C106.916 34.7356 106.677 35.5878 106.357 36.7374C106.078 37.8869 105.738 39.2148 105.339 40.7211C104.939 42.2274 104.52 43.8526 104.081 45.5967C103.641 47.3012 103.222 48.9858 102.823 50.6506C103.701 49.7786 104.64 48.8471 105.638 47.8561C106.677 46.8651 107.715 45.8345 108.754 44.7643C109.792 43.694 110.811 42.6039 111.809 41.494C112.848 40.3445 113.806 39.2148 114.685 38.1049C115.204 37.4707 115.644 37.0743 116.003 36.9157C116.402 36.7572 116.682 36.777 116.842 36.9752C117.002 37.1337 117.041 37.431 116.962 37.8671C116.922 38.2635 116.722 38.6995 116.362 39.1752C115.723 40.0472 115.024 40.9787 114.266 41.9697C113.507 42.921 112.708 43.8922 111.869 44.8832C111.07 45.8345 110.252 46.7858 109.413 47.7372C108.574 48.6885 107.775 49.5606 107.016 50.3534C106.218 51.1461 105.339 51.9786 104.38 52.8506C103.422 53.7623 102.483 54.8127 101.564 56.0019C101.405 56.7551 101.265 57.4289 101.145 58.0235C101.065 58.6181 100.985 59.1532 100.905 59.6289C100.706 61.0162 100.566 62.1856 100.486 63.1369C100.446 64.1279 100.426 64.9801 100.426 65.6936C100.426 66.4468 100.446 67.1206 100.486 67.7152C100.526 68.3495 100.546 69.0035 100.546 69.6774C100.586 71.1044 100.526 72.0953 100.366 72.6503C100.246 73.2052 99.7871 73.4827 98.9882 73.4827C98.5888 73.4827 98.0696 73.3043 97.4305 72.9476C96.7915 72.5908 96.1724 72.0953 95.5733 71.4611C94.9742 70.8269 94.455 70.0539 94.0156 69.1422C93.6162 68.2305 93.4165 67.1999 93.4165 66.0504C93.4165 64.5441 93.7161 63.0576 94.3152 61.591C94.9143 60.164 95.7131 58.7568 96.7116 57.3695C96.9912 56.3785 97.2908 55.2686 97.6103 54.0398C97.9697 52.811 98.3292 51.5425 98.6887 50.2344C99.0482 48.966 99.4076 47.6777 99.7671 46.3696C100.127 45.0615 100.466 43.8327 100.786 42.6832ZM91.0201 39.6508C91.0201 40.8004 91.1598 41.6922 91.4394 42.3265C91.759 42.9607 92.1184 43.4363 92.5178 43.7535C92.9572 44.0309 93.3965 44.1895 93.8359 44.2291C94.2752 44.2688 94.6347 44.2886 94.9143 44.2886C95.753 44.2886 96.5718 43.9517 97.3706 43.2778C98.1694 42.5643 98.8884 41.6922 99.5274 40.6616C100.206 39.631 100.786 38.5211 101.265 37.3319C101.784 36.1031 102.164 34.9734 102.403 33.9428C102.523 33.3482 102.623 32.8131 102.703 32.3374C102.823 31.8618 102.922 31.4654 103.002 31.1483C102.243 31.2275 101.724 31.069 101.445 30.6726C101.165 30.2762 101.005 29.5825 100.965 28.5915C100.965 28.1952 100.925 27.7789 100.845 27.3429C100.766 26.8672 100.626 26.451 100.426 26.0943C100.226 25.6979 99.9668 25.3808 99.6473 25.1429C99.3277 24.9051 98.9283 24.7862 98.449 24.7862C97.4106 24.7862 96.432 25.2619 95.5134 26.2132C94.6347 27.1645 93.8559 28.3735 93.1769 29.8402C92.4979 31.3068 91.9587 32.9122 91.5592 34.6563C91.1998 36.4004 91.0201 38.0653 91.0201 39.6508Z" fill="white"/>
<path d="M121.994 46.7858C120.476 46.7858 119.238 46.548 118.28 46.0723C117.321 45.5967 116.562 45.0219 116.003 44.348C115.484 43.6345 115.104 42.8814 114.865 42.0886C114.665 41.2562 114.565 40.5031 114.565 39.8292C114.565 38.64 114.665 37.3914 114.865 36.0833C115.064 34.7356 115.304 33.5068 115.584 32.3969C115.863 31.2474 116.103 30.2762 116.303 29.4834C116.542 28.6906 116.702 28.1952 116.782 27.997C117.141 26.8474 117.601 25.8564 118.16 25.024C118.759 24.152 119.578 23.5574 120.616 23.2403C121.016 23.161 121.435 23.0817 121.874 23.0024C122.234 22.9628 122.593 22.943 122.953 22.943C123.352 22.943 123.712 23.0024 124.031 23.1214C122.953 25.8565 122.094 28.1357 121.455 29.9591C120.856 31.7825 120.396 33.2689 120.077 34.4185C119.718 35.7266 119.498 36.777 119.418 37.5698C119.218 39.3535 119.378 40.7013 119.897 41.6129C120.416 42.5246 121.475 42.9805 123.073 42.9805C124.111 42.9805 125.11 42.6039 126.068 41.8508C127.027 41.058 127.905 40.0472 128.704 38.8184C128.584 38.1842 128.524 37.5301 128.524 36.8563C128.524 35.5878 128.624 34.359 128.824 33.1698C129.064 31.941 129.323 30.8113 129.603 29.7807C129.922 28.7105 130.242 27.7591 130.561 26.9267C130.921 26.0943 131.22 25.4402 131.46 24.9646C131.899 24.0132 132.299 23.4385 132.658 23.2403C133.018 23.0024 133.597 22.8637 134.396 22.8241C134.715 22.7844 134.975 22.7844 135.175 22.8241C135.414 22.8241 135.614 22.8439 135.774 22.8835C136.253 23.0024 136.493 23.2403 136.493 23.597C136.493 24.2313 136.453 25.1826 136.373 26.451C136.293 27.7195 136.053 29.0276 135.654 30.3753C135.374 31.4852 135.095 32.4365 134.815 33.2293C134.575 33.9824 134.336 34.6365 134.096 35.1914C133.857 35.7067 133.617 36.1428 133.377 36.4995C133.138 36.8166 132.918 37.1139 132.718 37.3914C132.798 38.5806 132.898 39.5319 133.018 40.2454C133.138 40.9589 133.277 41.5139 133.437 41.9102C133.637 42.267 133.857 42.5247 134.096 42.6832C134.376 42.8021 134.675 42.8616 134.995 42.8616C135.554 42.8616 136.213 42.6039 136.972 42.0886C137.731 41.5337 138.51 40.8598 139.308 40.067C140.147 39.2346 140.966 38.3427 141.765 37.3914C142.604 36.4004 143.362 35.4689 144.041 34.5969C144.72 33.7248 145.3 32.9716 145.779 32.3374C146.258 31.6636 146.558 31.2474 146.678 31.0888C146.957 30.732 147.217 30.514 147.456 30.4348C147.736 30.3555 147.956 30.3951 148.115 30.5537C148.275 30.6726 148.355 30.8906 148.355 31.2077C148.395 31.4852 148.315 31.8023 148.115 32.1591C147.317 33.6653 146.318 35.2707 145.12 36.9752C143.962 38.64 142.703 40.1859 141.345 41.6129C140.027 43.04 138.689 44.2291 137.331 45.1805C135.973 46.1318 134.695 46.6075 133.497 46.6075C132.419 46.6075 131.56 46.2507 130.921 45.5372C130.322 44.7841 129.803 43.7138 129.363 42.3265C128.445 43.7535 127.366 44.8633 126.128 45.6561C124.89 46.4093 123.512 46.7858 121.994 46.7858Z" fill="white"/>
<path d="M170.462 33.4671C169.264 35.2113 167.906 36.9157 166.388 38.5806C164.871 40.2058 163.253 41.6724 161.535 42.9805C159.858 44.2489 158.121 45.2796 156.323 46.0723C154.566 46.8651 152.848 47.2615 151.171 47.2615C150.292 47.2615 149.334 47.0435 148.295 46.6075C147.297 46.2111 146.378 45.5769 145.539 44.7048C144.7 43.8327 144.021 42.703 143.502 41.3157C143.023 39.9283 142.883 38.2436 143.083 36.2617C143.243 34.6365 143.742 32.932 144.581 31.1483C145.459 29.3249 146.518 27.66 147.756 26.1537C149.034 24.6475 150.452 23.3988 152.01 22.4079C153.607 21.4169 155.205 20.9214 156.803 20.9214C158.32 20.9214 159.419 21.298 160.098 22.0511C160.777 22.8042 161.076 23.7358 160.996 24.8457C160.876 26.0745 160.517 27.2042 159.918 28.2348C159.359 29.2654 158.68 30.1969 157.881 31.0293C157.082 31.8618 156.223 32.6149 155.305 33.2888C154.426 33.9626 153.587 34.577 152.788 35.132C151.91 35.7266 151.071 36.3013 150.272 36.8563C149.473 37.3716 148.774 37.8472 148.175 38.2833C148.215 39.2743 148.395 40.1067 148.715 40.7805C149.034 41.4544 149.433 42.0093 149.913 42.4454C150.392 42.8418 150.931 43.1391 151.53 43.3372C152.169 43.4958 152.808 43.5751 153.447 43.5751C154.805 43.5751 156.223 43.1589 157.701 42.3265C159.179 41.4544 160.617 40.4238 162.015 39.2346C163.453 38.0058 164.771 36.7374 165.969 35.4293C167.207 34.1212 168.226 32.9915 169.024 32.0401C169.304 31.723 169.584 31.5446 169.863 31.505C170.183 31.4257 170.422 31.4654 170.582 31.6239C170.782 31.7428 170.882 31.9807 170.882 32.3374C170.882 32.6545 170.742 33.0311 170.462 33.4671ZM155.125 24.3105C154.646 24.3105 154.067 24.5484 153.388 25.024C152.749 25.4997 152.109 26.1934 151.47 27.1051C150.831 27.9771 150.232 29.0672 149.673 30.3753C149.114 31.6437 148.695 33.1104 148.415 34.7752C148.894 34.4185 149.413 34.0617 149.973 33.705C150.532 33.3086 151.091 32.8924 151.65 32.4563C153.368 31.1483 154.566 29.9987 155.245 29.0077C155.924 28.0168 156.303 27.1645 156.383 26.451C156.463 25.6979 156.383 25.1628 156.143 24.8457C155.904 24.4889 155.564 24.3105 155.125 24.3105Z" fill="white"/>
<path d="M163.872 45.5372C163.592 45.9732 163.293 46.2507 162.973 46.3696C162.614 46.5282 162.314 46.548 162.075 46.4291C161.795 46.3498 161.615 46.1516 161.535 45.8345C161.456 45.5174 161.536 45.121 161.775 44.6453C161.895 44.4075 162.175 43.8724 162.614 43.04C163.013 42.2075 163.513 41.2166 164.112 40.067C164.671 38.8779 165.29 37.6094 165.969 36.2617C166.648 34.8743 167.287 33.5662 167.886 32.3374C168.525 31.1086 169.104 30.0185 169.624 29.0672C170.143 28.0762 170.522 27.3627 170.762 26.9267C170.322 26.5303 170.023 26.2528 169.863 26.0943C169.703 25.8961 169.584 25.4997 169.504 24.9051C169.424 24.3898 169.544 23.7159 169.863 22.8835C170.183 22.0511 170.602 21.2583 171.121 20.5052C171.641 19.7124 172.22 19.0385 172.859 18.4836C173.498 17.9287 174.117 17.6512 174.716 17.6512C175.834 17.6512 176.613 18.0079 177.052 18.7214C177.532 19.4349 177.811 20.1683 177.891 20.9214C177.971 21.4367 177.931 22.0907 177.771 22.8835C177.612 23.6763 177.312 24.3898 176.873 25.024C176.993 25.1033 177.152 25.2024 177.352 25.3213C177.552 25.4006 177.871 25.4402 178.311 25.4402C178.95 25.4402 179.389 25.4006 179.629 25.3213C179.908 25.242 180.328 25.2024 180.887 25.2024C181.566 25.2024 182.125 25.3808 182.564 25.7375C183.004 26.0546 183.363 26.4709 183.643 26.9862C183.922 27.4618 184.122 27.997 184.242 28.5915C184.402 29.1465 184.501 29.6618 184.541 30.1375C184.661 31.1284 184.402 32.1591 183.763 33.2293C183.123 34.2996 182.345 35.4689 181.426 36.7374C180.867 37.5301 180.308 38.422 179.749 39.413C179.189 40.404 178.95 41.2958 179.03 42.0886C179.109 42.6039 179.249 43.0201 179.449 43.3372C179.649 43.6544 180.208 43.8129 181.126 43.8129C181.805 43.8129 182.544 43.5751 183.343 43.0994C184.182 42.5841 185.021 41.9499 185.859 41.1967C186.738 40.404 187.597 39.5517 188.436 38.64C189.274 37.6887 190.053 36.777 190.772 35.9049C191.491 34.9932 192.09 34.1806 192.57 33.4671C193.089 32.7536 193.468 32.2383 193.708 31.9212C193.908 31.6041 194.167 31.3861 194.487 31.2672C194.806 31.1483 195.086 31.1483 195.325 31.2672C195.565 31.3861 195.705 31.6239 195.745 31.9807C195.825 32.3374 195.685 32.8131 195.325 33.4077C195.086 33.8041 194.666 34.4383 194.067 35.3104C193.508 36.1824 192.809 37.1536 191.97 38.2238C191.172 39.2941 190.273 40.404 189.274 41.5535C188.276 42.6634 187.217 43.694 186.099 44.6453C185.021 45.557 183.922 46.3102 182.804 46.9048C181.726 47.4993 180.687 47.7966 179.689 47.7966C178.65 47.7966 177.791 47.5984 177.112 47.2021C176.433 46.8057 175.874 46.33 175.435 45.775C175.035 45.1805 174.736 44.5462 174.536 43.8724C174.376 43.1589 174.317 42.5048 174.356 41.9102C174.396 41.4346 174.516 40.9391 174.716 40.4238C174.956 39.8688 175.215 39.3139 175.495 38.7589C175.814 38.1644 176.134 37.5896 176.453 37.0346C176.813 36.4401 177.132 35.8653 177.412 35.3104C178.091 34.1608 178.63 33.1897 179.03 32.3969C179.469 31.5645 179.689 30.8708 179.689 30.3158C179.689 29.9591 179.609 29.642 179.449 29.3645C179.289 29.087 179.03 28.9483 178.67 28.9483C178.43 28.9483 178.251 28.9681 178.131 29.0077C178.051 29.0077 177.951 29.0077 177.831 29.0077C177.751 29.0077 177.612 29.0276 177.412 29.0672C177.252 29.0672 176.993 29.0672 176.633 29.0672C176.114 29.0672 175.675 28.9879 175.315 28.8294C174.956 28.6708 174.616 28.5519 174.297 28.4726C174.137 28.7501 173.777 29.3447 173.218 30.2564C172.659 31.1681 172 32.2383 171.241 33.4671C170.522 34.6959 169.743 35.9842 168.905 37.3319C168.106 38.6797 167.347 39.9481 166.628 41.1373C165.909 42.2868 165.31 43.2778 164.831 44.1102C164.311 44.903 163.992 45.3787 163.872 45.5372Z" fill="white"/>
<path d="M230.373 30.7915C230.533 30.5537 230.733 30.4149 230.973 30.3753C231.252 30.296 231.472 30.3158 231.632 30.4348C231.791 30.5537 231.871 30.7519 231.871 31.0293C231.911 31.3068 231.811 31.6834 231.572 32.1591C230.773 33.6653 229.714 35.2905 228.396 37.0346C227.118 38.7788 225.76 40.4238 224.322 41.9697C222.885 43.476 221.487 44.7246 220.129 45.7156C218.771 46.7066 217.632 47.2021 216.714 47.2021C215.396 47.2021 214.297 46.9444 213.419 46.4291C212.54 45.9138 211.841 45.2796 211.322 44.5264C210.842 43.7733 210.503 42.9607 210.303 42.0886C210.104 41.1769 210.044 40.3445 210.123 39.5914C210.163 38.9571 210.303 37.8274 210.543 36.2022C210.783 34.5374 211.102 32.6347 211.501 30.4942C211.901 28.3141 212.34 25.9952 212.819 23.5376C213.339 21.0403 213.878 18.6422 214.437 16.3431C213.758 16.4224 213.079 16.5016 212.4 16.5809C211.721 16.6602 211.102 16.6998 210.543 16.6998C209.265 16.6998 208.067 16.5611 206.948 16.2836C205.79 15.9665 204.931 15.6692 204.372 15.3918C204.052 15.2332 203.913 15.0152 203.953 14.7377C203.993 14.4206 204.112 14.1233 204.312 13.8458C204.512 13.5287 204.771 13.2711 205.091 13.0729C205.371 12.835 205.63 12.7161 205.87 12.7161C206.629 12.7954 207.447 12.8747 208.326 12.954C209.205 12.9936 210.163 12.9936 211.202 12.954C211.961 12.9143 212.68 12.8549 213.359 12.7756C214.078 12.6963 214.777 12.5972 215.456 12.4783C215.975 10.5756 216.474 8.9306 216.953 7.54323C217.473 6.11623 217.932 5.12525 218.331 4.57031C218.451 4.37211 218.711 4.21356 219.11 4.09464C219.549 3.93608 220.009 3.83699 220.488 3.79735C220.967 3.71807 221.427 3.71807 221.866 3.79735C222.305 3.83699 222.625 3.97572 222.825 4.21356C223.024 4.53067 223.104 5.34327 223.064 6.65135C223.024 7.95944 222.805 9.62428 222.405 11.6459C224.083 11.6459 225.561 11.745 226.839 11.9432C228.157 12.1017 229.275 12.2999 230.194 12.5377C231.112 12.7359 231.851 12.954 232.41 13.1918C232.97 13.39 233.389 13.5287 233.669 13.608C233.948 13.6873 234.088 13.8855 234.088 14.2026C234.128 14.5197 234.068 14.8566 233.908 15.2134C233.788 15.5305 233.569 15.808 233.249 16.0458C232.93 16.2836 232.57 16.3629 232.171 16.2836C231.771 16.244 231.312 16.1647 230.793 16.0458C230.314 15.9269 229.714 15.8278 228.995 15.7485C228.316 15.6692 227.498 15.5899 226.539 15.5107C225.581 15.4314 224.462 15.3918 223.184 15.3918C222.944 15.3918 222.665 15.4116 222.345 15.4512C222.066 15.4512 221.766 15.4512 221.447 15.4512C221.287 16.0854 221.127 16.7197 220.967 17.3539C220.848 17.9485 220.668 18.5827 220.428 19.2566C219.909 20.8421 219.31 22.5664 218.631 24.4294C218.032 26.0546 217.313 27.9177 216.474 30.0185C215.635 32.1194 214.697 34.359 213.658 36.7374C213.419 38.4418 213.439 39.7499 213.718 40.6616C214.038 41.5337 214.417 42.1679 214.856 42.5643C215.376 43.0003 216.015 43.2382 216.774 43.2778C217.373 43.3571 218.092 43.1589 218.93 42.6832C219.809 42.1679 220.708 41.494 221.626 40.6616C222.545 39.8292 223.464 38.9175 224.382 37.9265C225.341 36.9356 226.22 35.9644 227.018 35.0131C227.817 34.0617 228.516 33.2095 229.115 32.4563C229.714 31.6636 230.134 31.1086 230.373 30.7915Z" fill="white"/>
<path d="M257.693 32.7536C257.973 32.4365 258.252 32.278 258.532 32.278C258.851 32.2383 259.091 32.3176 259.251 32.5158C259.45 32.6744 259.53 32.932 259.49 33.2888C259.49 33.6455 259.331 34.0419 259.011 34.4779C258.252 35.5085 257.373 36.5788 256.375 37.6887C255.376 38.7589 254.298 39.8094 253.14 40.84C252.021 41.8706 250.883 42.8418 249.725 43.7535C248.566 44.6652 247.448 45.4183 246.37 46.0129C245.171 46.6867 244.153 47.0237 243.314 47.0237C242.515 47.0237 241.717 46.5084 240.918 45.4778C240.199 44.5661 239.839 43.5949 239.839 42.5643C239.879 41.494 240.119 40.1661 240.558 38.5806C240.838 37.5896 241.217 36.4202 241.697 35.0725C242.216 33.6852 242.615 32.3572 242.895 31.0888C243.214 29.8204 243.314 28.7501 243.194 27.878C243.075 26.9663 242.555 26.5105 241.637 26.5105C240.998 26.5105 240.299 26.7285 239.54 27.1645C238.821 27.6006 238.082 28.1753 237.323 28.8888C236.604 29.5627 235.905 30.3357 235.226 31.2077C234.547 32.0798 233.948 32.932 233.429 33.7644C233.109 35.3104 232.79 36.8365 232.47 38.3427C232.191 39.6112 231.891 40.9985 231.572 42.5048C231.292 43.9715 231.012 45.2796 230.733 46.4291C230.493 46.6273 230.234 46.766 229.954 46.8453C229.674 46.9246 229.415 46.9642 229.175 46.9642C228.896 46.9642 228.616 46.9444 228.336 46.9048C228.017 46.8255 227.717 46.7066 227.438 46.548C227.198 46.3895 226.959 46.1714 226.719 45.894C226.479 45.6561 226.299 45.3192 226.18 44.8832C227.977 37.55 229.395 31.6636 230.433 27.224C231.472 22.7844 232.271 19.3953 232.83 17.0566C233.469 14.2819 233.908 12.3594 234.148 11.2891C234.268 10.536 234.368 9.80266 234.447 9.08915C234.527 8.45493 234.567 7.80089 234.567 7.12702C234.567 6.45316 234.507 5.83876 234.387 5.28381C234.707 5.08561 235.047 4.92706 235.406 4.80814C235.805 4.68922 236.185 4.59013 236.544 4.51085C236.984 4.39193 237.423 4.29283 237.862 4.21356C238.302 4.13428 238.701 4.09464 239.061 4.09464C239.38 4.09464 239.68 4.13428 239.959 4.21356C240.239 4.2532 240.419 4.37211 240.498 4.57031C240.738 4.7685 240.838 5.16489 240.798 5.75948C240.798 6.35406 240.758 6.96847 240.678 7.60269C240.518 8.35583 240.339 9.16843 240.139 10.0405C239.3 13.2512 238.362 16.3827 237.323 19.4349C236.285 22.4475 235.326 25.6781 234.447 29.1267C234.967 28.3339 235.586 27.5213 236.305 26.6889C237.024 25.8564 237.802 25.1033 238.641 24.4294C239.52 23.7159 240.439 23.1412 241.397 22.7052C242.356 22.2295 243.374 21.9916 244.453 21.9916C245.012 21.9916 245.531 22.0907 246.01 22.2889C246.529 22.4475 246.969 22.7448 247.328 23.1808C247.728 23.5772 248.027 24.1322 248.227 24.8457C248.427 25.5195 248.507 26.3718 248.467 27.4024C248.467 28.0366 248.387 28.6906 248.227 29.3645C248.107 30.0384 247.927 30.7915 247.688 31.6239C247.448 32.4167 247.129 33.3086 246.729 34.2996C246.37 35.2905 245.93 36.4401 245.411 37.7481C245.052 38.6598 244.772 39.4328 244.572 40.067C244.373 40.7013 244.413 41.2562 244.692 41.7319C245.052 42.3661 245.751 42.5247 246.789 42.2075C247.868 41.8508 249.465 40.8202 251.582 39.1157C252.061 38.7193 252.6 38.2238 253.2 37.6292C253.799 37.0346 254.378 36.4401 254.937 35.8455C255.496 35.2113 256.015 34.6167 256.495 34.0617C256.974 33.5068 257.373 33.0708 257.693 32.7536Z" fill="white"/>
<path d="M282.496 33.4671C281.298 35.2113 279.94 36.9157 278.422 38.5806C276.904 40.2058 275.287 41.6724 273.569 42.9805C271.892 44.2489 270.154 45.2796 268.357 46.0723C266.6 46.8651 264.882 47.2615 263.205 47.2615C262.326 47.2615 261.367 47.0435 260.329 46.6075C259.331 46.2111 258.412 45.5769 257.573 44.7048C256.734 43.8327 256.055 42.703 255.536 41.3157C255.057 39.9283 254.917 38.2436 255.117 36.2617C255.277 34.6365 255.776 32.932 256.615 31.1483C257.493 29.3249 258.552 27.66 259.79 26.1537C261.068 24.6475 262.486 23.3988 264.044 22.4079C265.641 21.4169 267.239 20.9214 268.836 20.9214C270.354 20.9214 271.453 21.298 272.132 22.0511C272.811 22.8042 273.11 23.7358 273.03 24.8457C272.91 26.0745 272.551 27.2042 271.952 28.2348C271.393 29.2654 270.714 30.1969 269.915 31.0293C269.116 31.8618 268.257 32.6149 267.339 33.2888C266.46 33.9626 265.621 34.577 264.822 35.132C263.944 35.7266 263.105 36.3013 262.306 36.8563C261.507 37.3716 260.808 37.8472 260.209 38.2833C260.249 39.2743 260.429 40.1067 260.748 40.7805C261.068 41.4544 261.467 42.0093 261.947 42.4454C262.426 42.8418 262.965 43.1391 263.564 43.3372C264.203 43.4958 264.842 43.5751 265.481 43.5751C266.839 43.5751 268.257 43.1589 269.735 42.3265C271.213 41.4544 272.651 40.4238 274.049 39.2346C275.487 38.0058 276.805 36.7374 278.003 35.4293C279.241 34.1212 280.259 32.9915 281.058 32.0401C281.338 31.723 281.617 31.5446 281.897 31.505C282.217 31.4257 282.456 31.4654 282.616 31.6239C282.816 31.7428 282.916 31.9807 282.916 32.3374C282.916 32.6545 282.776 33.0311 282.496 33.4671ZM267.159 24.3105C266.68 24.3105 266.1 24.5484 265.421 25.024C264.782 25.4997 264.143 26.1934 263.504 27.1051C262.865 27.9771 262.266 29.0672 261.707 30.3753C261.148 31.6437 260.728 33.1104 260.449 34.7752C260.928 34.4185 261.447 34.0617 262.007 33.705C262.566 33.3086 263.125 32.8924 263.684 32.4563C265.401 31.1483 266.6 29.9987 267.279 29.0077C267.958 28.0168 268.337 27.1645 268.417 26.451C268.497 25.6979 268.417 25.1628 268.177 24.8457C267.938 24.4889 267.598 24.3105 267.159 24.3105Z" fill="white"/>
<path d="M326.591 35.5482C326.032 36.9752 325.393 38.3626 324.674 39.7103C323.955 41.058 323.156 42.267 322.277 43.3372C321.398 44.4075 320.46 45.2597 319.461 45.894C318.463 46.5282 317.384 46.8453 316.226 46.8453C314.349 46.8453 312.931 46.2309 311.972 45.0021C311.014 43.7336 310.355 42.1877 309.995 40.3643C309.436 41.1967 308.837 42.0292 308.198 42.8616C307.559 43.694 306.88 44.4273 306.161 45.0615C305.442 45.6958 304.703 46.2111 303.944 46.6075C303.185 47.0039 302.427 47.2021 301.668 47.2021C300.629 47.2021 299.751 46.984 299.032 46.548C298.313 46.112 297.714 45.5174 297.234 44.7643C296.795 43.9715 296.475 43.0796 296.276 42.0886C296.076 41.058 295.976 39.9679 295.976 38.8184V38.1049C295.976 36.6383 296.096 35.132 296.336 33.5861C296.575 32.0401 296.835 30.6131 297.114 29.305C297.434 27.997 297.754 26.8672 298.073 25.9159C298.393 24.9249 298.632 24.2709 298.792 23.9538C299.072 23.5574 299.671 23.1808 300.589 22.8241C301.548 22.4277 302.487 22.2691 303.405 22.3484C303.845 22.388 304.064 22.5664 304.064 22.8835C304.104 23.2006 304.064 23.597 303.944 24.0727C303.785 24.7466 303.505 25.7574 303.106 27.1051C302.706 28.4528 302.287 29.9194 301.847 31.505C301.448 33.0906 301.089 34.6563 300.769 36.2022C300.45 37.7482 300.29 39.0364 300.29 40.067C300.29 41.3355 300.489 42.2472 300.889 42.8021C301.288 43.3571 301.907 43.6345 302.746 43.6345C303.745 43.6345 304.843 43.0796 306.041 41.9697C307.279 40.8598 308.478 38.977 309.636 36.3211C309.596 36.0833 309.576 35.8455 309.576 35.6076C309.576 35.3698 309.576 35.1122 309.576 34.8347C309.576 33.0509 309.636 31.3465 309.756 29.7213C309.915 28.0961 310.195 26.6691 310.595 25.4402C311.034 24.2114 311.613 23.2403 312.332 22.5268C313.091 21.8133 314.069 21.4565 315.268 21.4565C315.747 21.4565 316.146 21.5953 316.466 21.8727C316.785 22.1502 316.945 22.5466 316.945 23.0619C316.945 24.3303 316.486 26.1339 315.567 28.4726C314.688 30.7717 313.63 33.3086 312.392 36.0833C312.272 36.2419 312.192 36.4004 312.152 36.559C312.272 37.3121 312.412 38.1049 312.572 38.9373C312.771 39.7697 313.031 40.5427 313.35 41.2562C313.67 41.9301 314.049 42.5048 314.489 42.9805C314.928 43.4165 315.447 43.6345 316.046 43.6345C316.925 43.6345 317.724 43.2183 318.443 42.3859C319.202 41.5535 319.861 40.5427 320.42 39.3535C321.019 38.1644 321.538 36.9157 321.978 35.6076C322.417 34.2599 322.756 33.0708 322.996 32.0401C322.876 31.6041 322.776 31.1879 322.697 30.7915C322.617 30.3555 322.577 29.86 322.577 29.305C322.577 28.0762 322.756 27.0258 323.116 26.1537C323.475 25.2817 323.935 24.5682 324.494 24.0132C325.093 23.4187 325.712 22.9826 326.351 22.7052C327.03 22.4277 327.649 22.2889 328.208 22.2889C329.207 22.2889 329.706 22.725 329.706 23.597C329.706 24.2313 329.546 25.3411 329.227 26.9267C328.907 28.4726 328.448 30.2366 327.849 32.2185C328.568 32.5356 329.487 32.6942 330.605 32.6942C331.643 32.6942 332.602 32.5753 333.481 32.3374C334.359 32.06 335.158 31.723 335.877 31.3266C336.596 30.9302 337.255 30.4942 337.854 30.0185C338.453 29.5429 339.032 29.087 339.592 28.651C340.031 28.3339 340.39 28.3141 340.67 28.5915C340.949 28.869 340.91 29.305 340.55 29.8996C340.231 30.4149 339.671 31.0095 338.873 31.6834C338.114 32.3572 337.175 33.0113 336.057 33.6455C334.978 34.2401 333.76 34.7554 332.402 35.1914C331.084 35.5878 329.686 35.786 328.208 35.786C327.969 35.786 327.709 35.7662 327.43 35.7266C327.15 35.6869 326.87 35.6275 326.591 35.5482Z" fill="white"/>
<path d="M352.772 36.3806C352.373 37.8869 351.833 39.2941 351.154 40.6022C350.475 41.9102 349.657 43.04 348.698 43.9913C347.779 44.9426 346.721 45.676 345.523 46.1913C344.364 46.7462 343.086 47.0237 341.688 47.0237C340.051 47.0237 338.753 46.6669 337.794 45.9534C336.876 45.2796 336.177 44.4273 335.697 43.3967C335.258 42.3661 334.998 41.2364 334.918 40.0076C334.799 38.7788 334.739 37.6292 334.739 36.559C334.739 35.8058 334.839 34.9734 335.038 34.0617C335.198 33.15 335.438 32.2185 335.757 31.2672C336.077 30.3158 336.476 29.3645 336.955 28.4132C337.475 27.4618 338.074 26.5898 338.753 25.797C338.992 25.1231 339.352 24.5285 339.831 24.0132C340.35 23.4979 340.93 23.0817 341.569 22.7646C342.248 22.4079 342.966 22.1502 343.725 21.9916C344.484 21.7935 345.223 21.6944 345.942 21.6944C346.062 21.6944 346.162 21.7142 346.242 21.7538C346.361 21.7935 346.481 21.8331 346.601 21.8727C347.12 21.9124 347.759 22.1106 348.518 22.4673C349.317 22.8241 350.076 23.3592 350.795 24.0727C351.554 24.7862 352.193 25.6979 352.712 26.8078C353.231 27.878 353.491 29.1861 353.491 30.732C353.491 31.0492 353.471 31.4455 353.431 31.9212C353.391 32.3572 353.351 32.7338 353.311 33.0509C354.23 32.6942 355.188 32.2581 356.187 31.7428C357.185 31.2275 358.144 30.6924 359.063 30.1375C360.021 29.5429 360.9 28.9483 361.699 28.3537C362.498 27.7591 363.137 27.224 363.616 26.7483C364.015 26.3916 364.355 26.1934 364.634 26.1537C364.914 26.1141 365.114 26.1934 365.233 26.3916C365.353 26.5898 365.373 26.8672 365.293 27.224C365.214 27.5807 364.994 27.9771 364.634 28.4132C364.435 28.651 363.915 29.1267 363.077 29.8402C362.278 30.5537 361.319 31.3266 360.201 32.1591C359.083 32.9915 357.864 33.8041 356.546 34.5969C355.228 35.3896 353.97 35.9842 352.772 36.3806ZM342.647 27.3429C342.527 27.6997 342.467 28.0762 342.467 28.4726C342.467 29.1068 342.507 29.7807 342.587 30.4942C342.667 31.1681 342.867 31.7825 343.186 32.3374C343.506 32.8924 344.005 33.368 344.684 33.7644C345.403 34.1212 346.381 34.2996 347.62 34.2996C347.819 34.2996 348.019 34.2996 348.219 34.2996C348.418 34.2599 348.618 34.2203 348.818 34.1806C348.938 33.6653 349.038 33.2095 349.117 32.8131C349.237 32.3771 349.297 32.0005 349.297 31.6834C349.377 30.9302 349.377 30.1573 349.297 29.3645C349.217 28.5717 349.057 27.8582 348.818 27.224C348.618 26.5501 348.339 26.015 347.979 25.6186C347.66 25.1826 347.26 24.9646 346.781 24.9646C346.022 24.9646 345.283 25.1826 344.564 25.6186C343.885 26.015 343.246 26.5898 342.647 27.3429ZM338.813 37.8076C338.813 38.5211 338.853 39.2346 338.932 39.9481C339.012 40.622 339.172 41.2364 339.412 41.7913C339.651 42.3066 339.971 42.7427 340.37 43.0994C340.77 43.4165 341.289 43.5751 341.928 43.5751C342.647 43.5751 343.306 43.4165 343.905 43.0994C344.504 42.7427 345.043 42.3066 345.523 41.7913C346.002 41.2364 346.421 40.622 346.781 39.9481C347.18 39.2346 347.52 38.5013 347.799 37.7481C347.52 37.7878 347.24 37.8274 346.961 37.8671C346.721 37.8671 346.441 37.8671 346.122 37.8671C344.604 37.8671 343.286 37.431 342.168 36.559C341.089 35.6473 340.251 34.4978 339.651 33.1104C339.412 33.9428 339.212 34.7554 339.052 35.5482C338.893 36.341 338.813 37.0941 338.813 37.8076Z" fill="white"/>
<path d="M356.906 45.5372C356.626 45.9732 356.327 46.2507 356.007 46.3696C355.648 46.5282 355.348 46.548 355.109 46.4291C354.829 46.3498 354.649 46.1516 354.569 45.8345C354.489 45.5174 354.569 45.121 354.809 44.6453C354.929 44.4075 355.208 43.8724 355.648 43.04C356.047 42.2075 356.546 41.2166 357.145 40.067C357.705 38.8779 358.324 37.6094 359.003 36.2617C359.682 34.8743 360.321 33.5662 360.92 32.3374C361.559 31.1086 362.138 30.0185 362.657 29.0672C363.177 28.0762 363.556 27.3627 363.796 26.9267C363.356 26.5303 363.057 26.2528 362.897 26.0943C362.737 25.8961 362.617 25.4997 362.537 24.9051C362.458 24.3898 362.577 23.7159 362.897 22.8835C363.216 22.0511 363.636 21.2583 364.155 20.5052C364.674 19.7124 365.253 19.0385 365.893 18.4836C366.532 17.9287 367.151 17.6512 367.75 17.6512C368.868 17.6512 369.647 18.0079 370.086 18.7214C370.566 19.4349 370.845 20.1683 370.925 20.9214C371.005 21.4367 370.965 22.0907 370.805 22.8835C370.645 23.6763 370.346 24.3898 369.907 25.024C370.026 25.1033 370.186 25.2024 370.386 25.3213C370.586 25.4006 370.905 25.4402 371.344 25.4402C371.983 25.4402 372.423 25.4006 372.662 25.3213C372.942 25.242 373.361 25.2024 373.921 25.2024C374.6 25.2024 375.159 25.3808 375.598 25.7375C376.038 26.0546 376.397 26.4709 376.677 26.9862C376.956 27.4618 377.156 27.997 377.276 28.5915C377.435 29.1465 377.535 29.6618 377.575 30.1375C377.695 31.1284 377.435 32.1591 376.796 33.2293C376.157 34.2996 375.378 35.4689 374.46 36.7374C373.901 37.5301 373.341 38.422 372.782 39.413C372.223 40.404 371.983 41.2958 372.063 42.0886C372.143 42.6039 372.283 43.0201 372.483 43.3372C372.682 43.6544 373.242 43.8129 374.16 43.8129C374.839 43.8129 375.578 43.5751 376.377 43.0994C377.216 42.5841 378.055 41.9499 378.893 41.1967C379.772 40.404 380.631 39.5517 381.469 38.64C382.308 37.6887 383.087 36.777 383.806 35.9049C384.525 34.9932 385.124 34.1806 385.603 33.4671C386.123 32.7536 386.502 32.2383 386.742 31.9212C386.941 31.6041 387.201 31.3861 387.52 31.2672C387.84 31.1483 388.12 31.1483 388.359 31.2672C388.599 31.3861 388.739 31.6239 388.779 31.9807C388.858 32.3374 388.719 32.8131 388.359 33.4077C388.12 33.8041 387.7 34.4383 387.101 35.3104C386.542 36.1824 385.843 37.1536 385.004 38.2238C384.205 39.2941 383.307 40.404 382.308 41.5535C381.31 42.6634 380.251 43.694 379.133 44.6453C378.055 45.557 376.956 46.3102 375.838 46.9048C374.759 47.4993 373.721 47.7966 372.722 47.7966C371.684 47.7966 370.825 47.5984 370.146 47.2021C369.467 46.8057 368.908 46.33 368.469 45.775C368.069 45.1805 367.77 44.5462 367.57 43.8724C367.41 43.1589 367.35 42.5048 367.39 41.9102C367.43 41.4346 367.55 40.9391 367.75 40.4238C367.989 39.8688 368.249 39.3139 368.529 38.7589C368.848 38.1644 369.168 37.5896 369.487 37.0346C369.847 36.4401 370.166 35.8653 370.446 35.3104C371.125 34.1608 371.664 33.1897 372.063 32.3969C372.503 31.5645 372.722 30.8708 372.722 30.3158C372.722 29.9591 372.643 29.642 372.483 29.3645C372.323 29.087 372.063 28.9483 371.704 28.9483C371.464 28.9483 371.285 28.9681 371.165 29.0077C371.085 29.0077 370.985 29.0077 370.865 29.0077C370.785 29.0077 370.645 29.0276 370.446 29.0672C370.286 29.0672 370.026 29.0672 369.667 29.0672C369.148 29.0672 368.708 28.9879 368.349 28.8294C367.989 28.6708 367.65 28.5519 367.33 28.4726C367.171 28.7501 366.811 29.3447 366.252 30.2564C365.693 31.1681 365.034 32.2383 364.275 33.4671C363.556 34.6959 362.777 35.9842 361.938 37.3319C361.14 38.6797 360.381 39.9481 359.662 41.1373C358.943 42.2868 358.344 43.2778 357.864 44.1102C357.345 44.903 357.026 45.3787 356.906 45.5372Z" fill="white"/>
<path d="M383.207 44.8832C384.964 37.55 386.362 31.6636 387.401 27.224C388.479 22.7844 389.298 19.3953 389.857 17.0566C390.496 14.2819 390.935 12.3594 391.175 11.2891C391.295 10.536 391.395 9.80266 391.475 9.08915C391.554 8.45493 391.594 7.80089 391.594 7.12702C391.594 6.45316 391.535 5.83876 391.415 5.28381C391.734 5.08561 392.074 4.92706 392.433 4.80814C392.833 4.68922 393.212 4.59013 393.571 4.51085C394.011 4.39193 394.45 4.29283 394.89 4.21356C395.329 4.13428 395.728 4.09464 396.088 4.09464C396.407 4.09464 396.707 4.13428 396.986 4.21356C397.266 4.2532 397.446 4.37211 397.526 4.57031C397.765 4.7685 397.865 5.16489 397.825 5.75948C397.825 6.35406 397.785 6.96847 397.705 7.60269C397.546 8.35583 397.366 9.16843 397.166 10.0405C396.687 11.745 396.028 14.2026 395.189 17.4133C394.47 20.1484 393.492 23.8745 392.253 28.5915C391.055 33.3086 389.537 39.2544 387.7 46.4291C387.5 46.6273 387.261 46.766 386.981 46.8453C386.702 46.9246 386.442 46.9642 386.202 46.9642C385.923 46.9642 385.623 46.9444 385.304 46.9048C385.024 46.8255 384.745 46.7066 384.465 46.548C384.225 46.3895 383.986 46.1714 383.746 45.894C383.506 45.6561 383.327 45.3192 383.207 44.8832Z" fill="white"/>
<path d="M416.577 34.4779C416.378 35.7067 416.178 36.8761 415.978 37.986C415.819 39.0959 415.719 39.9878 415.679 40.6616C415.639 41.6526 415.819 42.3661 416.218 42.8021C416.617 43.2382 417.057 43.4562 417.536 43.4562C418.095 43.4562 418.774 43.1787 419.573 42.6237C420.412 42.0688 421.29 41.3751 422.209 40.5427C423.128 39.7103 424.046 38.7986 424.965 37.8076C425.884 36.8166 426.722 35.8851 427.481 35.0131C428.28 34.1014 428.939 33.3086 429.458 32.6347C430.017 31.9609 430.397 31.5248 430.597 31.3266C430.836 31.0888 431.076 30.9501 431.316 30.9104C431.595 30.8708 431.815 30.9104 431.975 31.0293C432.134 31.1483 432.214 31.3663 432.214 31.6834C432.214 32.0005 432.054 32.3969 431.735 32.8726C431.256 33.6257 430.637 34.5176 429.878 35.5482C429.119 36.5392 428.28 37.5698 427.361 38.64C426.443 39.7103 425.464 40.7607 424.426 41.7913C423.427 42.8219 422.409 43.7336 421.37 44.5264C420.372 45.3192 419.393 45.9534 418.435 46.4291C417.516 46.9444 416.677 47.2021 415.918 47.2021C415.359 47.2021 414.82 47.0435 414.301 46.7264C413.821 46.4093 413.382 45.9931 412.983 45.4778C412.583 44.9624 412.264 44.3877 412.024 43.7535C411.824 43.1192 411.745 42.485 411.784 41.8508C411.824 41.5733 411.884 41.0976 411.964 40.4238C410.287 42.2868 408.589 43.7733 406.872 44.8832C405.194 45.9534 403.577 46.4885 402.019 46.4885C401.46 46.4885 400.861 46.3498 400.222 46.0723C399.583 45.7949 399.003 45.339 398.484 44.7048C398.005 44.0706 397.605 43.2382 397.286 42.2075C396.966 41.1769 396.847 39.9283 396.927 38.4617C397.046 36.1626 397.506 33.9824 398.304 31.9212C399.103 29.86 400.102 28.0762 401.3 26.57C402.538 25.024 403.916 23.815 405.434 22.943C406.992 22.0313 408.549 21.5754 410.107 21.5754C410.786 21.5754 411.405 21.7538 411.964 22.1106C412.523 22.4277 413.003 22.8637 413.402 23.4187C413.801 23.934 414.121 24.5087 414.361 25.1429C414.64 25.7772 414.84 26.3718 414.96 26.9267C415.239 25.7772 415.499 24.6475 415.739 23.5376C415.978 22.4277 416.218 21.3772 416.458 20.3863C416.857 18.9196 417.276 17.3341 417.716 15.6296C418.115 14.1629 418.574 12.4783 419.094 10.5756C419.613 8.67294 420.192 6.67117 420.831 4.57031C421.23 4.2532 421.61 4.01536 421.969 3.85681C422.329 3.69825 422.668 3.57933 422.988 3.50005C423.347 3.38114 423.687 3.32168 424.006 3.32168C424.406 3.32168 424.765 3.38114 425.085 3.50005C425.404 3.57933 425.664 3.83699 425.864 4.27302C426.103 4.6694 426.263 5.28381 426.343 6.11623C426.423 6.94865 426.423 8.07836 426.343 9.50536C426.263 11.2495 425.943 13.1522 425.384 15.2134C424.865 17.2746 424.166 19.4151 423.287 21.6349C422.409 23.815 421.39 26.015 420.232 28.2348C419.114 30.4149 417.895 32.496 416.577 34.4779ZM413.043 35.2509C413.202 34.4978 413.342 33.7446 413.462 32.9915C413.622 32.2383 413.801 31.4654 414.001 30.6726C413.921 30.7122 413.841 30.7519 413.762 30.7915C413.722 30.8311 413.662 30.8708 413.582 30.9104C413.142 31.1086 412.843 31.1086 412.683 30.9104C412.523 30.6726 412.444 30.3158 412.444 29.8402C412.444 29.6023 412.424 29.1861 412.384 28.5915C412.344 27.9573 412.224 27.3231 412.024 26.6889C411.864 26.015 411.605 25.4402 411.245 24.9646C410.886 24.4493 410.387 24.1916 409.747 24.1916C408.829 24.1916 407.89 24.6673 406.932 25.6186C405.973 26.5303 405.074 27.66 404.236 29.0077C403.397 30.3158 402.698 31.723 402.139 33.2293C401.58 34.7356 401.26 36.0833 401.18 37.2725C401.1 39.1752 401.34 40.5427 401.899 41.3751C402.458 42.2075 403.217 42.6237 404.176 42.6237C404.895 42.6237 405.674 42.3463 406.512 41.7913C407.391 41.2364 408.23 40.5625 409.029 39.7697C409.867 38.977 410.626 38.1644 411.305 37.3319C412.024 36.4995 412.603 35.8058 413.043 35.2509Z" fill="white"/>
<path d="M475.59 35.5482C475.031 36.9752 474.392 38.3626 473.673 39.7103C472.954 41.058 472.155 42.267 471.276 43.3372C470.398 44.4075 469.459 45.2597 468.46 45.894C467.462 46.5282 466.384 46.8453 465.225 46.8453C463.348 46.8453 461.93 46.2309 460.972 45.0021C460.013 43.7336 459.354 42.1877 458.994 40.3643C458.435 41.1967 457.836 42.0292 457.197 42.8616C456.558 43.694 455.879 44.4273 455.16 45.0615C454.441 45.6958 453.702 46.2111 452.943 46.6075C452.185 47.0039 451.426 47.2021 450.667 47.2021C449.628 47.2021 448.75 46.984 448.031 46.548C447.312 46.112 446.713 45.5174 446.233 44.7643C445.794 43.9715 445.475 43.0796 445.275 42.0886C445.075 41.058 444.975 39.9679 444.975 38.8184V38.1049C444.975 36.6383 445.095 35.132 445.335 33.5861C445.574 32.0401 445.834 30.6131 446.114 29.305C446.433 27.997 446.753 26.8672 447.072 25.9159C447.392 24.9249 447.631 24.2709 447.791 23.9538C448.071 23.5574 448.67 23.1808 449.588 22.8241C450.547 22.4277 451.486 22.2691 452.404 22.3484C452.844 22.388 453.063 22.5664 453.063 22.8835C453.103 23.2006 453.063 23.597 452.943 24.0727C452.784 24.7466 452.504 25.7574 452.105 27.1051C451.705 28.4528 451.286 29.9194 450.847 31.505C450.447 33.0906 450.088 34.6563 449.768 36.2022C449.449 37.7482 449.289 39.0364 449.289 40.067C449.289 41.3355 449.489 42.2472 449.888 42.8021C450.287 43.3571 450.906 43.6345 451.745 43.6345C452.744 43.6345 453.842 43.0796 455.04 41.9697C456.279 40.8598 457.477 38.977 458.635 36.3211C458.595 36.0833 458.575 35.8455 458.575 35.6076C458.575 35.3698 458.575 35.1122 458.575 34.8347C458.575 33.0509 458.635 31.3465 458.755 29.7213C458.915 28.0961 459.194 26.6691 459.594 25.4402C460.033 24.2114 460.612 23.2403 461.331 22.5268C462.09 21.8133 463.068 21.4565 464.267 21.4565C464.746 21.4565 465.145 21.5953 465.465 21.8727C465.784 22.1502 465.944 22.5466 465.944 23.0619C465.944 24.3303 465.485 26.1339 464.566 28.4726C463.688 30.7717 462.629 33.3086 461.391 36.0833C461.271 36.2419 461.191 36.4004 461.151 36.559C461.271 37.3121 461.411 38.1049 461.571 38.9373C461.77 39.7697 462.03 40.5427 462.35 41.2562C462.669 41.9301 463.048 42.5048 463.488 42.9805C463.927 43.4165 464.446 43.6345 465.046 43.6345C465.924 43.6345 466.723 43.2183 467.442 42.3859C468.201 41.5535 468.86 40.5427 469.419 39.3535C470.018 38.1644 470.537 36.9157 470.977 35.6076C471.416 34.2599 471.756 33.0708 471.995 32.0401C471.875 31.6041 471.776 31.1879 471.696 30.7915C471.616 30.3555 471.576 29.86 471.576 29.305C471.576 28.0762 471.756 27.0258 472.115 26.1537C472.475 25.2817 472.934 24.5682 473.493 24.0132C474.092 23.4187 474.711 22.9826 475.35 22.7052C476.029 22.4277 476.648 22.2889 477.207 22.2889C478.206 22.2889 478.705 22.725 478.705 23.597C478.705 24.2313 478.546 25.3411 478.226 26.9267C477.906 28.4726 477.447 30.2366 476.848 32.2185C477.567 32.5356 478.486 32.6942 479.604 32.6942C480.642 32.6942 481.601 32.5753 482.48 32.3374C483.358 32.06 484.157 31.723 484.876 31.3266C485.595 30.9302 486.254 30.4942 486.853 30.0185C487.452 29.5429 488.031 29.087 488.591 28.651C489.03 28.3339 489.389 28.3141 489.669 28.5915C489.949 28.869 489.909 29.305 489.549 29.8996C489.23 30.4149 488.671 31.0095 487.872 31.6834C487.113 32.3572 486.174 33.0113 485.056 33.6455C483.977 34.2401 482.759 34.7554 481.401 35.1914C480.083 35.5878 478.685 35.786 477.207 35.786C476.968 35.786 476.708 35.7662 476.429 35.7266C476.149 35.6869 475.869 35.6275 475.59 35.5482Z" fill="white"/>
<path d="M497.218 10.8134C497.098 11.2495 496.858 11.6855 496.499 12.1215C496.179 12.5179 495.8 12.8549 495.361 13.1323C494.961 13.3702 494.542 13.5287 494.102 13.608C493.663 13.6873 493.304 13.608 493.024 13.3702C492.185 12.7359 491.746 12.0621 491.706 11.3486C491.666 10.5954 491.846 9.90175 492.245 9.26753C492.645 8.59367 493.144 8.03872 493.743 7.60269C494.342 7.12702 494.861 6.84955 495.301 6.77027C495.74 6.69099 496.099 6.79009 496.379 7.06756C496.699 7.3054 496.938 7.64233 497.098 8.07836C497.258 8.47475 497.338 8.9306 497.338 9.4459C497.378 9.96121 497.338 10.4171 497.218 10.8134ZM488.95 23.4781C489.15 23.2403 489.529 23.0421 490.088 22.8835C490.648 22.725 491.227 22.6061 491.826 22.5268C492.425 22.4079 492.964 22.3484 493.443 22.3484C493.963 22.3088 494.262 22.3088 494.342 22.3484C494.382 22.388 494.282 22.8042 494.043 23.597C493.803 24.3898 493.503 25.3213 493.144 26.3916C492.784 27.4618 492.405 28.5717 492.006 29.7213C491.606 30.8311 491.307 31.7428 491.107 32.4563C490.907 33.1698 490.668 33.9824 490.388 34.8941C490.108 35.7662 489.849 36.6383 489.609 37.5103C489.409 38.3427 489.27 39.1355 489.19 39.8887C489.11 40.6418 489.17 41.2166 489.369 41.6129C489.569 42.0886 489.789 42.4256 490.028 42.6237C490.268 42.7823 490.528 42.8616 490.807 42.8616C491.606 42.8616 492.605 42.4256 493.803 41.5535C495.041 40.6814 496.279 39.6508 497.517 38.4617C498.795 37.2328 499.974 36.004 501.052 34.7752C502.13 33.5068 502.929 32.496 503.449 31.7428C503.768 31.3465 504.088 31.0888 504.407 30.9699C504.767 30.851 505.046 30.8708 505.246 31.0293C505.486 31.1879 505.605 31.4455 505.605 31.8023C505.645 32.1591 505.525 32.5753 505.246 33.0509C504.607 34.1608 503.668 35.4887 502.43 37.0346C501.192 38.5409 499.874 40.0076 498.476 41.4346C497.078 42.8219 495.7 44.0111 494.342 45.0021C493.024 45.9931 491.946 46.5084 491.107 46.548C490.428 46.5876 489.749 46.4687 489.07 46.1913C488.431 45.9534 487.832 45.6165 487.273 45.1805C486.753 44.7048 486.314 44.1697 485.954 43.5751C485.595 42.9409 485.395 42.2868 485.355 41.6129C485.236 40.622 485.236 39.2743 485.355 37.5698C485.475 35.8257 485.695 34.0617 486.014 32.278C486.334 30.4546 486.733 28.7303 487.213 27.1051C487.732 25.4799 488.311 24.2709 488.95 23.4781Z" fill="white"/>
<path d="M522.98 30.7915C523.139 30.5537 523.339 30.4149 523.579 30.3753C523.858 30.296 524.078 30.3158 524.238 30.4348C524.398 30.5537 524.477 30.7519 524.477 31.0293C524.517 31.3068 524.417 31.6834 524.178 32.1591C523.379 33.6653 522.321 35.2905 521.003 37.0346C519.724 38.7788 518.366 40.4238 516.929 41.9697C515.491 43.476 514.093 44.7246 512.735 45.7156C511.377 46.7066 510.238 47.2021 509.32 47.2021C508.002 47.2021 506.903 46.9444 506.025 46.4291C505.146 45.9138 504.447 45.2796 503.928 44.5264C503.449 43.7733 503.109 42.9607 502.909 42.0886C502.71 41.1769 502.65 40.3445 502.73 39.5914C502.77 38.9571 502.909 37.8274 503.149 36.2022C503.389 34.5374 503.708 32.6347 504.108 30.4942C504.507 28.3141 504.946 25.9952 505.426 23.5376C505.945 21.0403 506.484 18.6422 507.043 16.3431C506.364 16.4224 505.685 16.5016 505.006 16.5809C504.327 16.6602 503.708 16.6998 503.149 16.6998C501.871 16.6998 500.673 16.5611 499.554 16.2836C498.396 15.9665 497.537 15.6692 496.978 15.3918C496.659 15.2332 496.519 15.0152 496.559 14.7377C496.599 14.4206 496.719 14.1233 496.918 13.8458C497.118 13.5287 497.378 13.2711 497.697 13.0729C497.977 12.835 498.236 12.7161 498.476 12.7161C499.235 12.7954 500.054 12.8747 500.932 12.954C501.811 12.9936 502.77 12.9936 503.808 12.954C504.567 12.9143 505.286 12.8549 505.965 12.7756C506.684 12.6963 507.383 12.5972 508.062 12.4783C508.581 10.5756 509.08 8.9306 509.56 7.54323C510.079 6.11623 510.538 5.12525 510.937 4.57031C511.057 4.37211 511.317 4.21356 511.716 4.09464C512.156 3.93608 512.615 3.83699 513.094 3.79735C513.574 3.71807 514.033 3.71807 514.472 3.79735C514.912 3.83699 515.231 3.97572 515.431 4.21356C515.631 4.53067 515.71 5.34327 515.67 6.65135C515.631 7.95944 515.411 9.62428 515.011 11.6459C516.689 11.6459 518.167 11.745 519.445 11.9432C520.763 12.1017 521.881 12.2999 522.8 12.5377C523.719 12.7359 524.457 12.954 525.017 13.1918C525.576 13.39 525.995 13.5287 526.275 13.608C526.554 13.6873 526.694 13.8855 526.694 14.2026C526.734 14.5197 526.674 14.8566 526.514 15.2134C526.395 15.5305 526.175 15.808 525.855 16.0458C525.536 16.2836 525.176 16.3629 524.777 16.2836C524.378 16.244 523.918 16.1647 523.399 16.0458C522.92 15.9269 522.321 15.8278 521.602 15.7485C520.923 15.6692 520.104 15.5899 519.145 15.5107C518.187 15.4314 517.068 15.3918 515.79 15.3918C515.551 15.3918 515.271 15.4116 514.952 15.4512C514.672 15.4512 514.372 15.4512 514.053 15.4512C513.893 16.0854 513.733 16.7197 513.574 17.3539C513.454 17.9485 513.274 18.5827 513.034 19.2566C512.515 20.8421 511.916 22.5664 511.237 24.4294C510.638 26.0546 509.919 27.9177 509.08 30.0185C508.241 32.1194 507.303 34.359 506.264 36.7374C506.025 38.4418 506.045 39.7499 506.324 40.6616C506.644 41.5337 507.023 42.1679 507.463 42.5643C507.982 43.0003 508.621 43.2382 509.38 43.2778C509.979 43.3571 510.698 43.1589 511.537 42.6832C512.415 42.1679 513.314 41.494 514.233 40.6616C515.151 39.8292 516.07 38.9175 516.989 37.9265C517.947 36.9356 518.826 35.9644 519.625 35.0131C520.423 34.0617 521.122 33.2095 521.721 32.4563C522.321 31.6636 522.74 31.1086 522.98 30.7915Z" fill="white"/>
<path d="M550.299 32.7536C550.579 32.4365 550.858 32.278 551.138 32.278C551.457 32.2383 551.697 32.3176 551.857 32.5158C552.057 32.6744 552.136 32.932 552.096 33.2888C552.096 33.6455 551.937 34.0419 551.617 34.4779C550.858 35.5085 549.98 36.5788 548.981 37.6887C547.983 38.7589 546.904 39.8094 545.746 40.84C544.628 41.8706 543.489 42.8418 542.331 43.7535C541.173 44.6652 540.054 45.4183 538.976 46.0129C537.778 46.6867 536.759 47.0237 535.92 47.0237C535.122 47.0237 534.323 46.5084 533.524 45.4778C532.805 44.5661 532.446 43.5949 532.446 42.5643C532.486 41.494 532.725 40.1661 533.165 38.5806C533.444 37.5896 533.824 36.4202 534.303 35.0725C534.822 33.6852 535.221 32.3572 535.501 31.0888C535.821 29.8204 535.92 28.7501 535.801 27.878C535.681 26.9663 535.162 26.5105 534.243 26.5105C533.604 26.5105 532.905 26.7285 532.146 27.1645C531.427 27.6006 530.688 28.1753 529.929 28.8888C529.21 29.5627 528.511 30.3357 527.832 31.2077C527.153 32.0798 526.554 32.932 526.035 33.7644C525.716 35.3104 525.396 36.8365 525.076 38.3427C524.797 39.6112 524.497 40.9985 524.178 42.5048C523.898 43.9715 523.619 45.2796 523.339 46.4291C523.099 46.6273 522.84 46.766 522.56 46.8453C522.281 46.9246 522.021 46.9642 521.781 46.9642C521.502 46.9642 521.222 46.9444 520.943 46.9048C520.623 46.8255 520.324 46.7066 520.044 46.548C519.804 46.3895 519.565 46.1714 519.325 45.894C519.085 45.6561 518.906 45.3192 518.786 44.8832C520.583 37.55 522.001 31.6636 523.04 27.224C524.078 22.7844 524.877 19.3953 525.436 17.0566C526.075 14.2819 526.514 12.3594 526.754 11.2891C526.874 10.536 526.974 9.80266 527.054 9.08915C527.133 8.45493 527.173 7.80089 527.173 7.12702C527.173 6.45316 527.114 5.83876 526.994 5.28381C527.313 5.08561 527.653 4.92706 528.012 4.80814C528.412 4.68922 528.791 4.59013 529.151 4.51085C529.59 4.39193 530.029 4.29283 530.469 4.21356C530.908 4.13428 531.307 4.09464 531.667 4.09464C531.986 4.09464 532.286 4.13428 532.565 4.21356C532.845 4.2532 533.025 4.37211 533.105 4.57031C533.344 4.7685 533.444 5.16489 533.404 5.75948C533.404 6.35406 533.364 6.96847 533.284 7.60269C533.125 8.35583 532.945 9.16843 532.745 10.0405C531.906 13.2512 530.968 16.3827 529.929 19.4349C528.891 22.4475 527.932 25.6781 527.054 29.1267C527.573 28.3339 528.192 27.5213 528.911 26.6889C529.63 25.8564 530.409 25.1033 531.247 24.4294C532.126 23.7159 533.045 23.1412 534.003 22.7052C534.962 22.2295 535.98 21.9916 537.059 21.9916C537.618 21.9916 538.137 22.0907 538.616 22.2889C539.136 22.4475 539.575 22.7448 539.935 23.1808C540.334 23.5772 540.633 24.1322 540.833 24.8457C541.033 25.5195 541.113 26.3718 541.073 27.4024C541.073 28.0366 540.993 28.6906 540.833 29.3645C540.713 30.0384 540.534 30.7915 540.294 31.6239C540.054 32.4167 539.735 33.3086 539.335 34.2996C538.976 35.2905 538.537 36.4401 538.017 37.7481C537.658 38.6598 537.378 39.4328 537.179 40.067C536.979 40.7013 537.019 41.2562 537.298 41.7319C537.658 42.3661 538.357 42.5247 539.395 42.2075C540.474 41.8508 542.071 40.8202 544.188 39.1157C544.667 38.7193 545.207 38.2238 545.806 37.6292C546.405 37.0346 546.984 36.4401 547.543 35.8455C548.102 35.2113 548.622 34.6167 549.101 34.0617C549.58 33.5068 549.98 33.0708 550.299 32.7536Z" fill="white"/>
<path d="M595.892 34.0023C594.973 35.5085 593.914 37.0743 592.716 38.6995C591.558 40.285 590.32 41.7517 589.002 43.0994C587.684 44.4075 586.326 45.4976 584.928 46.3696C583.53 47.2417 582.132 47.6777 580.734 47.6777C579.336 47.6777 578.318 47.2021 577.679 46.2507C577.079 45.339 576.8 44.3084 576.84 43.1589C576.84 42.6436 576.88 42.1877 576.96 41.7913C577.079 41.3949 577.199 41.0382 577.319 40.7211C577.439 40.404 577.559 40.0868 577.679 39.7697C577.838 39.413 577.978 39.0166 578.098 38.5806C578.258 38.0653 578.258 37.6094 578.098 37.213C577.978 36.777 577.818 36.4004 577.619 36.0833C577.259 36.4797 576.84 36.8365 576.36 37.1536C575.921 37.431 575.362 37.5698 574.683 37.5698C574.204 37.5698 573.764 37.3518 573.365 36.9157C572.966 36.4401 572.766 35.8653 572.766 35.1914C572.766 34.6365 572.886 34.1806 573.125 33.8239C573.405 33.4671 573.704 33.1897 574.024 32.9915C574.383 32.7933 574.743 32.6545 575.102 32.5753C575.462 32.496 575.761 32.4563 576.001 32.4563C576.121 32.4563 576.36 32.4762 576.72 32.5158C577.119 32.5554 577.539 32.6149 577.978 32.6942C579.416 31.5446 580.434 30.514 581.034 29.6023C581.673 28.651 581.732 27.7988 581.213 27.0456C580.894 26.5303 580.494 26.2727 580.015 26.2727C579.536 26.233 579.037 26.3519 578.517 26.6294C577.998 26.8672 577.479 27.1844 576.96 27.5807C576.48 27.9771 576.041 28.3537 575.642 28.7105C574.843 29.5032 573.944 30.4546 572.945 31.5645C571.987 32.6347 571.188 33.5266 570.549 34.2401C570.27 35.4293 569.99 36.6779 569.71 37.986C569.471 39.1355 569.191 40.4436 568.872 41.9102C568.592 43.3372 568.292 44.8237 567.973 46.3696C567.733 46.4885 567.474 46.5678 567.194 46.6075C566.954 46.6867 566.735 46.7462 566.535 46.7858C566.295 46.8255 566.056 46.8453 565.816 46.8453C565.497 46.8453 565.197 46.8255 564.917 46.7858C564.638 46.7858 564.418 46.6867 564.258 46.4885C564.059 46.33 563.959 46.0525 563.959 45.6561C563.919 45.2597 564.019 44.7048 564.258 43.9913C564.578 42.9607 564.977 41.5931 565.457 39.8887C565.936 38.1445 566.435 36.2419 566.954 34.1806C567.474 32.1194 567.993 29.9789 568.512 27.7591C569.071 25.4997 569.591 23.3592 570.07 21.3376C570.549 19.2764 570.949 17.4332 571.268 15.808C571.628 14.1431 571.887 12.835 572.047 11.8837C572.167 10.8531 572.286 9.86211 572.406 8.91078C572.486 8.118 572.526 7.34504 572.526 6.5919C572.566 5.79912 572.526 5.20453 572.406 4.80814C572.606 4.60995 572.886 4.43157 573.245 4.27302C573.605 4.11446 574.004 3.99554 574.443 3.91626C574.883 3.79735 575.402 3.69825 576.001 3.61897C576.68 3.53969 577.239 3.51987 577.679 3.55951C578.158 3.59915 578.497 3.79735 578.697 4.1541C578.937 4.55049 578.977 5.22435 578.817 6.17569C578.697 7.08738 578.417 8.37565 577.978 10.0405C577.419 12.181 576.84 14.1431 576.241 15.9269C575.681 17.671 575.122 19.316 574.563 20.8619C574.044 22.4079 573.525 23.9141 573.005 25.3808C572.526 26.8078 572.087 28.2744 571.687 29.7807C572.486 28.6312 573.485 27.4222 574.683 26.1537C575.881 24.8457 577.239 23.7754 578.757 22.943C580.355 22.1106 581.673 21.6944 582.711 21.6944C583.989 21.6944 584.908 22.1304 585.467 23.0024C586.026 23.8349 586.286 24.8258 586.246 25.9754C586.206 26.8871 585.966 27.7393 585.527 28.5321C585.128 29.2852 584.628 29.9987 584.029 30.6726C583.43 31.3068 582.791 31.8618 582.112 32.3374C581.433 32.8131 580.854 33.2095 580.375 33.5266C580.934 33.8437 581.413 34.2797 581.812 34.8347C582.252 35.35 582.451 36.004 582.411 36.7968C582.372 37.8671 582.152 38.8184 581.752 39.6508C581.393 40.4436 581.213 41.1769 581.213 41.8508C581.253 42.3661 581.353 42.7427 581.513 42.9805C581.713 43.2183 582.112 43.3372 582.711 43.3372C583.789 43.3372 584.908 42.8814 586.066 41.9697C587.264 41.058 588.383 40.0076 589.421 38.8184C590.46 37.6292 591.418 36.4599 592.297 35.3104C593.176 34.1212 593.855 33.2491 594.334 32.6942C595.013 31.9807 595.572 31.8023 596.011 32.1591C596.491 32.4762 596.451 33.0906 595.892 34.0023Z" fill="white"/>
<path d="M609.971 47.321C609.052 47.321 608.253 47.1426 607.574 46.7858C606.935 46.4687 606.416 46.0327 606.016 45.4778C605.617 44.9228 605.357 44.2886 605.238 43.5751C605.118 42.8219 605.158 42.0292 605.357 41.1967C605.477 40.6418 605.677 39.9085 605.957 38.9968C606.236 38.0454 606.516 37.0346 606.795 35.9644C607.115 34.8545 607.394 33.7644 607.634 32.6942C607.914 31.5843 608.093 30.5933 608.173 29.7213C608.253 28.8096 608.213 28.0762 608.053 27.5213C607.894 26.9267 607.554 26.6294 607.035 26.6294C606.396 26.6294 605.737 26.8474 605.058 27.2835C604.379 27.6798 603.68 28.2348 602.961 28.9483C602.282 29.6618 601.583 30.4942 600.864 31.4456C600.185 32.3572 599.506 33.3086 598.827 34.2996C598.468 35.6473 598.168 36.8365 597.929 37.8671C597.689 38.858 597.469 39.7697 597.269 40.6022C597.11 41.3949 596.95 42.1084 596.79 42.7427C596.63 43.3372 596.491 43.912 596.371 44.467C596.251 44.8633 595.891 45.2597 595.292 45.6561C594.693 46.0129 594.054 46.3102 593.375 46.548C592.696 46.7858 592.117 46.9048 591.638 46.9048C591.119 46.9048 590.899 46.7264 590.979 46.3696C591.019 46.1318 591.159 45.5967 591.398 44.7643C591.598 43.9318 591.857 42.9607 592.177 41.8508C592.457 40.7013 592.756 39.4923 593.076 38.2238C593.395 36.9554 593.695 35.7464 593.974 34.5969C594.174 33.6852 594.394 32.6744 594.633 31.5645C594.833 30.6131 595.073 29.5032 595.352 28.2348C595.672 26.9663 596.031 25.579 596.431 24.0727C596.71 23.8349 596.99 23.6565 597.269 23.5376C597.589 23.379 597.909 23.2601 598.228 23.1808C598.548 23.0619 598.887 22.9826 599.247 22.943C599.566 22.943 599.886 22.9628 600.205 23.0024C600.485 23.0421 600.764 23.1214 601.044 23.2403C601.363 23.3196 601.643 23.4583 601.883 23.6565C601.763 23.934 601.623 24.3303 601.463 24.8457C601.303 25.3213 601.144 25.8366 600.984 26.3916C600.824 27.0258 600.625 27.6798 600.385 28.3537C600.904 27.6402 601.483 26.9267 602.122 26.2132C602.801 25.4601 603.52 24.7862 604.279 24.1916C605.078 23.597 605.917 23.1214 606.795 22.7646C607.674 22.3682 608.573 22.17 609.491 22.17C610.25 22.17 610.929 22.388 611.528 22.8241C612.127 23.2601 612.587 23.8745 612.906 24.6673C613.266 25.4204 613.465 26.3321 613.505 27.4024C613.585 28.4726 613.445 29.642 613.086 30.9104L612.427 33.5266C612.227 34.359 611.968 35.35 611.648 36.4995C611.369 37.6094 611.009 38.8382 610.57 40.186C610.33 41.058 610.23 41.8111 610.27 42.4454C610.35 43.0796 610.75 43.3967 611.468 43.3967C612.187 43.3967 613.086 42.9607 614.164 42.0886C615.283 41.2166 616.401 40.1661 617.519 38.9373C618.638 37.7085 619.696 36.4599 620.695 35.1914C621.693 33.8833 622.452 32.8329 622.971 32.0401C623.331 31.5248 623.67 31.1879 623.99 31.0293C624.309 30.8708 624.549 30.851 624.709 30.9699C624.909 31.0888 625.008 31.3663 625.008 31.8023C625.008 32.1987 624.849 32.714 624.529 33.3482C624.249 33.9032 623.81 34.6365 623.211 35.5482C622.652 36.4599 621.973 37.431 621.174 38.4617C620.375 39.4923 619.516 40.5427 618.598 41.6129C617.679 42.6436 616.721 43.5949 615.722 44.467C614.724 45.2994 613.725 45.9732 612.727 46.4885C611.768 47.0435 610.849 47.321 609.971 47.321Z" fill="white"/>
<path d="M638.249 36.3806C637.849 37.8869 637.31 39.2941 636.631 40.6022C635.952 41.9102 635.133 43.04 634.175 43.9913C633.256 44.9426 632.198 45.676 630.999 46.1913C629.841 46.7462 628.563 47.0237 627.165 47.0237C625.528 47.0237 624.229 46.6669 623.271 45.9534C622.352 45.2796 621.653 44.4273 621.174 43.3967C620.735 42.3661 620.475 41.2364 620.395 40.0076C620.275 38.7788 620.215 37.6292 620.215 36.559C620.215 35.8058 620.315 34.9734 620.515 34.0617C620.675 33.15 620.914 32.2185 621.234 31.2672C621.553 30.3158 621.953 29.3645 622.432 28.4132C622.951 27.4618 623.551 26.5898 624.229 25.797C624.469 25.1231 624.829 24.5285 625.308 24.0132C625.827 23.4979 626.406 23.0817 627.045 22.7646C627.724 22.4079 628.443 22.1502 629.202 21.9916C629.961 21.7935 630.7 21.6944 631.419 21.6944C631.539 21.6944 631.639 21.7142 631.718 21.7538C631.838 21.7935 631.958 21.8331 632.078 21.8727C632.597 21.9124 633.236 22.1106 633.995 22.4673C634.794 22.8241 635.553 23.3592 636.272 24.0727C637.031 24.7862 637.67 25.6979 638.189 26.8078C638.708 27.878 638.968 29.1861 638.968 30.732C638.968 31.0492 638.948 31.4455 638.908 31.9212C638.868 32.3572 638.828 32.7338 638.788 33.0509C639.707 32.6942 640.665 32.2581 641.664 31.7428C642.662 31.2275 643.621 30.6924 644.539 30.1375C645.498 29.5429 646.377 28.9483 647.176 28.3537C647.974 27.7591 648.613 27.224 649.093 26.7483C649.492 26.3916 649.832 26.1934 650.111 26.1537C650.391 26.1141 650.59 26.1934 650.71 26.3916C650.83 26.5898 650.85 26.8672 650.77 27.224C650.69 27.5807 650.471 27.9771 650.111 28.4132C649.911 28.651 649.392 29.1267 648.553 29.8402C647.755 30.5537 646.796 31.3266 645.678 32.1591C644.559 32.9915 643.341 33.8041 642.023 34.5969C640.705 35.3896 639.447 35.9842 638.249 36.3806ZM628.124 27.3429C628.004 27.6997 627.944 28.0762 627.944 28.4726C627.944 29.1068 627.984 29.7807 628.064 30.4942C628.144 31.1681 628.343 31.7825 628.663 32.3374C628.982 32.8924 629.482 33.368 630.161 33.7644C630.88 34.1212 631.858 34.2996 633.096 34.2996C633.296 34.2996 633.496 34.2996 633.695 34.2996C633.895 34.2599 634.095 34.2203 634.295 34.1806C634.414 33.6653 634.514 33.2095 634.594 32.8131C634.714 32.3771 634.774 32.0005 634.774 31.6834C634.854 30.9302 634.854 30.1573 634.774 29.3645C634.694 28.5717 634.534 27.8582 634.295 27.224C634.095 26.5501 633.815 26.015 633.456 25.6186C633.136 25.1826 632.737 24.9646 632.258 24.9646C631.499 24.9646 630.76 25.1826 630.041 25.6186C629.362 26.015 628.723 26.5898 628.124 27.3429ZM624.289 37.8076C624.289 38.5211 624.329 39.2346 624.409 39.9481C624.489 40.622 624.649 41.2364 624.889 41.7913C625.128 42.3066 625.448 42.7427 625.847 43.0994C626.247 43.4165 626.766 43.5751 627.405 43.5751C628.124 43.5751 628.783 43.4165 629.382 43.0994C629.981 42.7427 630.52 42.3066 630.999 41.7913C631.479 41.2364 631.898 40.622 632.258 39.9481C632.657 39.2346 632.997 38.5013 633.276 37.7481C632.997 37.7878 632.717 37.8274 632.437 37.8671C632.198 37.8671 631.918 37.8671 631.599 37.8671C630.081 37.8671 628.763 37.431 627.644 36.559C626.566 35.6473 625.727 34.4978 625.128 33.1104C624.889 33.9428 624.689 34.7554 624.529 35.5482C624.369 36.341 624.289 37.0941 624.289 37.8076Z" fill="white"/>
<path d="M675.873 35.5482C675.314 36.9752 674.675 38.3626 673.956 39.7103C673.237 41.058 672.438 42.267 671.559 43.3372C670.681 44.4075 669.742 45.2597 668.744 45.894C667.745 46.5282 666.667 46.8453 665.508 46.8453C663.631 46.8453 662.213 46.2309 661.255 45.0021C660.296 43.7336 659.637 42.1877 659.278 40.3643C658.718 41.1967 658.119 42.0292 657.48 42.8616C656.841 43.694 656.162 44.4273 655.443 45.0615C654.724 45.6958 653.985 46.2111 653.227 46.6075C652.468 47.0039 651.709 47.2021 650.95 47.2021C649.911 47.2021 649.033 46.984 648.314 46.548C647.595 46.112 646.996 45.5174 646.516 44.7643C646.077 43.9715 645.758 43.0796 645.558 42.0886C645.358 41.058 645.258 39.9679 645.258 38.8184V38.1049C645.258 36.6383 645.378 35.132 645.618 33.5861C645.857 32.0401 646.117 30.6131 646.397 29.305C646.716 27.997 647.036 26.8672 647.355 25.9159C647.675 24.9249 647.914 24.2709 648.074 23.9538C648.354 23.5574 648.953 23.1808 649.871 22.8241C650.83 22.4277 651.769 22.2691 652.687 22.3484C653.127 22.388 653.346 22.5664 653.346 22.8835C653.386 23.2006 653.346 23.597 653.227 24.0727C653.067 24.7466 652.787 25.7574 652.388 27.1051C651.988 28.4528 651.569 29.9194 651.13 31.505C650.73 33.0906 650.371 34.6563 650.051 36.2022C649.732 37.7482 649.572 39.0364 649.572 40.067C649.572 41.3355 649.772 42.2472 650.171 42.8021C650.57 43.3571 651.19 43.6345 652.028 43.6345C653.027 43.6345 654.125 43.0796 655.323 41.9697C656.562 40.8598 657.76 38.977 658.918 36.3211C658.878 36.0833 658.858 35.8455 658.858 35.6076C658.858 35.3698 658.858 35.1122 658.858 34.8347C658.858 33.0509 658.918 31.3465 659.038 29.7213C659.198 28.0961 659.477 26.6691 659.877 25.4402C660.316 24.2114 660.895 23.2403 661.614 22.5268C662.373 21.8133 663.352 21.4565 664.55 21.4565C665.029 21.4565 665.428 21.5953 665.748 21.8727C666.068 22.1502 666.227 22.5466 666.227 23.0619C666.227 24.3303 665.768 26.1339 664.849 28.4726C663.971 30.7717 662.912 33.3086 661.674 36.0833C661.554 36.2419 661.474 36.4004 661.434 36.559C661.554 37.3121 661.694 38.1049 661.854 38.9373C662.053 39.7697 662.313 40.5427 662.633 41.2562C662.952 41.9301 663.332 42.5048 663.771 42.9805C664.21 43.4165 664.729 43.6345 665.329 43.6345C666.207 43.6345 667.006 43.2183 667.725 42.3859C668.484 41.5535 669.143 40.5427 669.702 39.3535C670.301 38.1644 670.82 36.9157 671.26 35.6076C671.699 34.2599 672.039 33.0708 672.278 32.0401C672.158 31.6041 672.059 31.1879 671.979 30.7915C671.899 30.3555 671.859 29.86 671.859 29.305C671.859 28.0762 672.039 27.0258 672.398 26.1537C672.758 25.2817 673.217 24.5682 673.776 24.0132C674.375 23.4187 674.994 22.9826 675.633 22.7052C676.312 22.4277 676.931 22.2889 677.491 22.2889C678.489 22.2889 678.988 22.725 678.988 23.597C678.988 24.2313 678.829 25.3411 678.509 26.9267C678.19 28.4726 677.73 30.2366 677.131 32.2185C677.85 32.5356 678.769 32.6942 679.887 32.6942C680.925 32.6942 681.884 32.5753 682.763 32.3374C683.641 32.06 684.44 31.723 685.159 31.3266C685.878 30.9302 686.537 30.4942 687.136 30.0185C687.735 29.5429 688.315 29.087 688.874 28.651C689.313 28.3339 689.672 28.3141 689.952 28.5915C690.232 28.869 690.192 29.305 689.832 29.8996C689.513 30.4149 688.954 31.0095 688.155 31.6834C687.396 32.3572 686.457 33.0113 685.339 33.6455C684.26 34.2401 683.042 34.7554 681.684 35.1914C680.366 35.5878 678.968 35.786 677.491 35.786C677.251 35.786 676.991 35.7662 676.712 35.7266C676.432 35.6869 676.153 35.6275 675.873 35.5482Z" fill="white"/>
<path d="M683.422 44.8832C685.179 37.55 686.577 31.6636 687.616 27.224C688.694 22.7844 689.513 19.3953 690.072 17.0566C690.711 14.2819 691.15 12.3594 691.39 11.2891C691.51 10.536 691.61 9.80266 691.689 9.08915C691.769 8.45493 691.809 7.80089 691.809 7.12702C691.809 6.45316 691.749 5.83876 691.63 5.28381C691.949 5.08561 692.289 4.92706 692.648 4.80814C693.047 4.68922 693.427 4.59013 693.786 4.51085C694.226 4.39193 694.665 4.29283 695.104 4.21356C695.544 4.13428 695.943 4.09464 696.303 4.09464C696.622 4.09464 696.922 4.13428 697.201 4.21356C697.481 4.2532 697.661 4.37211 697.74 4.57031C697.98 4.7685 698.08 5.16489 698.04 5.75948C698.04 6.35406 698 6.96847 697.92 7.60269C697.76 8.35583 697.581 9.16843 697.381 10.0405C696.902 11.745 696.243 14.2026 695.404 17.4133C694.685 20.1484 693.706 23.8745 692.468 28.5915C691.27 33.3086 689.752 39.2544 687.915 46.4291C687.715 46.6273 687.476 46.766 687.196 46.8453C686.917 46.9246 686.657 46.9642 686.417 46.9642C686.138 46.9642 685.838 46.9444 685.519 46.9048C685.239 46.8255 684.959 46.7066 684.68 46.548C684.44 46.3895 684.201 46.1714 683.961 45.894C683.721 45.6561 683.542 45.3192 683.422 44.8832Z" fill="white"/>
<path d="M724.88 33.4671C723.682 35.2113 722.324 36.9157 720.806 38.5806C719.289 40.2058 717.671 41.6724 715.953 42.9805C714.276 44.2489 712.539 45.2796 710.741 46.0723C708.984 46.8651 707.266 47.2615 705.589 47.2615C704.71 47.2615 703.752 47.0435 702.713 46.6075C701.715 46.2111 700.796 45.5769 699.957 44.7048C699.118 43.8327 698.439 42.703 697.92 41.3157C697.441 39.9283 697.301 38.2436 697.501 36.2617C697.661 34.6365 698.16 32.932 698.999 31.1483C699.877 29.3249 700.936 27.66 702.174 26.1537C703.452 24.6475 704.87 23.3988 706.428 22.4079C708.025 21.4169 709.623 20.9214 711.221 20.9214C712.738 20.9214 713.837 21.298 714.516 22.0511C715.195 22.8042 715.494 23.7358 715.414 24.8457C715.294 26.0745 714.935 27.2042 714.336 28.2348C713.777 29.2654 713.098 30.1969 712.299 31.0293C711.5 31.8618 710.641 32.6149 709.723 33.2888C708.844 33.9626 708.005 34.577 707.206 35.132C706.328 35.7266 705.489 36.3013 704.69 36.8563C703.891 37.3716 703.192 37.8472 702.593 38.2833C702.633 39.2743 702.813 40.1067 703.133 40.7805C703.452 41.4544 703.852 42.0093 704.331 42.4454C704.81 42.8418 705.349 43.1391 705.948 43.3372C706.587 43.4958 707.226 43.5751 707.866 43.5751C709.224 43.5751 710.641 43.1589 712.119 42.3265C713.597 41.4544 715.035 40.4238 716.433 39.2346C717.871 38.0058 719.189 36.7374 720.387 35.4293C721.625 34.1212 722.644 32.9915 723.442 32.0401C723.722 31.723 724.002 31.5446 724.281 31.505C724.601 31.4257 724.84 31.4654 725 31.6239C725.2 31.7428 725.3 31.9807 725.3 32.3374C725.3 32.6545 725.16 33.0311 724.88 33.4671ZM709.543 24.3105C709.064 24.3105 708.485 24.5484 707.806 25.024C707.167 25.4997 706.528 26.1934 705.888 27.1051C705.249 27.9771 704.65 29.0672 704.091 30.3753C703.532 31.6437 703.113 33.1104 702.833 34.7752C703.312 34.4185 703.831 34.0617 704.391 33.705C704.95 33.3086 705.509 32.8924 706.068 32.4563C707.786 31.1483 708.984 29.9987 709.663 29.0077C710.342 28.0168 710.721 27.1645 710.801 26.451C710.881 25.6979 710.801 25.1628 710.561 24.8457C710.322 24.4889 709.982 24.3105 709.543 24.3105Z" fill="white"/>
<path d="M739.618 34.4779C739.419 35.7067 739.219 36.8761 739.019 37.986C738.86 39.0959 738.76 39.9878 738.72 40.6616C738.68 41.6526 738.86 42.3661 739.259 42.8021C739.658 43.2382 740.098 43.4562 740.577 43.4562C741.136 43.4562 741.815 43.1787 742.614 42.6237C743.453 42.0688 744.331 41.3751 745.25 40.5427C746.169 39.7103 747.087 38.7986 748.006 37.8076C748.925 36.8166 749.763 35.8851 750.522 35.0131C751.321 34.1014 751.98 33.3086 752.499 32.6347C753.059 31.9609 753.438 31.5248 753.638 31.3266C753.877 31.0888 754.117 30.9501 754.357 30.9104C754.636 30.8708 754.856 30.9104 755.016 31.0293C755.175 31.1483 755.255 31.3663 755.255 31.6834C755.255 32.0005 755.095 32.3969 754.776 32.8726C754.297 33.6257 753.678 34.5176 752.919 35.5482C752.16 36.5392 751.321 37.5698 750.402 38.64C749.484 39.7103 748.505 40.7607 747.467 41.7913C746.468 42.8219 745.45 43.7336 744.411 44.5264C743.413 45.3192 742.434 45.9534 741.476 46.4291C740.557 46.9444 739.718 47.2021 738.959 47.2021C738.4 47.2021 737.861 47.0435 737.342 46.7264C736.862 46.4093 736.423 45.9931 736.024 45.4778C735.624 44.9624 735.305 44.3877 735.065 43.7535C734.865 43.1192 734.786 42.485 734.826 41.8508C734.865 41.5733 734.925 41.0976 735.005 40.4238C733.328 42.2868 731.63 43.7733 729.913 44.8832C728.235 45.9534 726.618 46.4885 725.06 46.4885C724.501 46.4885 723.902 46.3498 723.263 46.0723C722.624 45.7949 722.044 45.339 721.525 44.7048C721.046 44.0706 720.647 43.2382 720.327 42.2075C720.008 41.1769 719.888 39.9283 719.968 38.4617C720.087 36.1626 720.547 33.9824 721.346 31.9212C722.144 29.86 723.143 28.0762 724.341 26.57C725.579 25.024 726.957 23.815 728.475 22.943C730.033 22.0313 731.59 21.5754 733.148 21.5754C733.827 21.5754 734.446 21.7538 735.005 22.1106C735.564 22.4277 736.044 22.8637 736.443 23.4187C736.843 23.934 737.162 24.5087 737.402 25.1429C737.681 25.7772 737.881 26.3718 738.001 26.9267C738.28 25.7772 738.54 24.6475 738.78 23.5376C739.019 22.4277 739.259 21.3772 739.499 20.3863C739.898 18.9196 740.317 17.3341 740.757 15.6296C741.156 14.1629 741.615 12.4783 742.135 10.5756C742.654 8.67294 743.233 6.67117 743.872 4.57031C744.271 4.2532 744.651 4.01536 745.01 3.85681C745.37 3.69825 745.709 3.57933 746.029 3.50005C746.388 3.38114 746.728 3.32168 747.047 3.32168C747.447 3.32168 747.806 3.38114 748.126 3.50005C748.445 3.57933 748.705 3.83699 748.905 4.27302C749.144 4.6694 749.304 5.28381 749.384 6.11623C749.464 6.94865 749.464 8.07836 749.384 9.50536C749.304 11.2495 748.985 13.1522 748.425 15.2134C747.906 17.2746 747.207 19.4151 746.328 21.6349C745.45 23.815 744.431 26.015 743.273 28.2348C742.155 30.4149 740.936 32.496 739.618 34.4779ZM736.084 35.2509C736.243 34.4978 736.383 33.7446 736.503 32.9915C736.663 32.2383 736.843 31.4654 737.042 30.6726C736.962 30.7122 736.882 30.7519 736.803 30.7915C736.763 30.8311 736.703 30.8708 736.623 30.9104C736.183 31.1086 735.884 31.1086 735.724 30.9104C735.564 30.6726 735.485 30.3158 735.485 29.8402C735.485 29.6023 735.465 29.1861 735.425 28.5915C735.385 27.9573 735.265 27.3231 735.065 26.6889C734.905 26.015 734.646 25.4402 734.286 24.9646C733.927 24.4493 733.428 24.1916 732.789 24.1916C731.87 24.1916 730.931 24.6673 729.973 25.6186C729.014 26.5303 728.115 27.66 727.277 29.0077C726.438 30.3158 725.739 31.723 725.18 33.2293C724.621 34.7356 724.301 36.0833 724.221 37.2725C724.141 39.1752 724.381 40.5427 724.94 41.3751C725.499 42.2075 726.258 42.6237 727.217 42.6237C727.936 42.6237 728.715 42.3463 729.553 41.7913C730.432 41.2364 731.271 40.5625 732.07 39.7697C732.908 38.977 733.667 38.1644 734.346 37.3319C735.065 36.4995 735.644 35.8058 736.084 35.2509Z" fill="white"/>
<path d="M766.039 54.3371C765.84 55.2884 765.58 56.4776 765.26 57.9046C764.981 59.3316 764.641 60.8379 764.242 62.4234C763.882 64.009 763.443 65.5747 762.924 67.1207C762.445 68.7062 761.905 70.1134 761.306 71.3422C760.707 72.6106 760.048 73.6413 759.329 74.434C758.61 75.2268 757.811 75.6232 756.933 75.6232C755.615 75.6232 754.476 75.2268 753.518 74.434C752.599 73.6809 751.82 72.7098 751.181 71.5206C750.542 70.371 750.083 69.1224 749.803 67.7747C749.484 66.427 749.324 65.1783 749.324 64.0288C749.324 62.4432 749.464 61.1153 749.743 60.0451C750.023 59.0145 750.502 58.0235 751.181 57.0722C751.9 56.1208 752.859 55.11 754.057 54.0398C755.255 52.9695 756.793 51.6416 758.67 50.0561C759.589 49.2633 760.468 48.5101 761.306 47.7966C762.145 47.0831 762.944 46.4291 763.703 45.8345C763.902 45.0417 764.082 44.3084 764.242 43.6345C764.442 42.921 764.601 42.2868 764.721 41.7319C763.683 43.1192 762.425 44.2886 760.947 45.2399C759.509 46.1913 757.851 46.6669 755.974 46.6669C754.257 46.6669 752.859 45.9138 751.78 44.4075C750.742 42.8616 750.223 40.6022 750.223 37.6292C750.223 36.1626 750.502 34.4779 751.061 32.5753C751.621 30.6726 752.419 28.8888 753.458 27.224C754.496 25.5592 755.774 24.152 757.292 23.0024C758.81 21.8529 760.507 21.2781 762.385 21.2781C763.263 21.2781 764.022 21.4962 764.661 21.9322C765.3 22.3682 765.84 22.9232 766.279 23.597C766.718 24.2313 767.058 24.9249 767.297 25.6781C767.537 26.3916 767.717 27.0654 767.837 27.6997C767.916 27.4618 767.976 27.224 768.016 26.9862C768.056 26.7087 768.116 26.4709 768.196 26.2727C768.595 24.9249 769.035 24.0132 769.514 23.5376C770.033 23.0223 770.792 22.7646 771.791 22.7646C772.35 22.7646 772.809 22.8637 773.169 23.0619C773.568 23.2601 773.768 23.4385 773.768 23.597C773.568 24.0331 773.408 24.37 773.289 24.6078C773.169 24.8457 773.049 25.1033 772.929 25.3808C772.809 25.6186 772.689 25.9357 772.57 26.3321C772.45 26.7285 772.29 27.3033 772.09 28.0564C772.01 28.3339 771.851 28.9879 771.611 30.0185C771.411 31.0095 771.132 32.1987 770.772 33.5861C770.453 34.9734 770.093 36.4995 769.694 38.1644C769.334 39.8292 768.975 41.4544 768.615 43.04C769.734 42.4057 770.892 41.6328 772.09 40.7211C773.289 39.8094 774.427 38.8779 775.505 37.9265C776.584 36.9752 777.542 36.0833 778.381 35.2509C779.22 34.3788 779.839 33.6653 780.238 33.1104C780.558 32.6347 780.917 32.2978 781.317 32.0996C781.716 31.9014 782.056 31.8419 782.335 31.9212C782.655 31.9609 782.834 32.1392 782.874 32.4563C782.954 32.7338 782.834 33.1302 782.515 33.6455C781.596 35.1122 780.478 36.5392 779.16 37.9265C777.842 39.2743 776.484 40.5427 775.086 41.7319C773.728 42.8814 772.39 43.912 771.072 44.8237C769.794 45.6958 768.695 46.4093 767.777 46.9642C767.377 48.748 767.038 50.1948 766.758 51.3047C766.479 52.4146 766.239 53.4254 766.039 54.3371ZM758.49 42.6237C759.329 42.6237 760.108 42.4057 760.827 41.9697C761.586 41.5337 762.265 41.0382 762.864 40.4832C763.463 39.8887 763.962 39.2941 764.362 38.6995C764.761 38.1049 765.061 37.6292 765.26 37.2725C765.42 36.9157 765.6 36.4401 765.8 35.8455C766.039 35.2509 766.219 34.6761 766.339 34.1212C766.459 33.5662 766.499 33.0707 766.459 32.6347C766.459 32.1987 766.319 31.9609 766.039 31.9212C765.8 31.8816 765.6 31.723 765.44 31.4456C765.32 31.1681 765.22 30.851 765.141 30.4942C765.061 30.1375 765.001 29.7807 764.961 29.424C764.961 29.0672 764.941 28.7501 764.901 28.4726C764.701 27.0853 764.362 26.0745 763.882 25.4402C763.403 24.806 762.864 24.4889 762.265 24.4889C761.266 24.4889 760.308 24.8853 759.389 25.6781C758.51 26.4709 757.712 27.5015 756.993 28.7699C756.314 29.9987 755.774 31.3663 755.375 32.8726C754.976 34.3392 754.776 35.7464 754.776 37.0941C754.776 38.7589 755.016 40.1067 755.495 41.1373C755.974 42.1283 756.973 42.6237 758.49 42.6237ZM755.735 70.2125C756.533 70.2125 757.172 69.6179 757.652 68.4287C758.171 67.2792 758.71 65.6936 759.269 63.6721C759.389 63.1964 759.549 62.5027 759.749 61.591C759.988 60.7189 760.248 59.7082 760.527 58.5586C760.847 57.4091 761.167 56.1605 761.486 54.8127C761.806 53.5047 762.145 52.1767 762.505 50.829C762.185 51.1065 761.846 51.384 761.486 51.6614C761.167 51.9786 760.827 52.3353 760.468 52.7317C759.589 53.5641 758.73 54.3569 757.891 55.11C757.093 55.9028 756.374 56.7154 755.735 57.5478C755.096 58.4199 754.576 59.3514 754.177 60.3424C753.817 61.3334 753.638 62.4829 753.638 63.791C753.638 65.0991 753.678 66.1693 753.757 67.0017C753.877 67.8342 754.017 68.4882 754.177 68.9639C754.377 69.4395 754.596 69.7566 754.836 69.9152C755.115 70.1134 755.415 70.2125 755.735 70.2125Z" fill="white"/>
<path d="M805.581 33.4671C804.382 35.2113 803.024 36.9157 801.507 38.5806C799.989 40.2058 798.371 41.6724 796.654 42.9805C794.976 44.2489 793.239 45.2796 791.442 46.0723C789.684 46.8651 787.967 47.2615 786.289 47.2615C785.411 47.2615 784.452 47.0435 783.414 46.6075C782.415 46.2111 781.496 45.5769 780.658 44.7048C779.819 43.8327 779.14 42.703 778.621 41.3157C778.141 39.9283 778.002 38.2436 778.201 36.2617C778.361 34.6365 778.86 32.932 779.699 31.1483C780.578 29.3249 781.636 27.66 782.874 26.1537C784.152 24.6475 785.57 23.3988 787.128 22.4079C788.726 21.4169 790.323 20.9214 791.921 20.9214C793.439 20.9214 794.537 21.298 795.216 22.0511C795.895 22.8042 796.195 23.7358 796.115 24.8457C795.995 26.0745 795.635 27.2042 795.036 28.2348C794.477 29.2654 793.798 30.1969 792.999 31.0293C792.2 31.8618 791.342 32.6149 790.423 33.2888C789.544 33.9626 788.706 34.577 787.907 35.132C787.028 35.7266 786.189 36.3013 785.391 36.8563C784.592 37.3716 783.893 37.8472 783.294 38.2833C783.334 39.2743 783.513 40.1067 783.833 40.7805C784.152 41.4544 784.552 42.0093 785.031 42.4454C785.51 42.8418 786.05 43.1391 786.649 43.3372C787.288 43.4958 787.927 43.5751 788.566 43.5751C789.924 43.5751 791.342 43.1589 792.82 42.3265C794.297 41.4544 795.735 40.4238 797.133 39.2346C798.571 38.0058 799.889 36.7374 801.087 35.4293C802.326 34.1212 803.344 32.9915 804.143 32.0401C804.422 31.723 804.702 31.5446 804.982 31.505C805.301 31.4257 805.541 31.4654 805.7 31.6239C805.9 31.7428 806 31.9807 806 32.3374C806 32.6545 805.86 33.0311 805.581 33.4671ZM790.243 24.3105C789.764 24.3105 789.185 24.5484 788.506 25.024C787.867 25.4997 787.228 26.1934 786.589 27.1051C785.95 27.9771 785.351 29.0672 784.791 30.3753C784.232 31.6437 783.813 33.1104 783.533 34.7752C784.013 34.4185 784.532 34.0617 785.091 33.705C785.65 33.3086 786.209 32.8924 786.769 32.4563C788.486 31.1483 789.684 29.9987 790.363 29.0077C791.042 28.0168 791.422 27.1645 791.501 26.451C791.581 25.6979 791.501 25.1628 791.262 24.8457C791.022 24.4889 790.683 24.3105 790.243 24.3105Z" fill="white"/>
</svg>
