<svg width="196" height="152" viewBox="0 0 196 152" fill="none" xmlns="http://www.w3.org/2000/svg">
<g clip-path="url(#clip0)">
<path d="M57.1491 0L25.9966 16.859C26.5293 17.7752 26.8725 18.789 27.0058 19.8403C27.1392 20.8915 27.06 21.9588 26.773 22.9789C26.4859 23.999 25.9968 24.9511 25.3347 25.7789C24.6726 26.6067 23.8509 27.2932 22.9183 27.7979C21.9858 28.3026 20.9613 28.6151 19.9056 28.717C18.8499 28.8188 17.7845 28.7079 16.7725 28.3909C15.7605 28.0738 14.8226 27.557 14.0141 26.8711C13.2057 26.1851 12.5433 25.3441 12.0662 24.3977L1.44411 30.1461L28.9587 80.898L84.6637 50.7519L57.1491 0Z" fill="#F95252"/>
<path d="M18.6701 27.2605C22.222 27.2605 25.1013 24.3838 25.1013 20.8351C25.1013 17.2864 22.222 14.4097 18.6701 14.4097C15.1183 14.4097 12.239 17.2864 12.239 20.8351C12.239 24.3838 15.1183 27.2605 18.6701 27.2605Z" fill="#004897"/>
<path d="M135.374 135.867L169.056 124.89C168.697 123.893 168.543 122.834 168.601 121.776C168.659 120.717 168.93 119.682 169.396 118.73C169.862 117.778 170.515 116.93 171.315 116.235C172.116 115.54 173.048 115.012 174.056 114.684C175.065 114.355 176.129 114.232 177.185 114.322C178.242 114.412 179.27 114.712 180.208 115.206C181.147 115.7 181.976 116.378 182.648 117.198C183.319 118.018 183.819 118.964 184.118 119.981L195.603 116.238L177.688 61.365L117.459 80.9934L135.374 135.867Z" fill="#F95252"/>
<path d="M176.98 128.722C180.532 128.722 183.411 125.846 183.411 122.297C183.411 118.748 180.532 115.872 176.98 115.872C173.428 115.872 170.549 118.748 170.549 122.297C170.549 125.846 173.428 128.722 176.98 128.722Z" fill="#004897"/>
<path d="M178.307 30.1043H22.7941V100.693H178.307V30.1043Z" fill="#3F3D56"/>
<path d="M175.741 32.6676H25.3596V96.7497H175.741V32.6676Z" fill="white"/>
<path d="M160.447 93.6934H145.843V98.6228H160.447V93.6934Z" fill="#3F3D56"/>
<path d="M145.053 97.4398H134.396V98.82H145.053V97.4398Z" fill="#004897"/>
<path d="M37.5954 56.9203H95.0246L103.928 61.254L118.115 68.1593L127.39 50.8079H153.638" stroke="#3F3D56" stroke-width="2" stroke-miterlimit="10"/>
<path d="M60.1773 56.9203L64.4352 66.9763H74.8948" stroke="#3F3D56" stroke-width="2" stroke-miterlimit="10"/>
<path d="M76.1395 56.9203L90.6829 49.0333H100.945" stroke="#3F3D56" stroke-width="2" stroke-miterlimit="10"/>
<path d="M60.0934 58.6948C61.0744 58.6948 61.8696 57.9003 61.8696 56.9202C61.8696 55.9401 61.0744 55.1456 60.0934 55.1456C59.1125 55.1456 58.3173 55.9401 58.3173 56.9202C58.3173 57.9003 59.1125 58.6948 60.0934 58.6948Z" fill="#004897"/>
<path d="M76.6709 58.6948C77.6519 58.6948 78.4471 57.9003 78.4471 56.9202C78.4471 55.9401 77.6519 55.1456 76.6709 55.1456C75.69 55.1456 74.8948 55.9401 74.8948 56.9202C74.8948 57.9003 75.69 58.6948 76.6709 58.6948Z" fill="#004897"/>
<path d="M103.905 61.2581L105.09 78.8067H115.352" stroke="#3F3D56" stroke-width="2" stroke-miterlimit="10"/>
<path d="M123.67 57.7668L112.391 49.0333H123.048" stroke="#3F3D56" stroke-width="2" stroke-miterlimit="10"/>
<path d="M142.3 50.8079L153.243 59.4836H163.505" stroke="#3F3D56" stroke-width="2" stroke-miterlimit="10"/>
<path d="M103.905 63.0327C104.886 63.0327 105.682 62.2382 105.682 61.2581C105.682 60.278 104.886 59.4835 103.905 59.4835C102.924 59.4835 102.129 60.278 102.129 61.2581C102.129 62.2382 102.924 63.0327 103.905 63.0327Z" fill="#004897"/>
<path d="M142.191 52.5824C143.172 52.5824 143.968 51.7879 143.968 50.8078C143.968 49.8277 143.172 49.0332 142.191 49.0332C141.211 49.0332 140.415 49.8277 140.415 50.8078C140.415 51.7879 141.211 52.5824 142.191 52.5824Z" fill="#004897"/>
<path d="M123.641 59.4835C124.621 59.4835 125.417 58.689 125.417 57.7089C125.417 56.7288 124.621 55.9343 123.641 55.9343C122.66 55.9343 121.864 56.7288 121.864 57.7089C121.864 58.689 122.66 59.4835 123.641 59.4835Z" fill="#004897"/>
<path d="M64.6325 68.5535H74.8948" stroke="#3F3D56" stroke-width="2" stroke-miterlimit="10"/>
<path d="M159.764 17.8021C161.372 17.8021 162.676 16.4995 162.676 14.8927C162.676 13.2858 161.372 11.9832 159.764 11.9832C158.156 11.9832 156.852 13.2858 156.852 14.8927C156.852 16.4995 158.156 17.8021 159.764 17.8021Z" stroke="#3F3D56" stroke-width="2" stroke-miterlimit="10"/>
<path d="M29.9974 151.86C46.5645 151.86 59.9948 149.389 59.9948 146.339C59.9948 143.29 46.5645 140.818 29.9974 140.818C13.4303 140.818 0 143.29 0 146.339C0 149.389 13.4303 151.86 29.9974 151.86Z" fill="#F2F2F2"/>
<path d="M50.5987 97.3373L45.2471 100.035L45.5935 100.724L50.9448 98.0265L50.5987 97.3373Z" fill="#004897"/>
<path d="M49.7286 92.3199L49.4882 93.7611C49.4882 93.7611 49.8488 103.73 47.2042 100.607C44.5596 97.4843 46.3627 93.2807 46.3627 93.2807L47.084 92.0797L49.7286 92.3199Z" fill="#FBBEBE"/>
<path d="M34.3417 46.2003C34.3417 46.2003 33.8609 51.2446 33.6205 51.4848C33.38 51.7251 37.2268 56.289 37.2268 56.289L40.5926 53.1663C40.5926 53.1663 40.3522 48.6024 41.0735 47.6416C41.7947 46.6807 34.3417 46.2003 34.3417 46.2003Z" fill="#FBBEBE"/>
<path opacity="0.1" d="M34.3417 46.2003C34.3417 46.2003 33.8609 51.2446 33.6205 51.4848C33.38 51.7251 37.2268 56.289 37.2268 56.289L40.5926 53.1663C40.5926 53.1663 40.3522 48.6024 41.0735 47.6416C41.7947 46.6807 34.3417 46.2003 34.3417 46.2003Z" fill="black"/>
<path d="M25.4463 138.199V142.523L23.7632 142.763L21.3591 142.043L22.0802 137.479L25.4463 138.199Z" fill="#3F3D56"/>
<path d="M23.2824 140.361C23.2824 140.361 22.5611 138.439 21.359 138.68C20.1569 138.92 19.9165 140.361 19.9165 140.361C19.9165 140.361 18.9548 143.964 17.5123 145.165C16.0698 146.366 14.6273 149.489 17.5123 149.969C20.3974 150.45 22.8016 149.249 22.8016 149.008C22.8016 148.768 23.5228 147.327 24.7249 147.087C25.927 146.847 26.8887 146.606 26.8887 145.646C26.8887 144.685 26.1674 143.724 26.1674 143.724C26.1674 143.724 25.927 139.168 25.4462 139.764C25.1136 140.236 24.8693 140.763 24.7249 141.322L23.2824 140.361Z" fill="#2F2E41"/>
<path d="M35.7843 136.037L34.8226 139.64L37.2267 140.121L38.4288 138.92L38.6692 135.797L35.7843 136.037Z" fill="#3F3D56"/>
<path d="M35.5438 139.16C35.5438 139.16 36.5055 138.439 36.9863 138.439H37.7076C37.7076 138.439 37.7076 136.758 38.9097 136.758C40.1118 136.758 39.8714 137.959 39.8714 137.959C39.8714 137.959 42.516 142.042 43.2373 142.763C43.9585 143.484 47.8052 145.646 44.6798 146.606C41.5543 147.567 39.3905 147.567 37.948 145.886C37.948 145.886 36.5055 145.165 35.5438 145.165C34.5821 145.165 33.38 144.685 33.38 143.964C33.38 143.243 34.1013 141.802 34.1013 141.802C34.1013 141.802 34.5821 137.479 34.8226 137.959C35.063 138.439 35.5438 139.16 35.5438 139.16Z" fill="#2F2E41"/>
<path d="M25.2057 80.79V88.7168C25.2057 88.7168 22.5611 104.09 22.5611 109.134C22.5611 114.179 18.474 138.199 20.3973 138.68C22.3207 139.16 26.8887 139.881 27.1291 139.16C27.3695 138.439 29.0525 115.62 29.2929 115.38C29.5333 115.139 34.5821 96.1632 34.5821 96.1632L35.5438 96.4034L36.0246 118.022C36.0246 118.022 33.6204 137.479 34.8225 137.479C36.0246 137.479 41.0735 137.238 41.0735 135.797C41.0735 134.356 43.7181 107.693 43.7181 107.693C43.7181 107.693 46.8435 86.5549 45.6414 84.3931C44.4393 82.2312 44.4393 81.0302 44.4393 81.0302L25.2057 80.79Z" fill="#2F2E41"/>
<path d="M38.3086 49.9235C40.9642 49.9235 43.117 47.7726 43.117 45.1194C43.117 42.4661 40.9642 40.3152 38.3086 40.3152C35.653 40.3152 33.5002 42.4661 33.5002 45.1194C33.5002 47.7726 35.653 49.9235 38.3086 49.9235Z" fill="#FBBEBE"/>
<path d="M37.2268 53.4064C37.2268 53.4064 34.2215 50.8843 33.9811 49.9235C33.9811 49.9235 32.4184 51.4848 32.4184 51.725C32.4184 51.9652 25.6866 52.6858 24.0037 54.6075C22.3207 56.5291 20.8782 60.6126 20.8782 60.6126L24.9653 68.2992C24.9653 68.2992 25.2058 72.6229 25.2058 73.1033C25.2058 73.5837 24.0037 81.2704 24.4845 81.5106C24.9653 81.7508 29.7737 84.1528 33.8609 83.6724C37.948 83.192 42.0352 82.4714 43.2373 82.4714C44.4394 82.4714 45.401 82.9518 45.401 82.4714C45.401 81.991 44.6798 81.0301 44.6798 80.5497C44.6798 80.0693 44.4394 78.8683 44.4394 78.1477C44.4394 77.4271 43.9585 76.226 43.9585 75.2652C43.9585 74.3044 49.2478 61.3332 49.2478 61.3332C49.2478 61.3332 49.0073 57.2497 45.1606 55.3281C41.3139 53.4064 40.8331 52.6858 40.8331 52.6858C40.8331 52.6858 40.7581 51.2446 40.5552 51.2446C40.3522 51.2446 39.631 53.4064 37.7076 53.6467L37.2268 53.4064Z" fill="#D0CDE1"/>
<path d="M24.244 85.354L25.927 87.9962L30.2545 87.0353L27.1291 83.4323L24.244 85.354Z" fill="#FBBEBE"/>
<path d="M47.8052 59.4116L49.2477 61.3333C49.2477 61.3333 52.1328 75.2652 51.6519 80.3096C51.1711 85.3539 50.6903 89.1972 50.6903 89.1972C50.6903 89.1972 51.6519 92.8003 50.9307 92.8003C50.2094 92.8003 45.8819 93.0405 45.8819 92.3199C45.8819 91.5992 46.3627 87.0353 46.3627 87.0353L45.1606 76.4663L42.516 72.8632L47.8052 59.4116Z" fill="#D0CDE1"/>
<path d="M35.0427 42.787C35.3375 42.6622 35.6782 42.7635 35.9939 42.7102C36.3645 42.6477 36.6962 42.3733 37.0705 42.408C37.2479 42.4408 37.4202 42.4967 37.5831 42.5742C37.6648 42.6126 37.7535 42.6341 37.8437 42.6373C37.934 42.6405 38.0239 42.6255 38.1082 42.593C38.1484 42.5744 38.1839 42.5471 38.2121 42.513C38.2404 42.479 38.2608 42.4391 38.2717 42.3962C38.2826 42.3533 38.2839 42.3086 38.2754 42.2652C38.2668 42.2217 38.2487 42.1808 38.2224 42.1452C38.5391 42.1173 38.8385 41.9886 39.0764 41.7779C39.1238 41.7287 39.1789 41.6875 39.2394 41.6558C39.3099 41.6374 39.3835 41.6337 39.4556 41.6449C39.5276 41.6561 39.5966 41.682 39.6582 41.7209L40.2084 41.9743C40.3323 42.018 40.4413 42.0959 40.5228 42.199C40.5882 42.3009 40.601 42.438 40.6937 42.5161C40.812 42.6157 40.9887 42.5669 41.1431 42.5767C41.2832 42.5903 41.4135 42.6549 41.5092 42.7581C41.6048 42.8613 41.6592 42.996 41.6621 43.1366C41.6599 43.2979 41.6012 43.4958 41.7289 43.5945C41.8029 43.6518 41.9081 43.6426 41.9948 43.6778C42.2197 43.769 42.2206 44.0818 42.1874 44.322C42.1541 44.5622 42.1706 44.8791 42.4017 44.953C42.5645 45.0051 42.7308 44.8941 42.8999 44.8693C43.1549 44.832 43.391 44.9914 43.618 45.1134C43.8451 45.2353 44.1468 45.3176 44.3436 45.1512C44.5267 44.9964 44.515 44.7132 44.4646 44.4789C44.3923 44.1429 44.2736 43.8186 44.1119 43.5153C44.052 43.426 44.0167 43.3226 44.0096 43.2154C44.0233 43.1399 44.0529 43.0682 44.0964 43.005C44.1398 42.9418 44.1962 42.8885 44.2618 42.8486C44.54 42.6289 44.8601 42.4076 44.9501 42.0649C45.0162 41.8134 44.9419 41.5481 44.9476 41.2881C44.9546 40.9717 45.0805 40.6567 45.0215 40.3458C44.9144 39.7822 44.2867 39.511 43.8815 39.1047C43.3246 38.5463 43.1438 37.6532 42.4867 37.2171C41.9609 36.8683 41.2733 36.9099 40.6746 36.7103C40.017 36.491 39.4876 35.9872 38.8389 35.7428C38.4848 35.6124 38.1062 35.5618 37.7302 35.5947C37.3542 35.6277 36.9902 35.7433 36.6643 35.9334C36.4707 36.0768 36.2547 36.1871 36.025 36.2597C35.8315 36.2821 35.636 36.2799 35.4431 36.253C35.0596 36.2332 34.6776 36.312 34.3333 36.4818C34.2015 36.5344 34.0918 36.6306 34.0224 36.7542C33.9062 37.0119 34.075 37.4148 33.8204 37.5381C33.7017 37.5955 33.5615 37.5405 33.4297 37.5434C33.1732 37.549 32.976 37.7719 32.8539 37.9973C32.7588 38.2356 32.6222 38.4552 32.4505 38.646C32.1371 38.9203 31.5676 38.9656 31.4857 39.3738C31.4843 39.5466 31.4941 39.7193 31.5151 39.8908C31.4915 40.2525 31.104 40.5274 31.1242 40.8894C31.1476 41.3068 31.6784 41.5108 31.8203 41.9041C31.9284 42.2037 31.7862 42.5275 31.6884 42.8305C31.5905 43.1335 31.561 43.5218 31.8137 43.7158C31.9128 43.7918 32.0402 43.823 32.1412 43.8964C32.4027 44.0864 32.3994 44.4699 32.3704 44.7916C32.3536 44.8584 32.3535 44.9282 32.3701 44.9951C32.3866 45.0619 32.4194 45.1236 32.4654 45.1749C32.5085 45.201 32.5568 45.2176 32.6069 45.2237C32.657 45.2297 32.7078 45.2249 32.7559 45.2098C32.9129 45.1717 33.0605 45.1021 33.1896 45.005C33.3187 44.908 33.4265 44.7856 33.5066 44.6454C33.5908 44.5063 33.6077 44.3837 33.7607 44.3099C33.8645 44.2598 33.9905 44.3045 34.0962 44.2395C34.5988 43.9303 34.4258 43.0483 35.0427 42.787Z" fill="#2F2E41"/>
<path d="M21.5995 59.892L20.8782 60.6127C20.8782 60.6127 16.5507 73.5838 17.9932 76.4662C19.4357 79.3487 22.3207 86.5549 23.2824 86.3147C24.2441 86.0745 27.61 83.9126 27.61 83.6724C27.61 83.4322 23.5228 76.7065 23.5228 76.7065C23.5228 76.7065 23.042 75.2652 23.2824 75.025C23.5228 74.7848 23.5228 75.025 23.2824 74.5446C23.042 74.0642 23.042 74.5446 23.5228 74.0642C24.0037 73.5838 24.0037 73.5838 24.0037 73.3436C24.0037 73.1034 25.4462 67.0982 25.4462 67.0982L21.5995 59.892Z" fill="#D0CDE1"/>
<path d="M25.3259 88.1162L30.6153 86.4349L31.3364 88.1162L25.5664 89.3172L25.3259 88.1162Z" fill="#2F2E41"/>
<path opacity="0.1" d="M25.3259 88.1162L30.6153 86.4349L31.3364 88.1162L25.5664 89.3172L25.3259 88.1162Z" fill="black"/>
<path opacity="0.1" d="M32.5385 51.8452L36.6256 55.208L37.1066 54.4873L32.5385 51.8452Z" fill="black"/>
<path opacity="0.1" d="M40.7128 52.806L37.8279 54.4873L38.0683 55.208L40.7128 52.806Z" fill="black"/>
</g>
<defs>
<clipPath id="clip0">
<rect width="195.603" height="151.86" fill="white"/>
</clipPath>
</defs>
</svg>
