<svg width="180" height="147" viewBox="0 0 180 147" fill="none" xmlns="http://www.w3.org/2000/svg">
<g clip-path="url(#clip0)">
<path d="M175.625 85.1631C175.625 85.2747 175.625 85.3862 175.625 85.496C175.606 87.4206 175.492 89.3402 175.283 91.255C175.284 91.2666 175.284 91.2782 175.283 91.2898C175.266 91.449 175.248 91.6063 175.23 91.7655C175.199 92.0344 175.166 92.3015 175.129 92.5704C174.702 95.8438 173.996 99.0748 173.018 102.228C171.709 106.489 169.857 110.564 167.509 114.353C166.786 115.512 166.017 116.633 165.2 117.718C164.765 118.292 164.32 118.854 163.86 119.406C163.538 119.793 163.21 120.173 162.875 120.548L162.667 120.778C160.907 122.709 159.011 124.51 156.992 126.168C153.697 128.897 150.15 131.272 146.545 133.475C146.34 133.601 146.133 133.725 145.927 133.84C145.912 133.851 145.897 133.86 145.881 133.868C140.982 136.828 135.903 139.499 130.669 141.637C124.939 143.985 119.023 145.691 112.953 146.438C104.492 147.477 95.9292 146.632 87.5197 145.179C80.5257 143.978 73.6164 142.328 66.8346 140.24L65.718 139.89C65.1396 139.706 64.5617 139.518 63.9845 139.327C60.498 138.174 57.0504 136.894 53.642 135.485C45.0815 131.961 36.9035 127.573 29.2355 122.388C28.2592 121.732 27.2969 121.061 26.3487 120.376C25.0234 119.422 23.714 118.44 22.4204 117.43L21.6223 116.812C18.237 114.163 15.0653 111.252 12.1364 108.106C8.19714 103.821 4.83078 98.988 2.61767 93.4705C2.26865 92.6033 1.94891 91.7197 1.65847 90.8196L1.63101 90.73C1.48457 90.2726 1.34911 89.8153 1.22463 89.3396C1.04158 88.6591 0.881101 87.97 0.743201 87.2724C0.713912 87.1388 0.688285 87.0053 0.664488 86.8699C0.226969 84.5222 0.0337334 82.1355 0.087869 79.748C0.133652 77.6561 0.378831 75.5733 0.820083 73.5279C1.27172 71.4076 1.96769 69.3467 2.89408 67.3865C3.73126 65.6239 4.79794 63.9797 6.06639 62.4965C6.95773 61.4595 7.96014 60.5234 9.05566 59.7048C11.0418 58.2266 13.2439 57.1966 15.5266 56.3825C16.5993 55.9984 17.6866 55.6617 18.7795 55.3489C19.5538 55.1257 20.3317 54.9135 21.1061 54.705L23.3906 54.0884C24.855 53.6896 26.3194 53.2798 27.7619 52.8371C31.6939 51.637 35.5471 50.1845 39.1112 48.0184C39.675 47.6763 40.2498 47.3013 40.8246 46.8988C41.5568 46.3902 42.278 45.8377 42.9919 45.2413C43.7132 44.6376 44.4197 43.9918 45.0934 43.3076C45.1977 43.2015 45.3002 43.0954 45.4027 42.9875C45.9519 42.4094 46.4846 41.8038 46.9788 41.1745C47.2205 40.8672 47.4548 40.5544 47.6781 40.236C47.9875 39.7951 48.2803 39.3469 48.5513 38.8859C49.9095 36.5808 50.7479 34.0379 50.6491 31.3578C50.6346 30.9163 50.5949 30.4759 50.5301 30.0388C50.2921 28.4234 50.0633 26.8465 49.8949 25.3043C49.1883 18.9251 49.4867 13.1404 54.2772 7.7052C60.2337 0.949132 69.5823 -0.428425 78.0924 0.111255C102.697 1.66627 125.095 15.7053 144.779 32.4189C146.481 33.8629 148.163 35.3265 149.824 36.8095C150.242 37.1827 150.662 37.5584 151.081 37.9364C154.193 40.7373 157.258 43.6424 160.111 46.7543C160.342 47.0067 160.573 47.2592 160.8 47.5135C160.939 47.6708 161.08 47.8263 161.217 47.9855C162.107 48.9917 162.97 50.0222 163.807 51.0772C166.05 53.8779 168.03 56.8786 169.723 60.0414C172.316 65.005 174.071 70.3622 174.919 75.897C175.237 77.907 175.447 79.9327 175.546 81.9652C175.578 82.5634 175.598 83.1635 175.609 83.7617C175.609 83.9538 175.609 84.1441 175.609 84.3362C175.627 84.6142 175.627 84.885 175.625 85.1631Z" fill="#F95252"/>
<path d="M72.198 82.0936L69.2692 134.194L72.198 134.232L74.5777 81.3618L72.198 82.0936Z" fill="#3F3D56"/>
<path d="M61.3978 108.49H25.1533V116.357H61.3978V108.49Z" fill="#004897"/>
<path d="M63.7775 115.44V120.38H26.3376C25.0123 119.426 23.7029 118.444 22.4093 117.434V115.44H63.7775Z" fill="#3F3D56"/>
<path d="M71.2535 104.199C71.151 104.672 71.0173 105.141 70.8764 105.607C70.4608 106.955 69.9611 108.285 69.8641 109.687C69.7341 111.538 70.2302 113.691 68.9488 115.036C68.6193 115.384 68.1891 115.643 67.8944 116.015C67.849 116.073 67.8075 116.134 67.77 116.198C67.5064 116.633 67.4752 117.164 67.4716 117.661C67.4747 118.723 67.5437 119.783 67.6784 120.835C68.1123 124.458 68.969 128.087 67.8432 131.506C67.6392 132.099 67.4014 132.68 67.1311 133.246C66.5819 134.454 65.9834 135.644 65.804 136.953C65.6722 137.922 65.7124 138.921 65.7051 139.907C65.1267 139.723 64.5488 139.535 63.9716 139.344C60.485 138.191 57.0375 136.91 53.6291 135.502C53.6382 135.452 53.6474 135.401 53.6547 135.352C53.9165 133.724 53.5577 132.059 53.122 130.471C52.2068 127.107 50.9107 123.775 50.1437 120.387C49.8349 119.064 49.6322 117.718 49.5378 116.362C49.5159 116.059 49.5031 115.753 49.5012 115.448C49.4921 115.049 49.5012 114.65 49.5177 114.248C49.5561 113.444 49.5909 112.491 48.9484 112.003C48.5951 111.738 48.1283 111.692 47.7165 111.531C46.922 111.222 46.3783 110.505 45.7486 109.93C45.4483 109.639 45.0815 109.425 44.68 109.307C44.2785 109.189 43.8543 109.171 43.444 109.253C39.3289 110.195 36.3049 113.684 32.4754 115.448C32.3271 115.517 32.1789 115.583 32.0288 115.645C31.5334 115.827 31.0619 116.067 30.6248 116.362C30.3175 116.575 30.0947 116.889 29.995 117.25C29.898 117.637 29.9822 118.044 30.0298 118.442C30.1069 119.091 30.0791 119.747 29.9475 120.387C29.8978 120.635 29.8324 120.879 29.7516 121.119C29.6051 121.552 29.4093 121.977 29.2226 122.399C28.2463 121.743 27.284 121.073 26.3358 120.387C25.0105 119.433 23.7011 118.452 22.4075 117.442L21.6222 116.811C18.2369 114.161 15.0652 111.25 12.1364 108.104C12.5263 107.007 13.0901 105.986 13.361 104.861C13.5147 104.215 13.5715 103.544 13.7838 102.916C14.0287 102.266 14.3693 101.655 14.7943 101.105C16.3509 98.9355 18.2516 97.0347 20.4214 95.4776C22.6894 93.8531 25.3089 92.5506 27.3499 90.7065C28.1782 89.9818 28.8922 89.1362 29.4679 88.1984C29.5026 88.1416 29.5356 88.0813 29.5649 88.0154C29.7242 87.6843 29.8346 87.3318 29.8925 86.969C30.039 86.1494 30.017 85.2493 30.0902 84.4627C32.5766 84.8928 35.1114 84.9692 37.6192 84.6895C40.5389 84.3621 43.3946 83.5516 46.3143 83.237C46.5339 83.2113 46.7554 83.1912 46.9769 83.1729C47.9123 83.0979 48.8495 83.0815 49.7886 83.0924C50.5739 83.0924 51.3592 83.1272 52.1445 83.1528L60.7901 83.4455C61.7475 83.4784 62.725 83.515 63.6165 83.8645C64.6745 84.2797 65.5221 85.1066 66.2012 86.0159C66.2872 86.1329 66.3733 86.25 66.4538 86.3708C67.0126 87.1855 67.4608 88.0707 67.7864 89.0033C67.8212 89.0984 67.8542 89.1862 67.8853 89.2905C67.9677 89.5448 68.039 89.8009 68.1031 90.0607C68.1525 90.2638 68.1965 90.4668 68.2367 90.6717C68.4381 91.6852 68.5571 92.7207 68.8756 93.6994C68.8976 93.7708 68.9214 93.8421 68.947 93.9117C69.3296 94.9837 69.9648 95.9441 70.4444 96.9741C70.7902 97.7197 71.0541 98.5005 71.2315 99.303C71.59 100.914 71.5975 102.584 71.2535 104.199Z" fill="#35323E"/>
<path d="M44.9743 38.7289C44.2018 38.1142 43.0815 38.5643 42.1772 38.9613C41.4191 39.2959 40.6386 39.5777 39.8415 39.8046C39.6784 39.8674 39.5015 39.8857 39.3289 39.8577C38.9628 39.7699 38.8091 39.3363 38.5363 39.0729C38.0622 38.6173 37.2861 38.7253 36.6747 38.9722C36.0633 39.2192 35.4592 39.5759 34.8039 39.5211C34.1046 39.4662 33.4969 38.9503 32.7903 38.9338C31.5455 38.9045 30.5003 40.4376 29.3232 40.0315C28.6057 39.7845 28.0419 38.8515 27.3353 39.1168C26.7861 39.3253 26.7367 40.0845 26.4054 40.5803C26.0155 41.1584 25.2558 41.3212 24.6059 41.5773C22.5576 42.3859 21.2011 44.6672 21.4684 46.8516C21.6167 48.0572 22.2006 49.1621 22.5869 50.3128C23.7328 53.6589 23.3392 57.433 24.7835 60.6601C24.9666 60.4881 25.0691 60.4241 25.2466 60.2539C24.79 61.2005 24.7019 62.2829 24.9995 63.2908C25.1514 63.7975 25.3986 64.2695 25.5853 64.7653C25.7792 65.3214 25.9358 65.8897 26.0539 66.4667L27.6465 73.488C28.2688 76.2321 28.8931 78.9763 29.0011 81.7863C29.0683 83.6134 28.9283 85.4423 28.5837 87.238C31.4686 86.7605 34.1083 85.4817 37.0316 85.4982C38.1043 85.4982 39.1678 85.6811 40.2314 85.8275C43.3322 86.2611 46.4599 86.4733 49.5909 86.4623C50.0779 86.49 50.5655 86.4216 51.026 86.261C51.4288 86.0891 51.7583 85.7836 52.139 85.5622C52.884 85.1231 53.7865 85.0134 54.645 85.0134C58.5605 84.942 62.3333 86.3745 66.2231 86.8794C67.759 83.6578 67.8505 79.7977 66.6716 76.4297C66.322 75.429 65.8515 74.4539 65.7124 73.402C65.6566 72.7554 65.6419 72.1058 65.6685 71.4573C65.6624 69.7971 65.3631 68.151 64.7843 66.5947C64.5574 65.9855 64.2846 65.3654 64.3084 64.7159C64.3322 64.0665 64.6525 63.4609 64.9674 62.8865C65.6063 61.7156 66.2488 60.5338 67.1512 59.546C68.0756 58.5251 69.2325 57.7476 70.3766 56.9848L73.2011 55.0895C72.8149 52.6508 72.317 50.0823 71.2827 47.8395C70.2485 45.5966 68.7017 43.5348 66.6094 42.2231C65.904 41.799 65.1657 41.432 64.4018 41.1255C63.3327 40.6754 62.2198 40.2784 61.061 40.2108C59.7431 40.1358 58.4452 40.4888 57.1437 40.7084C53.047 41.3981 48.2253 41.3139 44.9743 38.7289Z" fill="#004897"/>
<path d="M75.8591 81.0472L74.5154 82.7431L71.982 85.9391L69.0531 89.6327L68.2349 90.6645H66.6478L27.3481 90.7102L2.73653 90.7376H1.63821C1.49177 90.2803 1.35631 89.8229 1.23183 89.3473C1.04878 88.6667 0.888305 87.9777 0.750405 87.28C0.721116 87.1465 0.695489 87.0129 0.671692 86.8776L9.60104 81.0435L12.9582 81.0252L23.2275 80.9667L28.9626 80.9338H30.0097H30.6668L34.489 80.9136L63.6201 80.7472L65.1102 80.738H65.7563L67.4679 80.7289L73.8363 80.6923L75.0591 80.2276L75.1488 80.3227L75.8591 81.0472Z" fill="#3F3D56"/>
<path d="M75.3099 80.1325L75.158 80.3154L74.1585 81.4917L72.101 83.9194L67.7864 89.0033L29.5648 88.0283L0.743078 87.2965C0.71379 87.1629 0.688162 87.0294 0.664365 86.894C0.226847 84.5463 0.0336113 82.1596 0.0877469 79.7721L3.28386 78.1366L4.01607 77.7597L9.71453 74.8326L14.7155 72.2714L27.7599 73.9655L30.6485 74.3405L31.9555 74.5088L33.8684 74.7576L34.0295 74.7796L64.0265 78.6671L67.3416 79.097L69.2874 79.3495L75.2843 80.1288L75.3099 80.1325Z" fill="#504F60"/>
<path d="M69.0861 88.9138L69.055 89.6327L68.8719 93.6922L67.8871 116.011L67.6784 120.835L67.1292 133.246L66.8199 140.257L65.7032 139.907C65.1248 139.723 64.547 139.535 63.9697 139.344L66.6478 90.681L66.7045 89.6602L67.8834 89.2943L69.0861 88.9138Z" fill="#3F3D56"/>
<path d="M2.82077 88.8607L2.7384 90.7395L2.61758 93.4836C2.26856 92.6165 1.94883 91.7329 1.65839 90.8328L1.63093 90.7431C1.48448 90.2858 1.34902 89.8284 1.22455 89.3528L2.82077 88.8607Z" fill="#3F3D56"/>
<path d="M50.6893 61.1998C55.3397 61.1998 59.1097 56.1216 59.1097 49.8573C59.1097 43.5931 55.3397 38.5149 50.6893 38.5149C46.0388 38.5149 42.2688 43.5931 42.2688 49.8573C42.2688 56.1216 46.0388 61.1998 50.6893 61.1998Z" fill="#A1616A"/>
<path opacity="0.1" d="M50.6893 61.1998C55.3397 61.1998 59.1097 56.1216 59.1097 49.8573C59.1097 43.5931 55.3397 38.5149 50.6893 38.5149C46.0388 38.5149 42.2688 43.5931 42.2688 49.8573C42.2688 56.1216 46.0388 61.1998 50.6893 61.1998Z" fill="black"/>
<path d="M51.8791 54.7053C58.3494 54.7053 63.5945 49.4633 63.5945 42.997C63.5945 36.5306 58.3494 31.2886 51.8791 31.2886C45.4089 31.2886 40.1637 36.5306 40.1637 42.997C40.1637 49.4633 45.4089 54.7053 51.8791 54.7053Z" fill="#A1616A"/>
<path d="M52.1115 24.9515C51.3963 25.0085 50.6861 25.1167 49.9863 25.2753C48.1338 25.7254 46.5321 26.7243 44.9725 27.7048C44.2732 28.1457 43.5538 28.6049 43.12 29.2525C42.3402 30.4142 42.6422 31.8924 42.2047 33.1821C41.9777 33.8444 41.5603 34.4389 41.2071 35.0555C40.235 36.7458 39.7262 38.6027 39.2264 40.4413C39.1239 40.8218 39.0946 41.3377 39.5101 41.4841C39.7494 41.5337 39.9983 41.5055 40.2204 41.4036C41.5329 40.97 43.2005 40.8456 44.1743 41.7255C45.1482 42.6055 45.0658 44.166 46.2246 44.8356C47.5517 45.6094 49.6239 44.6746 50.8283 45.5874C51.3446 45.9789 51.5313 46.6064 51.9541 47.0784C52.9389 48.1761 54.8336 48.123 56.4096 47.9017C57.3139 47.7736 58.4232 47.6876 58.9724 48.3224C59.236 48.6225 59.311 49.0341 59.6167 49.3048C60.1659 49.7951 61.1709 49.5463 61.7072 49.0432C62.2436 48.5401 62.4998 47.8596 62.9465 47.2943C63.816 46.1966 65.3445 45.5984 66.2414 44.5136C66.992 43.5989 67.219 42.4536 67.424 41.3487L68.1873 37.2526C68.4967 35.5915 68.7786 33.7767 67.8432 32.3131C67.51 31.7863 67.0322 31.3326 66.7448 30.7874C66.5526 30.4215 66.4446 30.0355 66.2213 29.6898C65.9565 29.3296 65.6401 29.0103 65.2822 28.7421L63.4755 27.2475C62.8578 26.7071 62.1972 26.2176 61.5004 25.7839C58.9211 24.282 55.0587 24.6771 52.1115 24.9515Z" fill="#464353"/>
<path d="M13.5239 55.1114C13.09 55.5725 12.6891 56.0701 12.2242 56.5018C11.8152 56.8653 11.3875 57.2073 10.9428 57.5263C10.2252 58.0629 9.52354 58.6185 8.8377 59.1929C8.12218 59.7583 7.47472 60.4047 6.90832 61.1193C5.93081 62.431 5.46769 64.0628 4.55242 65.4184C3.74333 66.6204 2.6029 67.5698 1.78099 68.7626C1.42042 69.2641 1.1526 69.8261 0.9902 70.4219C0.868983 70.9986 0.81432 71.5872 0.827282 72.1763C0.810808 73.1423 0.796164 74.1192 0.993862 75.065C1.19156 76.0108 1.6254 76.9401 2.36859 77.5603C3.0587 78.1366 3.95017 78.4019 4.82334 78.6214C5.27365 78.733 5.76057 78.8373 6.18892 78.6598C6.50236 78.5016 6.77442 78.2723 6.98337 77.9902L9.21113 75.429C10.7012 73.7094 12.2498 71.9531 14.2945 70.9469C14.9352 70.6341 15.6107 70.3981 16.2532 70.0944C18.977 68.7827 20.9028 66.0971 21.6496 63.1701C21.8327 62.4548 21.9498 61.7248 22.0688 60.9949L22.391 58.9935C22.4157 58.8931 22.4157 58.7883 22.391 58.688C22.3405 58.5751 22.2593 58.4788 22.1567 58.4099C20.6049 57.1575 19.1521 55.7875 17.811 54.312C17.4925 53.9607 17.1941 53.4796 16.8262 53.1851C16.3649 52.8192 16.3996 52.8466 15.845 53.1851C14.9918 53.725 14.2116 54.3724 13.5239 55.1114Z" fill="#A1616A"/>
<path d="M28.7631 68.4296C28.7446 68.3872 28.7176 68.3488 28.6839 68.317C28.6502 68.2852 28.6104 68.2605 28.5669 68.2444C28.5234 68.2283 28.4771 68.2212 28.4308 68.2235C28.3845 68.2258 28.3391 68.2374 28.2974 68.2576C28.2556 68.2778 28.2184 68.3063 28.188 68.3412C28.1575 68.3762 28.1345 68.4169 28.1202 68.461C28.1059 68.5051 28.1007 68.5517 28.1048 68.5978C28.109 68.644 28.1224 68.6888 28.1444 68.7297L27.9613 68.8193L33.42 80.0007L34.4066 79.5196L28.948 68.3309L28.7631 68.4296Z" fill="#3F3D56"/>
<path opacity="0.04" d="M13.5239 55.1114C13.09 55.5725 12.6891 56.0701 12.2242 56.5018C11.8152 56.8653 11.3875 57.2073 10.9428 57.5263C10.2252 58.0629 9.52354 58.6185 8.8377 59.1929C8.12218 59.7583 7.47472 60.4047 6.90832 61.1193C5.93081 62.431 5.46769 64.0628 4.55242 65.4184C3.74333 66.6204 2.6029 67.5698 1.78099 68.7626C1.42042 69.2641 1.1526 69.8261 0.9902 70.4219C0.868983 70.9986 0.81432 71.5872 0.827282 72.1763C0.810808 73.1423 0.796164 74.1192 0.993862 75.065C1.19156 76.0108 1.6254 76.9401 2.36859 77.5603C3.0587 78.1366 3.95017 78.4019 4.82334 78.6214C5.27365 78.733 5.76057 78.8373 6.18892 78.6598C6.50236 78.5016 6.77442 78.2723 6.98337 77.9902L9.21113 75.429C10.7012 73.7094 12.2498 71.9531 14.2945 70.9469C14.9352 70.6341 15.6107 70.3981 16.2532 70.0944C18.977 68.7827 20.9028 66.0971 21.6496 63.1701C21.8327 62.4548 21.9498 61.7248 22.0688 60.9949L22.391 58.9935C22.4157 58.8931 22.4157 58.7883 22.391 58.688C22.3405 58.5751 22.2593 58.4788 22.1567 58.4099C20.6049 57.1575 19.1521 55.7875 17.811 54.312C17.4925 53.9607 17.1941 53.4796 16.8262 53.1851C16.3649 52.8192 16.3996 52.8466 15.845 53.1851C14.9918 53.725 14.2116 54.3724 13.5239 55.1114Z" fill="black"/>
<path d="M76.6297 75.7181C76.6114 76.8852 76.5657 78.0872 76.0806 79.1519C75.8719 79.6129 75.5479 80.0666 75.0628 80.2184C74.7692 80.2862 74.4654 80.2974 74.1677 80.2514C70.5763 79.9359 66.9575 80.2228 63.4609 81.1002C64.3944 79.2342 63.8581 76.9968 64.1162 74.9259C64.1876 74.3606 64.3176 73.8045 64.367 73.2374C64.55 71.225 63.6879 69.2712 63.2925 67.2844C62.9492 65.5646 62.9492 63.794 63.2925 62.0742C63.3598 61.6315 63.5121 61.206 63.7409 60.8211C64.0091 60.4465 64.3614 60.1401 64.7697 59.9265C66.2524 59.0831 68.0006 58.9861 69.6664 59.0977C70.7885 59.1727 73.0382 59.0666 73.9736 59.7563C74.9969 60.5119 75.3209 63.0493 75.5973 64.222C76.0112 66.0204 76.2926 67.8468 76.4394 69.6864C76.6188 71.6915 76.6572 73.7057 76.6297 75.7181Z" fill="#A1616A"/>
<path d="M11.0582 79.7684L17.6481 84.159L47.3027 83.0613L27.716 79.7684H11.0582Z" fill="white"/>
<path d="M19.7477 44.8831C18.6659 45.8363 17.7488 46.9595 16.7237 47.9749C15.3178 49.3689 13.7198 50.5544 12.129 51.7343C12.6994 51.8937 13.2186 52.1983 13.6357 52.6184C14.0529 53.0385 14.3537 53.5597 14.5087 54.1309C14.5783 54.3998 14.6131 54.6797 14.6918 54.9431C14.8748 55.567 15.2775 56.1048 15.7096 56.5896C17.5657 58.6807 20.1632 60.2283 21.2579 62.8097C21.2936 62.9353 21.3711 63.045 21.4776 63.1207C21.5666 63.1601 21.6656 63.1716 21.7613 63.1536C22.7516 63.0493 23.5095 62.2517 24.141 61.476C25.459 59.8295 26.6031 58.0111 27.2529 56.0024C27.9027 53.9937 28.0071 51.7727 27.2987 49.7823C26.9454 48.7908 26.3999 47.8797 25.858 46.9778C25.3833 46.1887 24.9098 45.4009 24.4375 44.6142C24.1904 44.1989 23.8756 43.3556 23.3905 43.1507C22.3434 42.7006 20.4195 44.2117 19.7477 44.8831Z" fill="#004897"/>
<path d="M73.6643 56.7067L75.222 60.3655C73.5262 59.7733 71.7137 59.5931 69.9344 59.8396C68.1551 60.0861 66.46 60.7524 64.9894 61.7833C64.1015 62.4181 63.287 63.2158 62.8861 64.2293C62.6882 64.2668 62.4837 64.2478 62.2962 64.1743C62.1087 64.1009 61.9458 63.976 61.8262 63.814C61.5919 63.4855 61.456 63.0972 61.4345 62.6944C61.2899 61.2894 61.8225 59.9118 62.3497 58.5983C62.595 57.9836 62.8476 57.3561 63.2833 56.8567C63.719 56.3572 64.2974 56.028 64.8759 55.7169C66.7213 54.697 68.654 53.8435 70.6512 53.1667C71.4932 52.8941 72.3756 52.8996 72.8478 53.6863C73.3952 54.6248 73.2359 55.7078 73.6643 56.7067Z" fill="#004897"/>
<path d="M11.0966 67.6851C11.4865 67.9961 11.8288 68.3638 12.2297 68.6602C12.6537 68.9544 13.1048 69.2074 13.577 69.4157L15.3819 70.2829C15.9412 70.5734 16.5264 70.811 17.13 70.9927C17.9025 71.1994 18.7134 71.2195 19.4896 71.4116C20.4689 71.6531 21.3641 72.1562 22.3287 72.4471C23.2934 72.738 24.4229 72.7855 25.2283 72.18C25.7317 71.8013 26.1125 71.1756 26.7367 71.0823C27.1394 71.0293 27.5275 71.2232 27.8862 71.4116L32.5834 73.8795C33.2168 74.2125 33.8867 74.582 34.2181 75.2168C34.5494 75.8516 34.3261 76.8158 33.6286 76.9804C33.3856 77.0083 33.1411 77.0224 32.8964 77.0225C32.6548 77.0517 32.3912 77.1944 32.3582 77.4378C32.357 77.5889 32.3969 77.7374 32.4736 77.8677C32.6841 78.3506 32.7463 78.9287 32.501 79.3971C32.2557 79.8654 31.6535 80.1563 31.1721 79.9459C31.2544 80.6539 30.4838 81.1497 29.7973 81.3381C28.0656 81.8119 26.2296 81.521 24.4595 81.221C23.7639 81.1039 23.0573 80.9832 22.4239 80.6722C22.1201 80.524 21.8382 80.3337 21.5306 80.1965C20.6868 79.8215 19.7276 79.8709 18.805 79.8874C14.538 79.9624 10.3076 79.172 6.11204 78.3854C5.33407 78.239 4.53412 78.0835 3.86964 77.6536C2.58827 76.8194 2.11233 75.1071 2.32284 73.5923C2.53335 72.0775 3.30217 70.7055 4.05818 69.3737L5.03752 67.6485C5.16554 67.3842 5.34473 67.1479 5.56472 66.9533C7.00535 65.8538 9.86281 66.6935 11.0966 67.6851Z" fill="#A1616A"/>
<path opacity="0.04" d="M11.0966 67.6851C11.4865 67.9961 11.8288 68.3638 12.2297 68.6602C12.6537 68.9544 13.1048 69.2074 13.577 69.4157L15.3819 70.2829C15.9412 70.5734 16.5264 70.811 17.13 70.9927C17.9025 71.1994 18.7134 71.2195 19.4896 71.4116C20.4689 71.6531 21.3641 72.1562 22.3287 72.4471C23.2934 72.738 24.4229 72.7855 25.2283 72.18C25.7317 71.8013 26.1125 71.1756 26.7367 71.0823C27.1394 71.0293 27.5275 71.2232 27.8862 71.4116L32.5834 73.8795C33.2168 74.2125 33.8867 74.582 34.2181 75.2168C34.5494 75.8516 34.3261 76.8158 33.6286 76.9804C33.3856 77.0083 33.1411 77.0224 32.8964 77.0225C32.6548 77.0517 32.3912 77.1944 32.3582 77.4378C32.357 77.5889 32.3969 77.7374 32.4736 77.8677C32.6841 78.3506 32.7463 78.9287 32.501 79.3971C32.2557 79.8654 31.6535 80.1563 31.1721 79.9459C31.2544 80.6539 30.4838 81.1497 29.7973 81.3381C28.0656 81.8119 26.2296 81.521 24.4595 81.221C23.7639 81.1039 23.0573 80.9832 22.4239 80.6722C22.1201 80.524 21.8382 80.3337 21.5306 80.1965C20.6868 79.8215 19.7276 79.8709 18.805 79.8874C14.538 79.9624 10.3076 79.172 6.11204 78.3854C5.33407 78.239 4.53412 78.0835 3.86964 77.6536C2.58827 76.8194 2.11233 75.1071 2.32284 73.5923C2.53335 72.0775 3.30217 70.7055 4.05818 69.3737L5.03752 67.6485C5.16554 67.3842 5.34473 67.1479 5.56472 66.9533C7.00535 65.8538 9.86281 66.6935 11.0966 67.6851Z" fill="black"/>
<path d="M66.9755 70.8463C66.0218 71.2963 64.9271 71.3402 63.9313 71.686C62.9355 72.0317 62.0898 72.6537 61.1763 73.1605C58.7967 74.4887 56.0508 74.9899 53.3545 75.4674C51.7198 75.7601 50.0595 76.0528 48.412 75.9833C46.1824 75.8882 44.0407 75.1454 41.8807 74.5856C39.7206 74.0258 37.416 73.649 35.2761 74.2783C34.1587 74.6183 33.1371 75.2167 32.2943 76.025C31.4515 76.8333 30.8112 77.8287 30.4252 78.9305C29.9767 80.2459 29.9145 81.6637 30.0005 83.0504C30.4508 83.3815 31.0805 82.9223 31.3258 82.4192C31.5711 81.9161 31.7047 81.2996 32.1807 81.0069C33.0062 81.2868 33.2076 82.3863 33.8886 82.9296C34.3132 83.2699 34.8807 83.3595 35.4207 83.4364L38.2031 83.8315C38.8731 83.9267 39.6511 83.9907 40.1362 83.5187C40.3723 83.29 40.5023 82.9699 40.7183 82.7247C41.1613 82.2344 41.9008 82.1503 42.5598 82.2161C44.6173 82.421 46.5467 83.7547 48.5896 83.4382C49.2925 83.3303 49.946 83.0302 50.616 82.7942C54.5864 81.3929 58.998 82.2454 63.1295 81.4423C64.7056 81.1368 66.2231 80.5953 67.7223 80.0245C68.5369 79.7153 69.3607 79.3915 70.0563 78.8683C70.7153 78.3619 71.235 77.6966 71.5666 76.9348C71.8983 76.173 72.0311 75.3395 71.9527 74.5124C71.7995 73.2519 71.1702 72.0975 70.1936 71.2853C69.8714 71.0109 69.4485 70.4859 69.0623 70.3139C68.3246 69.9901 67.6015 70.5517 66.9755 70.8463Z" fill="#A1616A"/>
<g opacity="0.1">
<path opacity="0.1" d="M61.6267 47.4754C61.321 47.2046 61.246 46.793 60.9824 46.493C60.4332 45.8582 59.3239 45.9442 58.4196 46.0722C56.8435 46.2936 54.9416 46.3448 53.9641 45.249C53.5412 44.777 53.3545 44.1513 52.8383 43.758C51.6338 42.8433 49.5617 43.7799 48.2345 43.0061C47.0758 42.331 47.1508 40.7651 46.1843 39.8961C45.2178 39.0271 43.5429 39.1405 42.2304 39.5741C42.0083 39.676 41.7594 39.7043 41.5201 39.6546C41.1046 39.5082 41.1339 38.9923 41.2364 38.6118C41.7361 36.7732 42.245 34.9164 43.217 33.226C43.5703 32.6095 43.9877 32.0149 44.2147 31.3527C44.6119 30.1928 44.4087 28.8811 44.9304 27.7834C44.3703 28.1493 43.8321 28.5481 43.4861 29.064C42.7063 30.2257 43.0083 31.7039 42.5708 32.9937C42.3439 33.6559 41.9265 34.2505 41.5732 34.867C40.6012 36.5574 40.0923 38.4142 39.5926 40.2528C39.4901 40.6333 39.4608 41.1492 39.8763 41.2956C40.1156 41.3453 40.3645 41.317 40.5865 41.2151C41.899 40.7815 43.5667 40.6571 44.5405 41.5371C45.5143 42.417 45.432 43.9775 46.5907 44.6471C47.9178 45.4209 49.99 44.4861 51.1945 45.399C51.7107 45.7905 51.8974 46.418 52.3203 46.89C53.3051 47.9876 55.1997 47.9346 56.7758 47.7132C57.6801 47.5851 58.7894 47.4992 59.3385 48.134C59.6021 48.434 59.6772 48.8456 59.9829 49.1164C60.5321 49.6067 61.537 49.3579 62.0734 48.8548C62.4173 48.4969 62.7116 48.0945 62.9484 47.6583C62.4724 47.8029 61.9654 47.7809 61.6267 47.4754Z" fill="black"/>
<path opacity="0.1" d="M64.9619 45.463C64.844 45.6148 64.7347 45.7729 64.6343 45.9368C65.3372 45.4356 66.0822 44.9672 66.6076 44.3287C66.744 44.1635 66.8664 43.9873 66.9737 43.8019C66.2433 44.3251 65.4818 44.8062 64.9619 45.463Z" fill="black"/>
</g>
<path d="M101.944 81.6893L102.493 134.194L105.056 133.828L104.507 81.6893H101.944Z" fill="#3F3D56"/>
<path d="M117.321 91.2023L117.87 143.707L120.433 143.341L119.883 91.2023H117.321Z" fill="#3F3D56"/>
<path d="M165.195 117.725L165.184 116.717V116.117L165.087 106.882L164.935 92.4445L164.909 91.1987H162.346L162.359 92.3988L162.44 100.132L162.474 103.48L162.504 106.191L162.551 110.878L162.581 113.642V113.935L162.619 117.568L162.652 120.771L162.861 120.541C163.196 120.166 163.525 119.786 163.846 119.399L165.195 117.725Z" fill="#3F3D56"/>
<path d="M114.483 99.7091L113.019 101.897L114.483 111.866L126.931 115.27H147.067L159.148 116L164.904 112.063L163.908 105.302L159.515 99.7091H114.483Z" fill="#004897"/>
<path d="M113.019 101.897L112.287 107.974C112.287 107.974 108.443 119.889 139.379 119.16C170.315 118.43 165.006 115.998 165.006 115.998L164.823 108.948C164.823 108.948 165.901 112.285 150.179 111.833C134.456 111.381 119.792 109.921 119.792 109.921C119.792 109.921 114.3 110.892 113.019 101.897Z" fill="#3F3D56"/>
<path d="M138.793 47.4242C137.028 48.2273 135.692 49.7841 134.797 51.5056C133.902 53.2271 133.398 55.1169 132.902 56.9939C132.379 58.9733 131.853 60.9583 131.582 62.9871C131.099 66.5947 131.462 70.3871 133.12 73.627C134.778 76.8669 137.843 79.4812 141.431 80.105C142.816 80.3483 144.241 80.2989 145.641 80.1544C148.172 79.8865 150.665 79.3374 153.075 78.5171C155.592 77.6664 158.211 76.3565 159.331 73.9435C159.981 72.544 160.036 70.9487 160.005 69.4084C159.919 65.21 159.284 61.0409 158.118 57.0067C157.779 55.8359 157.386 54.6559 156.668 53.6698C155.95 52.6838 154.969 51.9611 153.968 51.2916C149.686 48.4102 144.059 45.0313 138.793 47.4242Z" fill="#FBBEBE"/>
<path opacity="0.05" d="M138.793 47.4242C137.028 48.2273 135.692 49.7841 134.797 51.5056C133.902 53.2271 133.398 55.1169 132.902 56.9939C132.379 58.9733 131.853 60.9583 131.582 62.9871C131.099 66.5947 131.462 70.3871 133.12 73.627C134.778 76.8669 137.843 79.4812 141.431 80.105C142.816 80.3483 144.241 80.2989 145.641 80.1544C148.172 79.8865 150.665 79.3374 153.075 78.5171C155.592 77.6664 158.211 76.3565 159.331 73.9435C159.981 72.544 160.036 70.9487 160.005 69.4084C159.919 65.21 159.284 61.0409 158.118 57.0067C157.779 55.8359 157.386 54.6559 156.668 53.6698C155.95 52.6838 154.969 51.9611 153.968 51.2916C149.686 48.4102 144.059 45.0313 138.793 47.4242Z" fill="black"/>
<path d="M136.81 70.4512C137.321 71.1528 137.939 71.7701 138.641 72.2806C140.384 73.4843 142.62 73.6472 144.737 73.713C146.435 73.7642 148.383 73.6673 149.448 72.3428C149.928 71.7464 150.144 70.9853 150.338 70.2444C151.535 65.6948 152.386 61.061 152.882 56.3829L157.73 56.3993C159.828 65.3763 159.655 74.7082 159.472 83.9267L159.207 97.3693L156.084 97.0382C148.669 96.2534 141.242 95.4685 133.786 95.3332C129.418 95.2529 125.048 95.397 120.694 95.7649L127.495 75.5571C128.377 72.93 129.269 70.2682 129.475 67.5076C129.774 63.503 128.65 59.2752 130.208 55.5706C130.332 55.2724 130.49 54.9632 130.773 54.8077C131.057 54.6522 131.416 54.6907 131.742 54.7327C132.357 54.8151 134.237 54.7327 134.683 55.1261C135.342 55.6968 134.907 55.7828 134.674 56.703C134.259 58.3495 133.865 59.8734 133.871 61.5894C133.876 64.7049 134.843 67.9942 136.81 70.4512Z" fill="#004897"/>
<path d="M165.195 117.725C166.011 116.642 166.78 115.521 167.503 114.361C167.137 113.578 166.734 112.813 166.414 112.014C165.923 110.788 165.641 109.489 165.363 108.2C165.268 107.76 165.173 107.321 165.079 106.882C164.054 102.106 163.091 97.2614 162.892 92.4189C162.874 92.0164 162.862 91.614 162.857 91.2115C162.857 91.153 162.857 91.0962 162.857 91.0285C162.857 90.5877 162.857 90.1468 162.857 89.7077C162.879 88.61 162.949 87.5033 163.075 86.4019C163.099 86.1861 163.126 85.9702 163.155 85.7543C163.155 85.7067 163.166 85.661 163.174 85.6134L175.621 85.1597L176.668 85.1213C177.388 85.0957 178.149 85.0555 178.742 84.6475C179.74 83.9633 179.857 82.5601 179.841 81.3545C179.78 78.3074 179.435 75.2726 178.808 72.2897C178.336 70.0469 177.662 67.7546 176.15 66.0313C174.909 64.6153 173.112 63.5853 172.466 61.8236C172.226 61.1687 172.165 60.4497 171.854 59.824C171.543 59.1984 171.029 58.7392 170.543 58.2562C168.836 56.5656 167.42 54.6049 166.352 52.4533C165.61 50.9605 164.807 49.314 163.838 48.2822C163.791 48.2291 163.743 48.1798 163.694 48.1322C162.87 47.3181 161.927 46.9614 160.811 47.5157C160.61 47.6164 160.419 47.7352 160.239 47.8706C159.841 48.1745 159.477 48.5204 159.154 48.9024C158.026 50.1985 157.036 51.6087 156.201 53.1101C155.614 54.1671 155.11 55.268 154.693 56.403C154.364 57.2997 154.092 58.2162 153.878 59.1472C153.721 59.8368 153.596 60.5339 153.498 61.2327C153.131 63.8598 153.131 66.538 153.183 69.198C153.238 71.6421 153.346 74.0917 153.567 76.5267C153.622 77.1158 153.683 77.7042 153.75 78.2921C153.884 79.4544 154.05 80.613 154.248 81.768C154.327 82.2089 154.407 82.6498 154.497 83.0888C154.519 83.2059 154.543 83.323 154.567 83.4383L154.578 83.4877C154.819 84.5082 155.007 85.5408 155.14 86.5812C155.154 86.7117 155.165 86.8416 155.172 86.9709C155.203 87.5689 155.198 88.1682 155.158 88.7655C155.116 89.4717 155.05 90.176 155.017 90.8822C155.017 91.0066 155.017 91.1292 155.004 91.2481C154.995 91.6048 155.004 91.9616 155.004 92.3183C155.041 93.1718 155.143 94.0212 155.308 94.8594C155.617 96.4184 156.15 97.9244 156.891 99.3305C156.961 99.4622 157.032 99.5921 157.104 99.7201C158.032 101.378 159.203 102.898 160.062 104.594C160.802 106.12 161.356 107.73 161.709 109.389C161.831 109.936 161.947 110.485 162.057 111.035C162.227 111.913 162.379 112.799 162.535 113.684C162.55 113.772 162.566 113.867 162.582 113.948C162.789 115.122 163.007 116.291 163.287 117.438C163.45 118.106 163.633 118.764 163.847 119.412L165.195 117.725Z" fill="#464353"/>
<path d="M162.749 103.306C162.749 103.47 162.738 103.635 162.731 103.802C162.698 104.604 162.624 105.405 162.509 106.2C162.358 107.285 162.092 108.352 161.717 109.381C161.468 110.058 161.151 110.709 160.772 111.322C160.436 111.867 160.042 112.374 159.597 112.835C158.499 113.977 156.917 114.341 155.387 114.822C154.683 115.026 154.002 115.304 153.357 115.651C153.241 115.715 153.128 115.784 153.018 115.857L151.103 117.125C150.506 117.519 149.897 117.927 149.487 118.51C149.42 118.609 149.359 118.713 149.304 118.819C149.045 119.356 148.855 119.925 148.74 120.51C147.744 124.655 146.747 128.804 146.064 133.012C146.018 133.29 145.974 133.57 145.926 133.85L145.91 133.938C145.902 133.917 145.892 133.897 145.881 133.877C140.982 136.837 135.902 139.508 130.669 141.647L129.532 132.134C129.414 131.361 129.374 130.577 129.415 129.796C129.523 128.565 130.025 127.397 130.16 126.17C130.288 124.968 130.061 123.755 129.507 122.681C129.291 122.264 129.02 121.854 128.97 121.388C128.921 120.921 129.19 120.495 129.658 120.447C130.025 120.041 130.054 119.487 129.946 118.938C129.889 118.652 129.803 118.372 129.69 118.102C129.378 117.337 128.985 116.505 129.252 115.724C129.323 115.582 129.354 115.424 129.344 115.267C129.346 115.257 129.346 115.247 129.344 115.237C129.281 115.032 129.038 114.943 128.912 114.769C128.674 114.445 128.912 114.004 129.058 113.631C129.2 113.23 129.283 112.81 129.303 112.385C129.323 112.149 129.338 111.911 129.364 111.677C129.399 111.36 129.456 111.046 129.534 110.737C129.979 108.984 131.048 107.454 132.542 106.434C133.254 105.955 134.046 105.605 134.773 105.153C135.517 104.652 136.228 104.102 136.9 103.507C138.512 102.165 140.188 100.901 141.929 99.7128C143.8 98.4356 145.738 97.2595 147.735 96.1893C148.162 95.9588 148.589 95.7344 149.016 95.5161C149.481 95.2721 149.949 95.041 150.42 94.8227C151.929 94.1038 153.64 94.3727 155.308 94.852C156.007 95.0514 156.697 95.2892 157.364 95.5051C158.014 95.7165 158.64 95.9974 159.231 96.343C160.708 97.2101 161.929 98.4907 162.436 100.108C162.437 100.118 162.437 100.129 162.436 100.139C162.758 101.153 162.778 102.239 162.749 103.306Z" fill="#004897"/>
<path opacity="0.1" d="M162.749 103.306C162.749 103.47 162.738 103.635 162.731 103.802C162.698 104.604 162.624 105.405 162.509 106.2C162.358 107.285 162.092 108.352 161.717 109.381C161.468 110.058 161.151 110.709 160.772 111.322C160.436 111.867 160.042 112.374 159.597 112.835C158.499 113.977 156.917 114.341 155.387 114.822C154.683 115.026 154.002 115.304 153.357 115.651C153.241 115.715 153.128 115.784 153.018 115.857L151.103 117.125C150.506 117.519 149.897 117.927 149.487 118.51C149.42 118.609 149.359 118.713 149.304 118.819C149.045 119.356 148.855 119.925 148.74 120.51C147.744 124.655 146.747 128.804 146.064 133.012C146.018 133.29 145.974 133.57 145.926 133.85L145.91 133.938C145.902 133.917 145.892 133.897 145.881 133.877C140.982 136.837 135.902 139.508 130.669 141.647L129.532 132.134C129.414 131.361 129.374 130.577 129.415 129.796C129.523 128.565 130.025 127.397 130.16 126.17C130.288 124.968 130.061 123.755 129.507 122.681C129.291 122.264 129.02 121.854 128.97 121.388C128.921 120.921 129.19 120.495 129.658 120.447C130.025 120.041 130.054 119.487 129.946 118.938C129.889 118.652 129.803 118.372 129.69 118.102C129.378 117.337 128.985 116.505 129.252 115.724C129.323 115.582 129.354 115.424 129.344 115.267C129.346 115.257 129.346 115.247 129.344 115.237C129.281 115.032 129.038 114.943 128.912 114.769C128.674 114.445 128.912 114.004 129.058 113.631C129.2 113.23 129.283 112.81 129.303 112.385C129.323 112.149 129.338 111.911 129.364 111.677C129.399 111.36 129.456 111.046 129.534 110.737C129.979 108.984 131.048 107.454 132.542 106.434C133.254 105.955 134.046 105.605 134.773 105.153C135.517 104.652 136.228 104.102 136.9 103.507C138.512 102.165 140.188 100.901 141.929 99.7128C143.8 98.4356 145.738 97.2595 147.735 96.1893C148.162 95.9588 148.589 95.7344 149.016 95.5161C149.481 95.2721 149.949 95.041 150.42 94.8227C151.929 94.1038 153.64 94.3727 155.308 94.852C156.007 95.0514 156.697 95.2892 157.364 95.5051C158.014 95.7165 158.64 95.9974 159.231 96.343C160.708 97.2101 161.929 98.4907 162.436 100.108C162.437 100.118 162.437 100.129 162.436 100.139C162.758 101.153 162.778 102.239 162.749 103.306Z" fill="black"/>
<path d="M145.368 73.0032C145.35 72.9607 145.323 72.9224 145.289 72.8906C145.255 72.8587 145.215 72.834 145.172 72.818C145.128 72.8019 145.082 72.7948 145.036 72.797C144.99 72.7993 144.944 72.8109 144.902 72.8311C144.861 72.8514 144.823 72.8798 144.793 72.9148C144.763 72.9497 144.74 72.9905 144.725 73.0346C144.711 73.0787 144.706 73.1252 144.71 73.1714C144.714 73.2175 144.727 73.2624 144.749 73.3032L144.566 73.3929L150.025 84.5743L151.012 84.0931L145.553 72.9044L145.368 73.0032Z" fill="#3F3D56"/>
<path d="M152.192 61.2912C158.663 61.2912 163.908 56.0492 163.908 49.5829C163.908 43.1166 158.663 37.8746 152.192 37.8746C145.722 37.8746 140.477 43.1166 140.477 49.5829C140.477 56.0492 145.722 61.2912 152.192 61.2912Z" fill="#FBBEBE"/>
<path d="M167.655 42.3347C167.6 41.404 167.462 40.4801 167.241 39.5741C166.553 36.616 165.295 33.7035 163.13 31.5795C162.996 31.0603 162.837 30.548 162.652 30.0447C162.649 30.0322 162.644 30.02 162.639 30.0081C161.993 28.235 161.059 26.5804 159.875 25.1107C159.189 24.2582 158.299 23.4167 157.204 23.3837C156.897 23.3727 156.571 23.4258 156.289 23.2849C156.082 23.151 155.907 22.9722 155.778 22.7617C155.236 22.0771 154.517 21.5535 153.699 21.2476C152.881 20.9416 151.995 20.8648 151.136 21.0256L151.023 21.0494C150.959 21.0622 150.895 21.0768 150.84 21.0933C150.785 21.1097 150.686 21.1372 150.609 21.161C150.693 21.3 150.776 21.4409 150.856 21.5836C151.073 21.9702 151.275 22.3653 151.46 22.769C151.614 23.1057 151.756 23.4478 151.887 23.7953C150.012 24.0094 148.486 25.3394 147.091 26.6053L143.807 29.5836C143.801 29.5887 143.795 29.5942 143.79 29.6001L143.695 29.6916C143.671 29.7154 143.647 29.7391 143.625 29.7648C143.617 29.7724 143.609 29.781 143.602 29.7904C143.574 29.8196 143.549 29.8507 143.523 29.8818C143.477 29.9395 143.436 30.0006 143.4 30.0648C143.382 30.0922 143.366 30.121 143.353 30.1508C143.348 30.1595 143.343 30.1687 143.34 30.1782C143.328 30.2032 143.318 30.2288 143.309 30.255C143.308 30.2587 143.308 30.2624 143.309 30.266C143.304 30.281 143.299 30.2963 143.296 30.3118C143.259 30.4405 143.27 30.5785 143.327 30.6996L145.493 30.7234H145.747C145.758 31.0124 145.767 31.3033 145.778 31.5924C145.435 31.8494 145.105 32.1242 144.79 32.4156C144.446 32.7333 144.124 33.0731 143.825 33.4328C141.872 35.7909 140.852 38.8369 140.75 41.903C140.75 41.9981 140.75 42.0859 140.75 42.1847C140.75 42.4646 140.75 42.7445 140.75 43.0226C140.75 43.2055 140.766 43.3885 140.781 43.5714C140.782 43.8097 140.845 44.0437 140.964 44.2501C140.979 44.2732 140.997 44.2952 141.015 44.316C141.125 44.4351 141.257 44.532 141.403 44.6014L141.561 44.6782C141.639 44.7166 141.714 44.7532 141.788 44.7953C142.478 45.185 142.886 45.9369 143.514 46.4198C143.55 46.4473 143.587 46.4747 143.624 46.4985L143.706 46.5534L143.757 46.5863L143.827 46.6266C143.872 46.6541 143.919 46.6791 143.968 46.7016L144.056 46.7455H144.07C144.143 46.7784 144.217 46.8095 144.292 46.837L144.396 46.8735L144.427 46.8845C144.457 46.8937 144.488 46.9046 144.519 46.912C144.581 46.9303 144.642 46.9467 144.702 46.9614L144.885 47.0016C144.956 47.0144 145.029 47.0272 145.103 47.0364L145.211 47.051L145.321 47.062C145.495 47.0778 145.671 47.087 145.848 47.0894C146.403 47.086 146.958 47.0475 147.508 46.9742L152.18 46.4253C153.239 46.3028 154.321 46.1802 155.367 46.3961C156.252 46.579 157.069 46.9998 157.929 47.298C158.123 47.3657 158.317 47.4279 158.513 47.4809C158.585 47.501 158.658 47.523 158.731 47.5413L158.832 47.5669L159.066 47.6236C159.15 47.6437 159.234 47.6639 159.319 47.6803C159.438 47.7059 159.555 47.7279 159.674 47.7498C159.754 47.7663 159.837 47.7791 159.919 47.7937H159.936L160.17 47.8303H160.227L160.4 47.8541C160.485 47.8669 160.569 47.8779 160.655 47.887C160.842 47.9102 161.028 47.9303 161.215 47.9474C161.517 47.9767 161.821 47.9986 162.13 48.0169L162.434 48.0352L162.738 48.0499L163.653 48.0901H163.694H163.822C164.202 48.1166 164.585 48.097 164.96 48.0316C165.026 48.0188 165.09 48.0041 165.154 47.9858C165.218 47.9675 165.272 47.9492 165.337 47.9273C166.024 47.6639 166.525 47.0583 166.873 46.4107C166.946 46.2735 167.014 46.1363 167.076 45.9954C167.139 45.8546 167.195 45.7119 167.247 45.5692C167.311 45.3862 167.366 45.2124 167.413 45.0295C167.428 44.9801 167.441 44.9307 167.452 44.8795C167.463 44.8282 167.488 44.7276 167.503 44.6508C167.549 44.4404 167.583 44.2282 167.609 44.0141C167.609 43.9465 167.626 43.8769 167.633 43.8093C167.649 43.6263 167.662 43.4562 167.67 43.2769C167.67 43.1415 167.67 43.0043 167.67 42.8671C167.668 42.7189 167.655 42.5232 167.655 42.3347ZM162.961 31.4131C162.813 31.274 162.661 31.1405 162.507 31.0143C162.679 31.1222 162.831 31.2568 162.96 31.4131H162.961Z" fill="#464353"/>
<path d="M129.708 48.9389C128.329 48.7688 126.962 48.1651 125.602 48.4614C124.751 48.6444 124.019 49.1731 123.338 49.7164C120.804 51.7463 118.649 54.2082 116.973 56.9884C116.689 57.404 116.489 57.8715 116.385 58.3641C116.297 58.9349 116.453 59.5148 116.638 60.0618C117.89 63.7591 120.568 66.8472 121.787 70.5554C123.069 74.4557 122.624 78.7183 121.679 82.7138C120.508 87.6462 118.605 92.3758 116.034 96.7454C115.685 97.3952 115.247 97.9936 114.734 98.5236C114.068 99.1639 113.173 99.6213 112.777 100.459C112.594 100.825 112.541 101.242 112.411 101.634C112.045 102.731 111.159 103.672 111.073 104.83C111.009 105.713 111.428 106.549 111.683 107.391C112.112 108.837 112.066 110.382 111.553 111.8C110.625 114.343 108.197 116.655 108.902 119.269C110.474 118.817 112.217 118.23 112.959 116.772C113.22 116.256 113.35 115.642 113.791 115.265C114.672 114.516 116.171 115.193 117.106 114.506C117.813 113.982 117.839 112.91 117.524 112.087C117.209 111.264 116.667 110.539 116.426 109.692C116.005 108.165 116.678 106.549 116.554 104.971C116.495 104.239 116.27 103.538 116.253 102.81C116.222 101.396 117.006 100.066 118.047 99.1054C119.089 98.1449 120.376 97.5083 121.643 96.8808L126.431 94.5026C128.168 93.6427 130.072 92.5945 130.641 90.7431C130.857 90.0498 130.859 89.3107 130.87 88.5862C131.033 77.5164 133.808 66.6697 136.567 55.9474C136.995 54.2863 137.431 52.6179 138.068 51.0226C138.705 49.4274 139.952 48.1468 140.587 46.6649C136.902 46.2332 133.536 49.4182 129.708 48.9389Z" fill="#464353"/>
<path d="M156.106 118.386C156.529 120.947 156.787 123.563 156.988 126.166C153.693 128.896 150.146 131.27 146.542 133.473C146.336 133.599 146.13 133.724 145.923 133.839L145.906 133.927C145.898 133.906 145.888 133.886 145.877 133.866C145.597 133.262 145.108 132.78 144.5 132.509C143.15 129.673 141.8 126.838 140.451 124.002C139.719 122.471 138.987 120.925 138.621 119.273C138.621 119.238 138.604 119.202 138.599 119.167C138.321 117.886 138.257 116.556 138.072 115.259C137.978 114.516 137.811 113.785 137.572 113.075C137.352 112.444 137.05 111.831 136.783 111.214C136.453 110.453 136.177 109.683 136.164 108.862C136.164 108.6 136.181 108.313 136.053 108.093C135.916 107.904 135.746 107.741 135.553 107.61C135.311 107.396 135.128 107.124 135.02 106.82C134.913 106.516 134.884 106.189 134.938 105.871C133.839 105.927 133.221 107.107 132.78 108.108C132.378 109.087 131.852 110.009 131.213 110.852C130.747 111.454 130.154 111.947 129.477 112.296C129.417 112.325 129.356 112.354 129.294 112.38C127.766 113.053 125.981 112.815 124.324 112.511C122.876 112.246 121.379 111.917 120.215 111.017L120.09 110.918C119.746 110.632 119.438 110.304 119.175 109.941C118.199 108.609 117.767 106.855 117.528 105.185C117.506 105.027 117.484 104.87 117.463 104.713C117.297 103.532 117.251 102.338 117.326 101.149C117.348 100.856 117.379 100.563 117.418 100.273C117.443 100.09 117.471 99.8921 117.502 99.7018C117.501 99.6964 117.501 99.6908 117.502 99.6854C117.55 99.3835 117.601 99.0798 117.652 98.7706C117.835 97.7334 118.018 96.6686 118.567 95.7759C118.929 95.2204 119.385 94.7325 119.915 94.3343C120.112 94.1788 120.315 94.0306 120.52 93.8879C120.854 93.6574 121.196 93.4379 121.544 93.2311C122.419 92.7077 123.337 92.2609 124.29 91.8957C124.517 91.8079 124.747 91.7255 124.978 91.6469C125.874 91.3282 126.839 91.2518 127.775 91.4255C128.604 91.5454 129.442 91.5944 130.279 91.5719C132.426 91.5298 134.583 91.12 136.726 90.8547C139.703 90.4888 142.901 90.4449 145.496 91.9524C145.621 92.0237 145.742 92.0987 145.862 92.1774C147.144 93.0153 148.176 94.1898 149.009 95.5015C149.192 95.7777 149.351 96.0613 149.509 96.3485C149.872 97.0078 150.2 97.6856 150.492 98.3791C150.665 98.7197 150.758 99.095 150.765 99.4768C150.76 99.5494 150.751 99.6216 150.735 99.6927C150.686 99.9524 150.587 100.205 150.552 100.468C150.437 101.465 151.284 102.298 151.601 103.247C151.806 103.866 151.784 104.528 151.899 105.179C152.066 106.094 152.515 106.917 152.917 107.74C153.554 109.065 154.098 110.433 154.546 111.833C154.865 112.808 155.138 113.798 155.378 114.796C155.456 115.117 155.529 115.439 155.599 115.76C155.799 116.646 155.961 117.513 156.106 118.386Z" fill="#004897"/>
<path d="M175.623 91.2938V92.5744L175.387 92.5707L175.124 92.567L172.18 92.5305L164.927 92.4353L162.892 92.4097L162.365 92.4024L159.31 92.364L155.004 92.3073L145.87 92.1884L130.019 91.9835L124.299 91.9103L122.003 91.881L119.891 91.8536L118.575 91.8353L117.328 91.8188L108.086 91.6999L105.523 91.667L104.965 91.6597L104.602 90.7248L101.968 83.9358L101.487 82.6955L101.853 81.2319L103.5 82.3296L104.514 82.4558L121.211 84.5304L124.344 84.9201L130.989 85.747L137.499 86.5556L140.05 86.872L155.151 88.749L159.37 89.2741L162.863 89.7077L175.281 91.2517L175.623 91.2938Z" fill="#3F3D56"/>
<path d="M101.853 81.2319L105.148 89.8302L175.623 91.2937V81.9637L101.853 81.2319Z" fill="#504F60"/>
<path d="M105.514 90.7449L106.063 143.249L108.626 142.884L108.076 90.7449H105.514Z" fill="#3F3D56"/>
<path d="M175.387 92.5689H175.124C174.697 95.8423 173.991 99.0733 173.013 102.226L172.18 92.5305L172.145 92.117L175.224 91.7621L175.327 91.7512L175.387 92.5689Z" fill="#3F3D56"/>
<path d="M165.372 86.3543L138.555 86.9032L130.226 84.159L152.558 82.8784L165.372 86.3543Z" fill="white"/>
<path d="M131.732 75.6851C131.448 75.7941 131.196 75.9735 131 76.2065C130.847 76.4589 130.754 76.743 130.728 77.037L130.277 79.7208C130.209 79.9663 130.221 80.2273 130.312 80.4654C130.429 80.6904 130.77 80.8075 130.94 80.6209C130.918 81.1459 130.964 81.7057 131.269 82.1338C131.575 82.5619 132.216 82.7869 132.648 82.4887C132.716 82.599 132.806 82.6933 132.914 82.765C133.022 82.8367 133.144 82.8841 133.272 82.904C133.4 82.9238 133.531 82.9156 133.655 82.8799C133.78 82.8442 133.895 82.7819 133.993 82.6973C133.733 82.7851 133.715 83.1821 133.9 83.3833C134.107 83.5659 134.371 83.6713 134.647 83.6815C137.863 84.1346 141.143 83.7223 144.147 82.4869C144.431 82.3698 143.684 78.8738 143.609 78.5152C143.426 77.6718 143.334 76.6419 142.622 76.0748C140.92 74.7173 137.896 74.4502 135.822 74.6112C134.405 74.7183 133.019 75.0822 131.732 75.6851Z" fill="#FBBEBE"/>
<path opacity="0.1" d="M159.018 76.0913C152.397 76.2175 145.639 76.3255 139.32 74.3442C139.924 76.6819 139.882 79.1393 139.199 81.4552L170.157 84.0164C171.47 84.1243 176.912 84.739 178.191 84.4298C179.471 84.1206 167.455 80.1654 167.94 78.9415C169.275 75.5699 173.745 73.5941 170.525 73.4679C166.461 73.3069 163.113 76.0145 159.018 76.0913Z" fill="black"/>
<path d="M159.201 76.4572C152.58 76.5834 145.822 76.6913 139.503 74.71C140.107 77.0477 140.065 79.5052 139.382 81.821L170.34 84.3822C171.653 84.4902 177.095 85.114 178.374 84.7957C179.654 84.4774 179.354 82.9096 179.839 81.6857C181.173 78.314 173.928 73.96 170.708 73.8337C166.644 73.6728 163.296 76.3803 159.201 76.4572Z" fill="#464353"/>
<path d="M148.674 76.9657C148.959 77.0745 149.211 77.254 149.406 77.4871C149.559 77.7397 149.653 78.0237 149.681 78.3177L150.131 81.0014C150.199 81.247 150.187 81.5078 150.096 81.746C149.979 81.971 149.637 82.0881 149.469 81.9015C149.489 82.4266 149.445 82.9864 149.139 83.4145C148.833 83.8425 148.193 84.0676 147.759 83.7694C147.691 83.8797 147.6 83.974 147.492 84.0457C147.384 84.1174 147.262 84.1648 147.134 84.1846C147.006 84.2045 146.876 84.1963 146.751 84.1606C146.627 84.1249 146.511 84.0625 146.413 83.9779C146.673 84.0657 146.693 84.4627 146.509 84.6639C146.301 84.8466 146.036 84.9519 145.76 84.9621C142.544 85.4153 139.265 85.0029 136.261 83.7675C135.977 83.6504 136.723 80.1544 136.799 79.7959C136.982 78.9525 137.074 77.9225 137.786 77.3554C139.487 75.998 142.512 75.7309 144.586 75.8919C146.003 75.9992 147.388 76.3631 148.674 76.9657Z" fill="#FBBEBE"/>
<path d="M104.924 71.139C104.317 71.922 103.707 72.7215 103.315 73.6344C102.567 75.376 102.676 77.3481 102.801 79.2397C102.836 79.7885 102.88 80.3483 103.167 80.8039C103.415 81.148 103.743 81.4272 104.123 81.618C105.708 82.518 107.564 82.787 109.376 82.9882C112.151 83.2955 114.936 83.4828 117.731 83.5498C124.654 83.7181 131.683 83.1528 138.427 84.7207C137.592 83.4529 137.594 81.7753 138.061 80.33C138.527 78.8848 139.426 77.6262 140.307 76.3876C137.22 75.4107 133.911 76.9365 130.678 76.7846C127.359 76.6291 124.288 74.7119 120.965 74.7137C120.251 74.7137 119.525 74.8034 118.831 74.6314C118.137 74.4594 117.465 73.9362 117.401 73.2246C118.287 73.424 119.127 72.6666 119.494 71.836C119.86 71.0055 119.926 70.067 120.281 69.2309C121.165 67.1509 123.554 66.1868 125.04 64.4744C125.274 64.2037 125.496 63.8835 125.489 63.525C125.454 63.2212 125.326 62.9356 125.122 62.7072C123.887 61.0607 122.025 60.146 120.478 58.8654C119.94 58.419 118.855 56.736 118.251 56.5805C117.13 56.2932 116.18 57.9105 115.452 58.6989C111.774 62.6932 108.264 66.8399 104.924 71.139Z" fill="#464353"/>
<path opacity="0.07" d="M141.733 70.6743C142.197 71.0182 142.609 71.4266 142.957 71.8872C143.131 72.1185 143.254 72.3833 143.32 72.6649C143.386 72.9464 143.393 73.2385 143.34 73.5227C143.283 72.9925 143.401 72.4583 143.677 72.0015C143.952 71.5447 144.369 71.1904 144.865 70.9926L141.733 70.6743Z" fill="black"/>
<g opacity="0.1">
<path opacity="0.1" d="M151.885 22.6995C151.669 22.1277 151.421 21.5688 151.142 21.0256C150.961 21.0603 150.782 21.1061 150.607 21.1628C150.921 21.6841 151.204 22.2235 151.455 22.7782C151.596 22.7416 151.738 22.716 151.885 22.6995Z" fill="black"/>
<path opacity="0.1" d="M162.506 29.9129C162.555 29.9532 162.603 29.9989 162.65 30.041C162.647 30.0291 162.642 30.0175 162.637 30.0062C162.596 29.9757 162.552 29.9446 162.506 29.9129Z" fill="black"/>
<path opacity="0.1" d="M145.489 30.7179C145.584 30.6429 145.672 30.5642 145.775 30.491L145.745 29.6221L143.79 29.6019C143.474 29.8928 143.137 30.3099 143.323 30.6996L145.489 30.7179Z" fill="black"/>
<path opacity="0.1" d="M166.862 45.3459C166.514 45.9935 166.013 46.6009 165.326 46.8625C164.797 47.0638 164.215 47.0455 163.65 47.0199C161.72 46.9412 159.758 46.8552 157.935 46.2167C157.082 45.9167 156.265 45.4978 155.372 45.313C154.327 45.0971 153.245 45.2197 152.185 45.3441L147.514 45.8929C146.135 46.0539 144.599 46.1747 143.499 45.3295C142.869 44.8465 142.463 44.0946 141.773 43.7068C141.482 43.5421 141.136 43.436 140.947 43.1579C140.828 42.9515 140.765 42.7175 140.764 42.4792C140.75 42.2871 140.741 42.095 140.733 41.903C140.713 42.4611 140.724 43.0199 140.764 43.5769C140.765 43.8152 140.828 44.0491 140.947 44.2556C141.13 44.5318 141.482 44.6379 141.773 44.8044C142.463 45.1923 142.871 45.9441 143.499 46.4271C144.597 47.2723 146.135 47.1589 147.514 46.9906L152.185 46.4418C153.245 46.3174 154.327 46.1948 155.372 46.4107C156.258 46.5936 157.074 47.0144 157.935 47.3144C159.765 47.9529 161.72 48.0462 163.65 48.1175C164.215 48.1413 164.797 48.1614 165.326 47.9602C166.013 47.6986 166.514 47.0912 166.862 46.4436C167.536 45.1904 167.724 43.769 167.653 42.3365C167.614 43.3855 167.344 44.413 166.862 45.3459Z" fill="black"/>
</g>
<path opacity="0.1" d="M151.832 23.8758L154.395 26.2541C154.395 26.2541 152.198 25.3393 151.832 23.8758Z" fill="black"/>
</g>
<defs>
<clipPath id="clip0">
<rect width="179.921" height="146.908" fill="white" transform="translate(0.0786133)"/>
</clipPath>
</defs>
</svg>
