<svg width="192" height="105" viewBox="0 0 192 105" fill="none" xmlns="http://www.w3.org/2000/svg">
<g clip-path="url(#clip0)">
<path d="M189.965 96.9868C189.22 98.8216 188.302 100.582 187.225 102.244C186.72 103.037 186.166 103.798 185.565 104.522C185.56 104.529 185.554 104.536 185.547 104.542H0L0.0250434 104.522C0.192 104.392 1.17203 103.6 2.69635 102.244C3.78991 101.273 5.1623 100.01 6.7033 98.4911C19.3069 86.1218 43.5172 56.8437 23.3539 30.0227C4.60967 5.08926 24.7914 0.564686 38.1045 0.0365971C43.2195 -0.163344 48.3223 0.669013 53.1072 2.4838C59.2579 4.81606 70.4991 8.39107 85.1445 10.0303C85.6253 10.0836 86.1095 10.1369 86.6003 10.1852C94.3541 10.973 102.16 11.1145 109.938 10.6084C110.166 10.595 110.397 10.5784 110.629 10.5617C118.322 10.0227 125.958 8.84413 133.455 7.03836C133.941 6.92008 134.42 6.80847 134.898 6.69685C159.879 0.929517 182.909 20.5854 177.151 42.7985C175.022 51.0147 175.563 59.7723 182.66 66.8574C194.281 78.422 192.873 89.8118 189.965 96.9868Z" fill="#F95252"/>
<path d="M189.965 96.9852C189.22 98.8199 188.302 100.58 187.225 102.243C186.72 103.035 186.166 103.796 185.565 104.52H0.0250397C0.191996 104.39 1.17203 103.599 2.69634 102.243C3.78991 101.272 5.16229 100.009 6.7033 98.4895L26.2589 94.458C26.5116 94.406 26.7689 94.3798 27.0269 94.3797L47.8748 94.3497H47.8965L58.2227 94.3364H58.2461L66.9613 94.3264H72.6662H78.5096L102.455 94.2931H102.493H104.348H107.607H111.676H112.757L116.87 94.2464H118.229L130.189 94.2298H134.009H135.846L149.661 94.2115H153.775L166.861 94.1931L177.907 94.1798C178.215 94.18 178.521 94.2163 178.82 94.2881L189.965 96.9852Z" fill="#454B69"/>
<path opacity="0.4" d="M2.69634 102.243H187.225C186.72 103.035 186.165 103.796 185.565 104.52H0.0250397C0.188657 104.382 1.16869 103.59 2.69634 102.243Z" fill="black"/>
<path d="M122.416 50.4334L122.045 50.505L105.289 53.7168C100.423 54.6497 95.4858 55.5877 90.5422 55.2295C86.961 54.9696 83.6152 53.9101 80.1742 52.9805C78.2291 52.4541 76.1672 52.2442 75.5078 50.0719C74.5978 47.0732 76.0787 42.6336 76.4277 39.595C76.7616 36.6131 76.9586 33.5562 76.3642 30.6092C76.2322 29.9469 76.0582 29.2937 75.8433 28.6534C75.2473 26.8892 74.3107 25.0551 74.8166 23.2643C75.2156 21.8432 76.4327 20.8287 77.5713 19.8891C79.8019 18.0567 82.0792 16.0026 82.964 13.2555C83.3981 11.9228 83.4799 10.4885 83.9474 9.16577C84.8339 6.65027 87.0611 4.76947 89.5388 3.77327C92.0164 2.77706 94.7411 2.56549 97.4141 2.56549C99.7743 2.56562 102.132 2.722 104.471 3.03361C107.022 3.36679 109.597 3.91487 111.839 5.17762C114.081 6.44037 115.971 8.50941 116.494 11.0316C117.234 14.5983 115.18 18.3965 116.282 21.8599C116.836 23.6108 118.118 25.0251 119.008 26.6277C119.734 27.9683 120.182 29.4408 120.325 30.9577C120.469 32.4745 120.305 34.0046 119.843 35.457C118.778 38.7504 116.17 42.0822 117.506 45.2757C118.355 47.3065 120.526 48.391 122.039 50.0002C122.173 50.1446 122.299 50.289 122.416 50.4334Z" fill="#454B69"/>
<path opacity="0.1" d="M122.045 50.0136V50.505L105.289 53.7168C100.423 54.6497 95.4858 55.5876 90.5422 55.2295C86.961 54.9696 83.6152 53.9101 80.1742 52.9805C78.2291 52.4541 76.1672 52.2442 75.5077 50.0719C74.5978 47.0732 76.0787 42.6336 76.4277 39.595C76.7616 36.6131 81.9022 25.7265 81.3078 22.7795L112.028 24.1122C112.235 25.7398 120.354 33.9093 119.848 35.4703C118.783 38.7638 116.175 42.0955 117.511 45.2891C118.362 47.3198 120.533 48.4043 122.045 50.0136Z" fill="black"/>
<path d="M90.6574 41.7707C90.8394 42.8019 90.9362 43.9363 90.4086 44.8359C89.7057 46.042 88.1731 46.4269 86.8024 46.7001L82.0441 47.6496C81.7202 47.7146 81.3763 47.7879 81.1342 48.0095C80.8487 48.2643 80.7519 48.6675 80.7101 49.0473C80.5181 50.7665 81.1275 52.4607 81.6835 54.0983C82.8071 57.4151 83.7504 60.8019 85.1712 64.0021C86.592 67.2022 88.542 70.2575 91.3252 72.3965C94.1084 74.5355 97.7914 75.675 101.199 74.8387C104.168 74.1107 106.602 72.02 108.7 69.8027C110.432 67.9702 112.051 65.9711 112.891 63.5939C113.47 61.9613 113.659 60.2221 113.841 58.4996C114.123 55.8586 114.404 53.2176 114.686 50.5766C114.818 49.3372 114.904 47.9428 114.098 46.9916C113.744 46.5735 113.263 46.2952 112.772 46.037C110.946 45.0691 109.023 44.2695 107.323 43.1034C105.623 41.9373 104.116 40.3313 103.6 38.3389C103.291 37.1428 103.346 35.8401 102.82 34.7256C102.232 33.4762 100.984 32.6299 99.648 32.2584C98.3123 31.8869 96.9032 31.9369 95.5275 32.0918C94.1518 32.2467 88.8493 32.6432 88.2799 34.1908C87.9744 35.0238 89.2416 36.8113 89.5421 37.6309C90.0368 38.9749 90.41 40.3603 90.6574 41.7707Z" fill="#EFB7B9"/>
<path opacity="0.1" d="M90.6574 41.7707C90.8394 42.8019 90.9362 43.9363 90.4086 44.8359C89.7057 46.042 88.1731 46.4269 86.8024 46.7001L82.0441 47.6496C81.7202 47.7146 81.3763 47.7879 81.1342 48.0095C80.8487 48.2643 80.7519 48.6675 80.7101 49.0473C80.5181 50.7665 81.1275 52.4607 81.6835 54.0983C82.8071 57.4151 83.7504 60.8019 85.1712 64.0021C86.592 67.2022 88.542 70.2575 91.3252 72.3965C94.1084 74.5355 97.7914 75.675 101.199 74.8387C104.168 74.1107 106.602 72.02 108.7 69.8027C110.432 67.9702 112.051 65.9711 112.891 63.5939C113.47 61.9613 113.659 60.2221 113.841 58.4996C114.123 55.8586 114.404 53.2176 114.686 50.5766C114.818 49.3372 114.904 47.9428 114.098 46.9916C113.744 46.5735 113.263 46.2952 112.772 46.037C110.946 45.0691 109.023 44.2695 107.323 43.1034C105.623 41.9373 104.116 40.3313 103.6 38.3389C103.291 37.1428 103.346 35.8401 102.82 34.7256C102.232 33.4762 100.984 32.6299 99.648 32.2584C98.3123 31.8869 96.9032 31.9369 95.5275 32.0918C94.1518 32.2467 88.8493 32.6432 88.2799 34.1908C87.9744 35.0238 89.2416 36.8113 89.5421 37.6309C90.0368 38.9749 90.41 40.3603 90.6574 41.7707Z" fill="black"/>
<path d="M102.109 59.8856L104.899 53.9917C106.206 51.2296 107.542 48.3276 107.403 45.2774C107.376 44.671 107.37 43.913 107.904 43.6381C108.136 43.5436 108.389 43.5115 108.637 43.5449C111.574 43.6947 114.472 44.2797 117.237 45.2807C117.773 45.474 118.322 45.6972 118.698 46.1237C119.073 46.5501 119.225 47.1232 119.354 47.6729C119.792 49.5317 120.111 51.4163 120.311 53.3153C120.811 58.0165 120.563 62.7593 120.311 67.4755L119.569 81.8738C119.573 82.0781 119.532 82.2807 119.447 82.4669C119.264 82.8 118.85 82.9117 118.477 82.975C117.043 83.2199 115.577 83.1699 114.125 83.1149C103.907 82.7284 93.6359 82.1353 83.4849 83.3714C83.5306 81.8732 83.5066 80.3739 83.4131 78.8735C83.0108 72.3949 81.3279 66.0744 79.675 59.7973C78.7117 56.1324 77.7784 52.1342 79.3294 48.6808C79.5575 48.1354 79.8853 47.6372 80.2961 47.2115C80.9555 46.5668 81.8554 46.2269 82.747 45.9837C84.2849 45.5663 85.8777 45.3865 87.4702 45.4506L97.9968 68.3184C98.4776 69.3646 98.8733 70.4657 99.3525 71.4986C99.7832 69.7144 99.2657 67.6237 99.7832 65.6896C100.341 63.6822 101.219 61.7614 102.109 59.8856Z" fill="white"/>
<path d="M101.009 75.62C102.892 75.7383 104.722 74.7754 106.017 73.4144C107.313 72.0533 108.168 70.3275 108.891 68.5833C109.93 66.097 110.756 63.5273 111.36 60.9018C111.861 58.6695 112.216 56.3589 111.871 54.0966C111.393 50.9731 109.622 48.1344 109.32 44.9892C109.268 44.4394 109.301 43.7964 109.744 43.4649C110.018 43.26 110.378 43.2317 110.719 43.2117C113.868 43.0251 117.327 43.0601 119.766 45.0541C120.509 45.6605 121.112 46.4185 121.838 47.0432C123.568 48.5425 126.012 49.3055 127.122 51.2963C127.51 51.9893 127.695 52.7739 127.965 53.5202C128.603 55.2861 129.707 56.8387 130.804 58.3663C129.74 62.8443 128.518 67.3255 127.455 71.8034C126.832 74.4306 126.204 77.0677 125.226 79.5832C124.585 81.2324 123.778 82.915 123.975 84.6808C124.054 85.3755 124.286 86.0402 124.488 86.7099C125.196 89.0604 125.528 91.5077 125.471 93.9615L77.8318 94.0781C80.1141 90.813 80.7836 86.8082 80.5515 82.835C80.4396 80.9309 80.0089 79.0151 79.0489 77.3675C77.5363 74.7854 74.875 73.1028 72.2521 71.6618C70.4156 70.6623 68.4438 76.2864 66.4587 75.6417C66.7793 73.3794 66.9262 64.6468 66.7926 62.3695C66.7492 61.6231 66.6824 60.8568 66.9128 60.1438C67.0698 59.6557 67.3586 59.2193 67.5539 58.7445C68.337 56.8437 67.5907 54.4131 68.8562 52.7956C69.7311 51.6711 71.2654 51.3512 72.5126 50.6582C73.7931 49.9452 74.7832 48.8257 75.8984 47.8695C78.0868 46.0154 80.7607 44.8241 83.6051 44.4361C84.4349 45.742 84.9393 47.2272 85.076 48.7674C85.1612 49.7353 85.0994 50.7165 85.2346 51.6794C85.42 52.9838 85.9609 54.2082 86.4968 55.4144C88.729 60.4437 90.9696 65.488 93.7978 70.2108C94.5976 71.5436 95.4674 72.8763 96.6261 73.9141C97.7848 74.952 99.4527 75.6933 101.009 75.62Z" fill="#004897"/>
<path opacity="0.1" d="M101.009 75.62C102.892 75.7383 104.722 74.7754 106.017 73.4144C107.313 72.0533 108.168 70.3275 108.891 68.5833C109.93 66.097 110.756 63.5273 111.36 60.9018C111.861 58.6695 112.216 56.3589 111.871 54.0966C111.393 50.9731 109.622 48.1344 109.32 44.9892C109.268 44.4394 109.301 43.7964 109.744 43.4649C110.018 43.26 110.378 43.2317 110.719 43.2117C113.868 43.0251 117.327 43.0601 119.766 45.0541C120.509 45.6605 121.112 46.4185 121.838 47.0432C123.568 48.5425 126.012 49.3055 127.122 51.2963C127.51 51.9893 127.695 52.7739 127.965 53.5202C128.603 55.2861 129.707 56.8387 130.804 58.3663C129.74 62.8443 128.518 67.3255 127.455 71.8034C126.832 74.4306 126.204 77.0677 125.226 79.5832C124.585 81.2324 123.778 82.915 123.975 84.6808C124.054 85.3755 124.286 86.0402 124.488 86.7099C125.196 89.0604 125.528 91.5077 125.471 93.9615L77.8318 94.0781C80.1141 90.813 80.7836 86.8082 80.5515 82.835C80.4396 80.9309 80.0089 79.0151 79.0489 77.3675C77.5363 74.7854 74.875 73.1028 72.2521 71.6618C70.4156 70.6623 68.4438 76.2864 66.4587 75.6417C66.7793 73.3794 66.9262 64.6468 66.7926 62.3695C66.7492 61.6231 66.6824 60.8568 66.9128 60.1438C67.0698 59.6557 67.3586 59.2193 67.5539 58.7445C68.337 56.8437 67.5907 54.4131 68.8562 52.7956C69.7311 51.6711 71.2654 51.3512 72.5126 50.6582C73.7931 49.9452 74.7832 48.8257 75.8984 47.8695C78.0868 46.0154 80.7607 44.8241 83.6051 44.4361C84.4349 45.742 84.9393 47.2272 85.076 48.7674C85.1612 49.7353 85.0994 50.7165 85.2346 51.6794C85.42 52.9838 85.9609 54.2082 86.4968 55.4144C88.729 60.4437 90.9696 65.488 93.7978 70.2108C94.5976 71.5436 95.4674 72.8763 96.6261 73.9141C97.7848 74.952 99.4527 75.6933 101.009 75.62Z" fill="black"/>
<path d="M98.4893 41.3925C106.393 41.3925 112.801 34.9991 112.801 27.1125C112.801 19.2258 106.393 12.8324 98.4893 12.8324C90.5853 12.8324 84.1778 19.2258 84.1778 27.1125C84.1778 34.9991 90.5853 41.3925 98.4893 41.3925Z" fill="#EFB7B9"/>
<path d="M90.9796 46.142C91.372 42.4471 89.8326 38.8321 88.0896 35.5486C87.2548 33.9793 86.3599 32.415 85.9409 30.6908C85.5218 28.9666 85.642 27.0142 86.7139 25.5965C87.6255 24.3904 89.0713 23.739 90.4086 23.031C94.1835 21.032 97.6345 18.0933 99.2941 14.1635C98.3558 14.6732 98.5995 16.1942 99.4276 16.8656C100.256 17.5369 101.384 17.6668 102.403 17.9867C106.116 19.1528 108.343 22.8478 110.13 26.2995C110.422 26.8626 110.719 27.4573 110.716 28.092C110.712 28.7267 110.422 29.2898 110.118 29.8296C109.236 31.3955 108.158 32.8998 107.757 34.6507C107.298 36.6497 107.782 38.7521 108.412 40.7129C109.079 42.7986 109.966 44.9009 111.569 46.3969C113.172 47.8929 115.657 48.6359 117.629 47.6697C115.661 44.2929 113.622 40.5196 114.39 36.6914C114.761 34.8589 115.758 33.193 116.182 31.3705C116.99 27.8938 115.644 24.3171 114.324 20.9986L110.377 11.0949C109.774 9.58059 109.088 7.96467 107.705 7.10673C106.77 6.52866 105.638 6.37873 104.543 6.27378C101.017 5.96059 97.364 6.06388 94.0817 7.37327C88.1013 9.75717 84.3514 15.6345 81.3763 21.3352C80.4847 23.0427 79.6049 24.8569 79.6416 26.7826C79.6616 27.8388 79.9571 28.8667 80.1976 29.8962C81.1759 34.0876 81.2293 38.4306 81.2794 42.7336C81.3178 46.0354 81.1459 49.1473 79.6984 52.1542C81.6818 52.5474 84.5585 53.6086 86.5219 52.8323C89.0813 51.8227 90.6574 48.7125 90.9796 46.142Z" fill="#454B69"/>
<g opacity="0.1">
<path opacity="0.1" d="M81.2711 42.6636C81.2778 42.1938 81.2778 41.7196 81.2711 41.2409C81.221 36.9379 81.1676 32.5949 80.1892 28.4035C79.9707 27.5879 79.8001 26.7602 79.6783 25.9247C79.644 26.2116 79.6289 26.5004 79.6333 26.7893C79.6533 27.8455 79.9488 28.8733 80.1892 29.9028C81.1626 34.0692 81.2227 38.3856 81.2711 42.6636Z" fill="black"/>
<path opacity="0.1" d="M116.182 31.3705C116.401 30.3971 116.474 29.3967 116.399 28.4019C116.366 28.8966 116.293 29.388 116.182 29.8712C115.758 31.7037 114.761 33.3546 114.39 35.192C114.231 36.0025 114.186 36.8313 114.257 37.6542C114.283 37.3311 114.328 37.0096 114.39 36.6914C114.761 34.8539 115.758 33.1963 116.182 31.3705Z" fill="black"/>
<path opacity="0.1" d="M110.585 27.3273C110.667 27.0907 110.711 26.8428 110.716 26.5927C110.716 25.958 110.422 25.3632 110.13 24.8002C108.343 21.3484 106.123 17.6568 102.403 16.4873C101.384 16.1675 100.257 16.0376 99.4276 15.3662C99.2141 15.1827 99.0394 14.9585 98.9138 14.7068C98.7882 14.455 98.7143 14.1808 98.6963 13.9002C96.8865 17.2153 93.7778 19.7508 90.4086 21.5317C89.073 22.2397 87.6255 22.8911 86.7139 24.0972C85.8574 25.23 85.6086 26.7043 85.7572 28.1303C85.8414 27.2151 86.172 26.3396 86.7139 25.5965C87.6255 24.3904 89.0713 23.739 90.4086 23.031C93.7778 21.2501 96.8865 18.7146 98.6963 15.3995C98.7143 15.6801 98.7882 15.9544 98.9138 16.2061C99.0394 16.4578 99.2141 16.682 99.4276 16.8655C100.262 17.5319 101.384 17.6668 102.403 17.9867C106.116 19.1528 108.343 22.8477 110.13 26.2995C110.311 26.6285 110.463 26.9723 110.585 27.3273Z" fill="black"/>
<path opacity="0.1" d="M111.569 44.8976C109.966 43.3983 109.083 41.2992 108.412 39.2135C108.009 38.0419 107.74 36.8287 107.61 35.5969C107.455 37.3077 107.881 39.0586 108.412 40.7128C109.079 42.7985 109.966 44.9009 111.569 46.3969C113.171 47.8928 115.657 48.6358 117.629 47.6696C117.392 47.2648 117.157 46.8533 116.923 46.4385C115.091 46.9533 112.988 46.2203 111.569 44.8976Z" fill="black"/>
<path opacity="0.1" d="M90.9796 44.6426C90.6574 47.2131 89.0813 50.3233 86.5152 51.3395C84.7338 52.0442 82.1977 51.2346 80.2627 50.7865C80.0962 51.2541 79.9056 51.7128 79.6917 52.1608C81.6751 52.554 84.5518 53.6151 86.5152 52.8388C89.0813 51.8226 90.6574 48.7124 90.9796 46.1419C91.046 45.4988 91.0583 44.8513 91.0163 44.2062C91.0063 44.3511 90.9913 44.4977 90.9796 44.6426Z" fill="black"/>
</g>
<path d="M111.21 85.947C108.63 85.5388 106.012 84.7508 103.455 85.2806C101.972 85.5871 100.616 86.3235 99.3842 87.213C100.062 87.7545 100.853 88.2376 101.284 88.9906C101.552 89.5115 101.752 90.0639 101.882 90.6348C102.152 91.6343 102.424 92.6539 102.466 93.6934C102.508 94.7329 102.299 95.8157 101.678 96.6537C104.931 96.9735 108.083 96.1739 111.255 95.3926C111.618 95.3291 111.963 95.19 112.268 94.9845C112.769 94.5913 112.916 93.8916 112.919 93.2536C112.919 92.1141 112.599 91.003 112.273 89.9101C111.886 88.5991 111.599 87.2497 111.21 85.947Z" fill="white"/>
<path d="M128.627 57.8483C129.907 58.0149 130.901 59.046 131.632 60.1056C133.684 63.0542 134.569 66.6292 135.554 70.0826C136.778 74.3773 138.218 78.6042 139.873 82.7634C140.229 83.7239 140.662 84.6543 141.168 85.5455C141.581 86.2335 142.082 86.8948 142.264 87.6761C142.704 89.5653 141.143 91.3411 139.516 92.394C138.648 92.9775 137.7 93.4331 136.702 93.7467C135.731 94.0365 134.717 94.1465 133.71 94.2564L124.443 95.256C120.177 95.7191 115.873 96.1822 111.605 95.7357C111.337 94.8028 111.864 94.1431 111.826 93.1719C111.799 92.4772 111.492 91.8309 111.218 91.1912C110.713 90.0518 110.38 88.8444 110.228 87.6078C110.18 87.153 110.163 86.6866 109.989 86.2635C109.816 85.8403 109.443 85.4605 108.988 85.4305C111.492 85.1823 113.394 84.7108 115.898 84.461C116.828 84.3677 117.794 84.2627 118.588 83.7696C119.571 83.1582 120.122 82.0554 120.559 80.9859C121.643 78.3371 122.341 75.4185 121.771 72.6131C121.304 70.3125 120 68.1702 120.007 65.8229C120.007 64.4252 120.484 63.0708 121.048 61.7914C121.646 60.4387 122.426 59.056 123.738 58.3697C125.05 57.6833 127.146 57.6484 128.627 57.8483Z" fill="#004897"/>
<path opacity="0.08" d="M128.627 57.8483C129.907 58.0149 130.901 59.046 131.632 60.1056C133.684 63.0542 134.569 66.6292 135.554 70.0826C136.778 74.3773 138.218 78.6042 139.873 82.7634C140.229 83.7239 140.662 84.6543 141.168 85.5455C141.581 86.2335 142.082 86.8948 142.264 87.6761C142.704 89.5653 141.143 91.3411 139.516 92.394C138.648 92.9775 137.7 93.4331 136.702 93.7467C135.731 94.0365 134.717 94.1465 133.71 94.2564L124.443 95.256C120.177 95.7191 115.873 96.1822 111.605 95.7357C111.337 94.8028 111.864 94.1431 111.826 93.1719C111.799 92.4772 111.492 91.8309 111.218 91.1912C110.713 90.0518 110.38 88.8444 110.228 87.6078C110.18 87.153 110.163 86.6866 109.989 86.2635C109.816 85.8403 109.443 85.4605 108.988 85.4305C111.492 85.1823 113.394 84.7108 115.898 84.461C116.828 84.3677 117.794 84.2627 118.588 83.7696C119.571 83.1582 120.122 82.0554 120.559 80.9859C121.643 78.3371 122.341 75.4185 121.771 72.6131C121.304 70.3125 120 68.1702 120.007 65.8229C120.007 64.4252 120.484 63.0708 121.048 61.7914C121.646 60.4387 122.426 59.056 123.738 58.3697C125.05 57.6833 127.146 57.6484 128.627 57.8483Z" fill="black"/>
<path d="M70.5909 55.6843C71.1969 54.2483 71.813 52.7656 71.8297 51.208C71.8481 49.5238 71.1619 47.9245 70.6376 46.3253C69.9893 44.3685 69.5577 42.3469 69.3504 40.2964C69.3074 40.1 69.337 39.8947 69.4339 39.7183C69.5725 39.5234 69.8396 39.4834 70.075 39.4318C71.2303 39.1686 72.1035 38.2373 72.8248 37.2994C73.9437 35.851 74.8885 34.2765 75.6396 32.6083C76.1923 31.3805 76.9402 29.8829 78.2893 29.8712C77.7462 32.4166 77.073 34.9326 76.2724 37.4094C77.6832 37.0496 79.0239 36.5265 80.4346 36.1666C80.7108 36.0796 81.0001 36.0413 81.2895 36.0534C82.1343 36.1416 82.6518 37.2828 82.161 37.9741C82.8505 38.7804 83.9975 38.997 84.8991 39.5501C85.8006 40.1032 86.4484 41.4725 85.647 42.1672C85.4901 42.3021 85.2914 42.3971 85.1779 42.5703C84.7905 43.1667 85.7389 43.8514 85.6604 44.5578C85.5969 45.1358 84.854 45.4057 84.2913 45.2524C83.7287 45.0992 83.2896 44.6794 82.7887 44.3712C82.2879 44.063 81.6334 43.8714 81.1475 44.1913C81.0173 45.7589 80.8771 47.3565 80.1976 48.7841C79.9488 49.3056 79.6299 49.7937 79.4296 50.3351C79.2379 50.9254 79.1191 51.5369 79.0756 52.1559L78.4696 57.685C75.5779 58.2631 72.985 57.3985 70.5909 55.6843Z" fill="#EFB7B9"/>
<path d="M69.8847 60.6403L69.3521 57.0436C69.3011 56.7508 69.2727 56.4545 69.2669 56.1573C69.2669 55.3244 69.6342 54.5298 69.9898 53.7718C72.9366 55.1445 76.1222 55.6326 79.3728 55.6343C79.8019 55.6343 80.2911 55.5943 80.5582 55.2594C81.1108 55.8941 81.1275 56.9153 80.8921 57.7216C80.6567 58.5279 80.2042 59.2543 79.9037 60.0406C79.7518 60.4387 79.6282 60.8735 79.3377 61.18C78.887 61.6648 78.1557 61.7481 77.4912 61.7448C76.7921 61.7404 76.0949 61.674 75.4076 61.5465C73.6278 61.2167 71.6644 60.3221 69.8847 60.6403Z" fill="white"/>
<path d="M80.8754 60.4937C78.5881 60.2338 76.3158 59.8673 74.0586 59.3942C72.9517 59.1626 71.8347 58.9044 70.7061 58.9494C69.9715 58.9794 69.1818 59.126 68.5357 58.7628C69.1651 60.9002 69.2035 63.1525 68.4505 65.2498C68.0047 66.4992 67.3252 67.6637 66.998 68.9498C66.3168 71.6402 67.2518 74.5738 66.4003 77.216C66.3102 77.5612 66.1332 77.8778 65.8861 78.1355C65.6256 78.3738 65.27 78.497 65.0296 78.7552C64.6756 79.1351 64.6539 79.7065 64.6522 80.2246L64.6372 84.8141C64.6272 87.7361 64.6656 90.8347 66.2116 93.3102C67.9747 96.1422 71.6861 97.6099 74.9167 96.7486C75.7757 96.5294 76.5804 96.1365 77.2808 95.5941C78.4028 94.7045 79.1174 93.4185 79.8169 92.1657C80.6517 90.6664 81.4865 89.1338 81.7553 87.4462C81.9456 86.2518 81.8387 85.0323 81.7018 83.8312C80.9472 77.1676 79.3094 70.5607 79.6616 63.8721C79.7144 62.6494 80.1376 61.4714 80.8754 60.4937Z" fill="#004897"/>
<path d="M90.4353 88.1476C89.275 88.2142 88.1063 88.2808 86.951 88.1476C86.1162 88.0476 85.3014 87.8427 84.4733 87.7028C82.2118 87.3383 79.898 87.4665 77.6908 88.0784C75.4835 88.6903 73.4351 89.7715 71.6861 91.2478C71.045 91.7942 70.3972 92.6322 70.7512 93.3968C71.1318 94.2198 72.2955 94.1964 73.1921 94.0432C72.2243 94.5043 71.3696 95.1713 70.6877 95.9973C70.4373 96.3021 70.2002 96.6636 70.2486 97.0584C70.3505 97.8831 71.4724 98.033 72.3022 97.9614C72.0317 98.2512 72.2137 98.7643 72.5576 98.9609C72.9016 99.1575 73.329 99.1175 73.718 99.0459C74.578 98.8887 75.409 98.6017 76.1823 98.1946C76.0253 98.6027 76.2975 99.0808 76.6831 99.2841C77.0688 99.4873 77.538 99.4723 77.9704 99.4024C80.0106 99.0692 81.7135 97.6532 83.7037 97.0968C86.8858 96.2088 90.215 97.6249 93.5224 97.7248C94.5575 97.7565 95.6193 97.6515 96.5627 97.225C97.7197 96.7003 98.653 95.7157 99.8751 95.3659C101.232 94.9794 102.79 95.4242 104.032 94.7562C104.936 94.2714 104.121 90.5348 103.89 89.8151C103.468 88.4991 103.044 87.6262 101.636 87.4929C98.0753 87.1447 94.0232 87.941 90.4353 88.1476Z" fill="#EFB7B9"/>
<path d="M99.3191 87.128C99.3191 87.128 104.71 91.6809 101.6 96.6486L107.61 94.5779V90.2316C107.61 90.025 105.328 86.9215 105.328 86.9215L102.632 86.5067L99.3191 87.128Z" fill="white"/>
<path d="M42.8728 86.8465H44.8946C46.0016 86.8465 47.0632 87.2853 47.846 88.0663C48.6288 88.8474 49.0685 89.9067 49.0685 91.0112V97.1934H38.6989V91.0112C38.6989 90.4643 38.8068 89.9228 39.0166 89.4175C39.2263 88.9122 39.5338 88.4531 39.9214 88.0663C40.3089 87.6796 40.7691 87.3728 41.2755 87.1635C41.7819 86.9542 42.3246 86.8465 42.8728 86.8465Z" fill="#3F3D56"/>
<path opacity="0.1" d="M42.8728 86.8465H44.8946C46.0016 86.8465 47.0632 87.2853 47.846 88.0663C48.6288 88.8474 49.0685 89.9067 49.0685 91.0112V97.1934H38.6989V91.0112C38.6989 90.4643 38.8068 89.9228 39.0166 89.4175C39.2263 88.9122 39.5338 88.4531 39.9214 88.0663C40.3089 87.6796 40.7691 87.3728 41.2755 87.1635C41.7819 86.9542 42.3246 86.8465 42.8728 86.8465Z" fill="black"/>
<path d="M43.4688 89.1221C43.9271 89.1221 44.2986 88.7515 44.2986 88.2942C44.2986 87.8369 43.9271 87.4662 43.4688 87.4662C43.0105 87.4662 42.639 87.8369 42.639 88.2942C42.639 88.7515 43.0105 89.1221 43.4688 89.1221Z" fill="#3F3D56"/>
<path d="M43.4688 88.0876C43.9271 88.0876 44.2986 87.7169 44.2986 87.2596C44.2986 86.8024 43.9271 86.4317 43.4688 86.4317C43.0105 86.4317 42.639 86.8024 42.639 87.2596C42.639 87.7169 43.0105 88.0876 43.4688 88.0876Z" fill="#3F3D56"/>
<path d="M43.4688 87.0531C43.9271 87.0531 44.2986 86.6824 44.2986 86.2251C44.2986 85.7678 43.9271 85.3972 43.4688 85.3972C43.0105 85.3972 42.639 85.7678 42.639 86.2251C42.639 86.6824 43.0105 87.0531 43.4688 87.0531Z" fill="#3F3D56"/>
<path d="M43.4688 86.0186C43.9271 86.0186 44.2986 85.6479 44.2986 85.1906C44.2986 84.7334 43.9271 84.3627 43.4688 84.3627C43.0105 84.3627 42.639 84.7334 42.639 85.1906C42.639 85.6479 43.0105 86.0186 43.4688 86.0186Z" fill="#3F3D56"/>
<path d="M43.4688 84.9841C43.9271 84.9841 44.2986 84.6134 44.2986 84.1561C44.2986 83.6989 43.9271 83.3282 43.4688 83.3282C43.0105 83.3282 42.639 83.6989 42.639 84.1561C42.639 84.6134 43.0105 84.9841 43.4688 84.9841Z" fill="#3F3D56"/>
<path d="M43.4688 83.9495C43.9271 83.9495 44.2986 83.5789 44.2986 83.1216C44.2986 82.6643 43.9271 82.2936 43.4688 82.2936C43.0105 82.2936 42.639 82.6643 42.639 83.1216C42.639 83.5789 43.0105 83.9495 43.4688 83.9495Z" fill="#3F3D56"/>
<path d="M43.4688 82.9134C43.9271 82.9134 44.2986 82.5427 44.2986 82.0854C44.2986 81.6281 43.9271 81.2574 43.4688 81.2574C43.0105 81.2574 42.639 81.6281 42.639 82.0854C42.639 82.5427 43.0105 82.9134 43.4688 82.9134Z" fill="#3F3D56"/>
<path d="M44.7143 83.3281C45.1726 83.3281 45.5441 82.9574 45.5441 82.5002C45.5441 82.0429 45.1726 81.6722 44.7143 81.6722C44.256 81.6722 43.8845 82.0429 43.8845 82.5002C43.8845 82.9574 44.256 83.3281 44.7143 83.3281Z" fill="#3F3D56"/>
<path d="M45.5441 82.9134C46.0023 82.9134 46.3738 82.5427 46.3738 82.0854C46.3738 81.6281 46.0023 81.2574 45.5441 81.2574C45.0858 81.2574 44.7143 81.6281 44.7143 82.0854C44.7143 82.5427 45.0858 82.9134 45.5441 82.9134Z" fill="#3F3D56"/>
<path d="M46.3738 82.5002C46.8321 82.5002 47.2036 82.1295 47.2036 81.6723C47.2036 81.215 46.8321 80.8443 46.3738 80.8443C45.9156 80.8443 45.5441 81.215 45.5441 81.6723C45.5441 82.1295 45.9156 82.5002 46.3738 82.5002Z" fill="#3F3D56"/>
<path d="M43.4688 81.8788C43.9271 81.8788 44.2986 81.5081 44.2986 81.0509C44.2986 80.5936 43.9271 80.2229 43.4688 80.2229C43.0105 80.2229 42.639 80.5936 42.639 81.0509C42.639 81.5081 43.0105 81.8788 43.4688 81.8788Z" fill="#3F3D56"/>
<path d="M43.4688 80.8443C43.9271 80.8443 44.2986 80.4736 44.2986 80.0164C44.2986 79.5591 43.9271 79.1884 43.4688 79.1884C43.0105 79.1884 42.639 79.5591 42.639 80.0164C42.639 80.4736 43.0105 80.8443 43.4688 80.8443Z" fill="#3F3D56"/>
<path d="M43.4688 79.8098C43.9271 79.8098 44.2986 79.4391 44.2986 78.9818C44.2986 78.5245 43.9271 78.1539 43.4688 78.1539C43.0105 78.1539 42.639 78.5245 42.639 78.9818C42.639 79.4391 43.0105 79.8098 43.4688 79.8098Z" fill="#3F3D56"/>
<path d="M43.4688 78.7753C43.9271 78.7753 44.2986 78.4046 44.2986 77.9473C44.2986 77.4901 43.9271 77.1194 43.4688 77.1194C43.0105 77.1194 42.639 77.4901 42.639 77.9473C42.639 78.4046 43.0105 78.7753 43.4688 78.7753Z" fill="#3F3D56"/>
<path d="M46.9148 75.2768C46.7078 75.3068 46.5007 75.3285 46.2937 75.3418C46.4862 75.1742 46.6648 74.9915 46.828 74.7954C46.713 74.4475 46.544 74.1197 46.3271 73.8242C46.1214 73.9394 45.894 74.0109 45.6593 74.0341C45.4539 74.0641 45.2469 74.0857 45.0399 74.1007C45.312 73.8791 45.5658 73.546 45.8329 73.2678C45.2344 72.7265 44.4676 72.4069 43.6611 72.3625C42.8546 72.3181 42.0572 72.5517 41.4027 73.024C40.7482 73.4963 40.2762 74.1788 40.0659 74.957C39.8556 75.7351 39.9196 76.5618 40.2474 77.2985C40.5752 78.0351 41.1467 78.637 41.8662 79.0033C42.5857 79.3696 43.4096 79.478 44.1997 79.3104C44.9898 79.1428 45.6982 78.7094 46.2062 78.0827C46.7141 77.456 46.9908 76.6742 46.9899 75.8682C46.99 75.6655 46.9721 75.4631 46.9365 75.2635L46.9148 75.2768Z" fill="#004897"/>
<path d="M49.6813 79.39C49.4697 79.5199 49.2308 79.5991 48.9834 79.6215C48.778 79.6515 48.571 79.6748 48.364 79.6882C48.584 79.4912 48.7893 79.2785 48.9784 79.0518C48.4781 78.9216 47.9471 78.9823 47.4893 79.222C47.0315 79.4617 46.6798 79.8632 46.5028 80.3479C46.3259 80.8327 46.3365 81.3658 46.5326 81.8431C46.7287 82.3205 47.0962 82.7076 47.5632 82.929C48.0301 83.1504 48.5631 83.19 49.0578 83.0401C49.5525 82.8902 49.9734 82.5616 50.2382 82.1186C50.503 81.6755 50.5927 81.1498 50.4897 80.6443C50.3867 80.1387 50.0984 79.6897 49.6813 79.385V79.39Z" fill="#004897"/>
<path d="M42.225 83.3281C42.6833 83.3281 43.0548 82.9574 43.0548 82.5002C43.0548 82.0429 42.6833 81.6722 42.225 81.6722C41.7667 81.6722 41.3952 82.0429 41.3952 82.5002C41.3952 82.9574 41.7667 83.3281 42.225 83.3281Z" fill="#3F3D56"/>
<path d="M41.3952 82.9134C41.8535 82.9134 42.225 82.5427 42.225 82.0854C42.225 81.6281 41.8535 81.2574 41.3952 81.2574C40.9369 81.2574 40.5654 81.6281 40.5654 82.0854C40.5654 82.5427 40.9369 82.9134 41.3952 82.9134Z" fill="#3F3D56"/>
<path d="M40.5654 82.5002C41.0237 82.5002 41.3952 82.1295 41.3952 81.6723C41.3952 81.215 41.0237 80.8443 40.5654 80.8443C40.1072 80.8443 39.7357 81.215 39.7357 81.6723C39.7357 82.1295 40.1072 82.5002 40.5654 82.5002Z" fill="#3F3D56"/>
<path d="M37.258 79.39C37.4696 79.5199 37.7085 79.5991 37.9559 79.6215C38.1613 79.6515 38.3683 79.6748 38.5753 79.6882C38.3549 79.4917 38.1495 79.2789 37.9609 79.0518C38.4612 78.9216 38.9921 78.9823 39.4499 79.222C39.9078 79.4617 40.2595 79.8632 40.4364 80.3479C40.6134 80.8327 40.6027 81.3658 40.4067 81.8431C40.2106 82.3205 39.8431 82.7076 39.3761 82.929C38.9091 83.1504 38.3762 83.19 37.8815 83.0401C37.3868 82.8902 36.9659 82.5616 36.7011 82.1186C36.4363 81.6755 36.3466 81.1498 36.4496 80.6443C36.5526 80.1387 36.8409 79.6897 37.258 79.385V79.39Z" fill="#004897"/>
<path d="M42.8728 87.4595H44.8946C46.0016 87.4595 47.0632 87.8983 47.846 88.6794C48.6288 89.4604 49.0685 90.5197 49.0685 91.6243V97.1001C49.0685 97.2874 48.9939 97.4671 48.8612 97.5996C48.7284 97.732 48.5484 97.8064 48.3606 97.8064H39.4017C39.214 97.8064 39.0339 97.732 38.9012 97.5996C38.7684 97.4671 38.6938 97.2874 38.6938 97.1001V91.6243C38.6938 91.0769 38.802 90.535 39.012 90.0293C39.2221 89.5237 39.53 89.0644 39.9181 88.6776C40.3062 88.2908 40.7669 87.9841 41.2739 87.7751C41.7809 87.5661 42.3242 87.4589 42.8728 87.4595Z" fill="#3F3D56"/>
<g opacity="0.1">
<path opacity="0.1" d="M46.9715 75.5034C46.8875 75.5929 46.7983 75.6775 46.7044 75.7566C46.7996 75.7566 46.8931 75.7416 46.9882 75.7316C46.9849 75.655 46.9799 75.5783 46.9715 75.5034Z" fill="black"/>
<path opacity="0.1" d="M45.4589 74.5138C45.6676 74.5005 45.873 74.4789 46.08 74.4489C46.2657 74.4254 46.4473 74.3761 46.6193 74.3023C46.5348 74.1357 46.4377 73.9759 46.3288 73.8242C46.2249 73.8872 46.1124 73.9349 45.9948 73.9658C45.8311 74.1624 45.6519 74.3457 45.4589 74.5138Z" fill="black"/>
<path opacity="0.1" d="M40.3584 76.2914C40.3572 75.6598 40.5266 75.0395 40.849 74.496C41.1714 73.9525 41.6347 73.5057 42.1902 73.2029C42.7456 72.9 43.3726 72.7522 44.0052 72.7751C44.6378 72.7979 45.2524 72.9906 45.7845 73.3327L45.8379 73.2761C45.4907 72.9678 45.0857 72.7311 44.6464 72.5797C44.2071 72.4283 43.7421 72.3651 43.2782 72.3938C42.8144 72.4225 42.3607 72.5425 41.9435 72.7469C41.5263 72.9513 41.1538 73.2361 40.8474 73.5848C40.541 73.9335 40.3068 74.3393 40.1582 74.7787C40.0097 75.2182 39.9497 75.6826 39.9819 76.1452C40.014 76.6079 40.1376 77.0596 40.3455 77.4744C40.5534 77.8892 40.8415 78.2588 41.1932 78.562C40.6532 77.9282 40.3573 77.1232 40.3584 76.2914Z" fill="black"/>
</g>
<g opacity="0.1">
<path opacity="0.1" d="M48.364 80.1012C48.571 80.0879 48.778 80.0662 48.9834 80.0363C49.2309 80.0133 49.4698 79.9335 49.6813 79.803C49.9157 79.9753 50.1111 80.1948 50.255 80.4474C50.3988 80.7 50.4877 80.9799 50.516 81.269C50.5241 81.1966 50.528 81.1237 50.5277 81.0508C50.5293 80.7272 50.4546 80.4079 50.3095 80.1185C50.1645 79.8291 49.9533 79.5778 49.6929 79.3849C49.4813 79.5148 49.2425 79.594 48.9951 79.6165L48.8281 79.6381C48.6856 79.8042 48.5304 79.9591 48.364 80.1012Z" fill="black"/>
<path opacity="0.1" d="M48.4474 79.395C48.5167 79.3957 48.5858 79.4008 48.6545 79.4099C48.763 79.295 48.8698 79.1717 48.9784 79.0518C48.6714 78.97 48.3497 78.9598 48.0382 79.0219C47.7267 79.0841 47.4337 79.2169 47.1818 79.4102C46.93 79.6035 46.7262 79.852 46.5861 80.1365C46.4459 80.421 46.3733 80.7339 46.3738 81.0509C46.3738 81.1208 46.3738 81.1891 46.3839 81.2574C46.4352 80.747 46.6748 80.2737 47.0561 79.9296C47.4374 79.5854 47.9333 79.3949 48.4474 79.395Z" fill="black"/>
</g>
<g opacity="0.1">
<path opacity="0.1" d="M38.5753 80.1012C38.3683 80.0879 38.1612 80.0662 37.9559 80.0363C37.7083 80.0133 37.4695 79.9335 37.258 79.803C37.0236 79.9753 36.8281 80.1948 36.6843 80.4474C36.5405 80.7 36.4515 80.9799 36.4232 81.269C36.4151 81.1966 36.4112 81.1237 36.4115 81.0508C36.41 80.7272 36.4847 80.4079 36.6297 80.1185C36.7747 79.8291 36.986 79.5778 37.2463 79.3849C37.4579 79.5148 37.6968 79.594 37.9442 79.6165L38.1112 79.6381C38.2527 79.8051 38.408 79.96 38.5753 80.1012Z" fill="black"/>
<path opacity="0.1" d="M38.4918 79.395C38.422 79.3958 38.3523 79.4008 38.2831 79.4099C38.1763 79.295 38.0694 79.1717 37.9609 79.0518C38.2678 78.97 38.5895 78.9598 38.9011 79.0219C39.2126 79.0841 39.5056 79.2169 39.7574 79.4102C40.0092 79.6035 40.2131 79.852 40.3532 80.1365C40.4933 80.421 40.5659 80.7339 40.5654 81.0509C40.5654 81.1208 40.5654 81.1891 40.5554 81.2574C40.5041 80.747 40.2645 80.2737 39.8832 79.9296C39.5019 79.5854 39.006 79.3949 38.4918 79.395Z" fill="black"/>
</g>
<path d="M32.8654 99.8089H16.5537C16.37 99.8089 16.1937 99.736 16.0638 99.6064C15.9339 99.4767 15.8609 99.3009 15.8609 99.1175V91.4144C15.8608 91.2978 15.8904 91.183 15.9468 91.0808C16.0032 90.9786 16.0846 90.8923 16.1834 90.8299C16.2822 90.7676 16.3953 90.7312 16.512 90.7242C16.6287 90.7171 16.7453 90.7397 16.8509 90.7897C21.5374 93.0087 26.5862 93.77 32.5448 90.8247C32.6505 90.7727 32.7676 90.7484 32.8852 90.754C33.0029 90.7596 33.1171 90.795 33.2173 90.8568C33.3175 90.9186 33.4003 91.0048 33.4579 91.1073C33.5155 91.2098 33.546 91.3252 33.5466 91.4427V99.1059C33.5481 99.1967 33.5317 99.2869 33.4983 99.3713C33.4649 99.4558 33.4152 99.5329 33.3519 99.5982C33.2887 99.6635 33.2132 99.7157 33.1297 99.7518C33.0462 99.788 32.9564 99.8074 32.8654 99.8089Z" fill="#004897"/>
<path opacity="0.1" d="M32.8654 99.8089H16.5537C16.37 99.8089 16.1937 99.736 16.0638 99.6064C15.9339 99.4767 15.8609 99.3009 15.8609 99.1175V91.4144C15.8608 91.2978 15.8904 91.183 15.9468 91.0808C16.0032 90.9786 16.0846 90.8923 16.1834 90.8299C16.2822 90.7676 16.3953 90.7312 16.512 90.7242C16.6287 90.7171 16.7453 90.7397 16.8509 90.7897C21.5374 93.0087 26.5862 93.77 32.5448 90.8247C32.6505 90.7727 32.7676 90.7484 32.8852 90.754C33.0029 90.7596 33.1171 90.795 33.2173 90.8568C33.3175 90.9186 33.4003 91.0048 33.4579 91.1073C33.5155 91.2098 33.546 91.3252 33.5466 91.4427V99.1059C33.5481 99.1967 33.5317 99.2869 33.4983 99.3713C33.4649 99.4558 33.4152 99.5329 33.3519 99.5982C33.2887 99.6635 33.2132 99.7157 33.1297 99.7518C33.0462 99.788 32.9564 99.8074 32.8654 99.8089Z" fill="black"/>
<path d="M24.596 93.9532C25.129 93.9532 25.561 93.3886 25.561 92.6921C25.561 91.9956 25.129 91.431 24.596 91.431C24.0631 91.431 23.631 91.9956 23.631 92.6921C23.631 93.3886 24.0631 93.9532 24.596 93.9532Z" fill="#3F3D56"/>
<path d="M24.596 92.4123C25.129 92.4123 25.561 91.8477 25.561 91.1512C25.561 90.4547 25.129 89.8901 24.596 89.8901C24.0631 89.8901 23.631 90.4547 23.631 91.1512C23.631 91.8477 24.0631 92.4123 24.596 92.4123Z" fill="#3F3D56"/>
<path d="M24.596 90.8696C25.129 90.8696 25.561 90.305 25.561 89.6086C25.561 88.9121 25.129 88.3475 24.596 88.3475C24.0631 88.3475 23.631 88.9121 23.631 89.6086C23.631 90.305 24.0631 90.8696 24.596 90.8696Z" fill="#3F3D56"/>
<path d="M24.596 89.3287C25.129 89.3287 25.561 88.7641 25.561 88.0676C25.561 87.3711 25.129 86.8065 24.596 86.8065C24.0631 86.8065 23.631 87.3711 23.631 88.0676C23.631 88.7641 24.0631 89.3287 24.596 89.3287Z" fill="#3F3D56"/>
<path d="M24.596 87.7861C25.129 87.7861 25.561 87.2215 25.561 86.525C25.561 85.8285 25.129 85.2639 24.596 85.2639C24.0631 85.2639 23.631 85.8285 23.631 86.525C23.631 87.2215 24.0631 87.7861 24.596 87.7861Z" fill="#3F3D56"/>
<path d="M24.596 86.2434C25.129 86.2434 25.561 85.6788 25.561 84.9823C25.561 84.2859 25.129 83.7213 24.596 83.7213C24.0631 83.7213 23.631 84.2859 23.631 84.9823C23.631 85.6788 24.0631 86.2434 24.596 86.2434Z" fill="#3F3D56"/>
<path d="M24.596 84.7025C25.129 84.7025 25.561 84.1379 25.561 83.4414C25.561 82.7449 25.129 82.1803 24.596 82.1803C24.0631 82.1803 23.631 82.7449 23.631 83.4414C23.631 84.1379 24.0631 84.7025 24.596 84.7025Z" fill="#3F3D56"/>
<path d="M28.2156 72.8896C28.3467 72.7216 28.4666 72.5452 28.5746 72.3616L26.0369 71.9451L28.7816 71.9651C29.0464 71.3926 29.1909 70.7721 29.2061 70.1417C29.2213 69.5114 29.107 68.8846 28.8701 68.3001L25.1887 70.2059L28.5846 67.707C28.2666 67.1583 27.8388 66.6809 27.3278 66.3044C26.8168 65.9278 26.2336 65.6604 25.6145 65.5186C24.9954 65.3768 24.3536 65.3638 23.7292 65.4803C23.1048 65.5968 22.5112 65.8403 21.9852 66.1958C21.4593 66.5512 21.0124 67.0109 20.6722 67.5462C20.3321 68.0815 20.1062 68.681 20.0084 69.3073C19.9106 69.9335 19.9431 70.5732 20.1039 71.1864C20.2647 71.7995 20.5504 72.3731 20.943 72.8713C20.7367 73.1316 20.5598 73.4137 20.4154 73.7126L23.7078 75.4385L20.2017 74.2557C19.956 74.9827 19.8955 75.7594 20.0258 76.5155C20.1561 77.2717 20.473 77.9836 20.948 78.587C20.4113 79.2679 20.0774 80.0858 19.9845 80.9471C19.8917 81.8085 20.0436 82.6785 20.4229 83.4577C20.8022 84.237 21.3936 84.894 22.1295 85.3536C22.8654 85.8133 23.7161 86.0571 24.5843 86.0571C25.4525 86.0571 26.3032 85.8133 27.0391 85.3536C27.775 84.894 28.3665 84.237 28.7458 83.4577C29.1251 82.6785 29.277 81.8085 29.1842 80.9471C29.0913 80.0858 28.7574 79.2679 28.2207 78.587C28.8619 77.7734 29.2106 76.7684 29.2106 75.7333C29.2106 74.6983 28.8619 73.6932 28.2207 72.8797L28.2156 72.8896Z" fill="#004897"/>
<path opacity="0.1" d="M19.9496 75.7433C19.9481 76.7786 20.297 77.7842 20.9397 78.597C20.4029 79.2779 20.069 80.0958 19.9762 80.9571C19.8833 81.8184 20.0352 82.6884 20.4145 83.4677C20.7939 84.2469 21.3853 84.9039 22.1212 85.3636C22.8571 85.8233 23.7078 86.067 24.576 86.067C25.4442 86.067 26.2949 85.8233 27.0308 85.3636C27.7667 84.9039 28.3581 84.2469 28.7374 83.4677C29.1168 82.6884 29.2687 81.8184 29.1758 80.9571C29.083 80.0958 28.7491 79.2779 28.2123 78.597C28.8317 77.8123 19.9496 75.2252 19.9496 75.7433Z" fill="black"/>
<path d="M32.8654 100.217H16.5537C16.37 100.217 16.1937 100.144 16.0638 100.015C15.9339 99.8849 15.8609 99.709 15.8609 99.5257V91.4144C15.8608 91.2978 15.8904 91.183 15.9468 91.0808C16.0032 90.9786 16.0846 90.8923 16.1834 90.8299C16.2822 90.7676 16.3953 90.7312 16.512 90.7242C16.6287 90.7171 16.7453 90.7397 16.8509 90.7897C21.5374 93.0087 25.2538 95.5958 32.5448 90.8247C32.9773 90.5415 33.5466 90.928 33.5466 91.4427V99.5223C33.5475 99.7043 33.4765 99.8792 33.349 100.009C33.2215 100.139 33.0477 100.214 32.8654 100.217Z" fill="#004897"/>
<path d="M153.906 97.9231L129.84 101.1L128.637 101.258L116.871 94.9878V93.5201L153.638 89.5186L153.906 97.9231Z" fill="#9C9CA1"/>
<path d="M123.69 95.6541L149.76 92.5872L149.493 97.39L129.186 98.876L123.69 95.6541Z" fill="#939498"/>
<path opacity="0.4" d="M129.84 99.5223V101.098L128.637 101.265L116.87 94.9878V93.5201L128.101 99.5174C128.101 99.5174 129.573 99.6556 129.84 99.5223Z" fill="black"/>
<path d="M134.46 74.5089L129.057 99.5057C129.003 99.7559 129.01 100.016 129.077 100.263C129.144 100.51 129.27 100.737 129.444 100.926C129.618 101.114 129.835 101.258 130.076 101.345C130.317 101.432 130.576 101.46 130.83 101.426L165.012 96.9119C165.309 96.8727 165.59 96.7507 165.821 96.5598C166.053 96.3689 166.226 96.1168 166.32 95.8324L173.695 73.6426C173.776 73.3964 173.797 73.1341 173.754 72.8784C173.711 72.6226 173.607 72.381 173.45 72.1745C173.293 71.9679 173.088 71.8026 172.852 71.6927C172.617 71.5827 172.358 71.5316 172.099 71.5436L135.949 73.2561C135.598 73.2728 135.261 73.4045 134.992 73.6309C134.723 73.8573 134.536 74.1659 134.46 74.5089Z" fill="#3F3D56"/>
<path d="M153.242 83.7306C153.326 82.9346 152.978 82.2457 152.466 82.1919C151.953 82.1382 151.469 82.7399 151.386 83.536C151.302 84.332 151.649 85.0209 152.162 85.0747C152.675 85.1285 153.158 84.5267 153.242 83.7306Z" fill="white"/>
</g>
<defs>
<clipPath id="clip0">
<rect width="192" height="104.533" fill="white"/>
</clipPath>
</defs>
</svg>
